<svg width="69" height="44" viewBox="0 0 69 44" fill="none" xmlns="http://www.w3.org/2000/svg">
<g clip-path="url(#clip0_46_45)">
<path d="M1.03812 14.6536V28.6609" stroke="#5DD7E5"/>
<path d="M2.54865 12.6333V30.6809" stroke="#5DD7E5"/>
<path d="M4.05917 14.6536V28.6609" stroke="#5DD7E5"/>
<path d="M5.56769 14.2739V29.0397" stroke="#5DD7E5"/>
<path d="M7.07822 9.22119V34.0936" stroke="#5DD7E5"/>
<path d="M8.58875 9.51929V33.7941" stroke="#5DD7E5"/>
<path d="M10.0993 10.1064V33.2074" stroke="#5DD7E5"/>
<path d="M11.6098 5.25311V38.0603" stroke="#5DD7E5"/>
<path d="M13.1183 8.85663V34.4585" stroke="#5DD7E5"/>
<path d="M14.6288 10.1064V33.2074" stroke="#5DD7E5"/>
<path d="M16.1373 10.1064V33.2074" stroke="#5DD7E5"/>
<path d="M17.6479 12.2546V31.0605" stroke="#5DD7E5"/>
<path d="M19.1584 11.6917V31.6229" stroke="#5DD7E5"/>
<path d="M20.6669 11.3079V32.0081" stroke="#5DD7E5"/>
<path d="M22.1775 7.06696V36.2465" stroke="#5DD7E5"/>
<path d="M23.688 8.91705V34.3961" stroke="#5DD7E5"/>
<path d="M25.1965 8.85663V34.4585" stroke="#5DD7E5"/>
<path d="M26.707 10.1064V33.2074" stroke="#5DD7E5"/>
<path d="M28.2175 10.1306V33.183" stroke="#5DD7E5"/>
<path d="M29.728 13.0059V30.3074" stroke="#5DD7E5"/>
<path d="M31.2386 11.6917V31.6229" stroke="#5DD7E5"/>
<path d="M32.7471 12.8136V30.5002" stroke="#5DD7E5"/>
<path d="M34.2576 13.0059V30.3074" stroke="#5DD7E5"/>
<path d="M35.7682 12.585V30.7296" stroke="#5DD7E5"/>
<path d="M37.2787 14.9084V28.4062" stroke="#5DD7E5"/>
<path d="M38.7872 13.3132V30.0018" stroke="#5DD7E5"/>
<path d="M40.2978 14.6335V28.6802" stroke="#5DD7E5"/>
<path d="M41.8082 12.585V30.7296" stroke="#5DD7E5"/>
<path d="M43.3188 12.2546V31.0605" stroke="#5DD7E5"/>
<path d="M44.8272 4.64081V38.6734" stroke="#5DD7E5"/>
<path d="M46.3378 1.03131V42.283" stroke="#5DD7E5"/>
<path d="M47.8463 3.08484V40.2296" stroke="#5DD7E5"/>
<path d="M49.3568 10.1306V33.183" stroke="#5DD7E5"/>
<path d="M50.8674 4.64081V38.6734" stroke="#5DD7E5"/>
<path d="M52.378 8.37018V34.9442" stroke="#5DD7E5"/>
<path d="M53.8864 6.6087V36.7043" stroke="#5DD7E5"/>
<path d="M55.397 8.59778V34.7168" stroke="#5DD7E5"/>
<path d="M56.9075 7.47687V35.8374" stroke="#5DD7E5"/>
<path d="M58.416 7.94818V35.3653" stroke="#5DD7E5"/>
<path d="M59.9266 12.4057V30.9083" stroke="#5DD7E5"/>
<path d="M61.437 12.9304V30.3835" stroke="#5DD7E5"/>
<path d="M62.9476 15.2115V28.1027" stroke="#5DD7E5"/>
<path d="M64.4561 15.2115V28.1027" stroke="#5DD7E5"/>
<path d="M65.9666 16.1472V27.1668" stroke="#5DD7E5"/>
<path d="M67.4771 16.1472V27.1668" stroke="#5DD7E5"/>
<path d="M8.65894 27.1091C8.57462 27.1091 8.50562 27.0408 8.50562 26.9574V16.3412C8.50562 16.2577 8.57462 16.1895 8.65894 16.1895H12.2929C13.0458 16.1895 13.7144 16.3063 14.2832 16.5338C14.8613 16.7673 15.3181 17.1252 15.6402 17.5984C15.9622 18.0716 16.1262 18.6646 16.1262 19.3592C16.1262 19.799 16.0127 20.21 15.7905 20.5816C15.608 20.8849 15.3641 21.1548 15.0622 21.3884C15.4838 21.6371 15.8196 21.9541 16.0649 22.3333C16.3501 22.7761 16.4958 23.3114 16.4958 23.9241C16.4958 24.5976 16.3379 25.1815 16.0266 25.6592C15.7153 26.1369 15.2737 26.5039 14.7171 26.7466C14.1682 26.9863 13.5181 27.1091 12.7852 27.1091H8.66048H8.65894ZM12.5843 24.9707C13.0443 24.9707 13.4076 24.8584 13.6637 24.637C13.9167 24.4171 14.041 24.1304 14.041 23.7574C14.041 23.3843 13.9045 23.0719 13.6239 22.8519C13.3356 22.6275 12.9293 22.5137 12.4156 22.5137H10.8669V24.9707H12.5843ZM12.339 20.5118C12.7591 20.5118 13.0903 20.4071 13.3264 20.2009C13.5595 19.9962 13.673 19.711 13.673 19.3289C13.673 18.9467 13.5472 18.6661 13.2866 18.4614C13.0198 18.252 12.6441 18.1459 12.1703 18.1459H10.8669V20.5118H12.339Z" fill="#005E68"/>
<path d="M22.9488 27.2917C21.8432 27.2917 20.8512 27.0475 19.9971 26.5667C19.1431 26.0844 18.4668 25.4125 17.9838 24.5678C17.5024 23.7246 17.2586 22.7434 17.2586 21.6499C17.2586 20.5564 17.5024 19.5751 17.9838 18.7319C18.4653 17.8872 19.1369 17.2183 19.9817 16.7406C20.8251 16.2644 21.8064 16.0233 22.9028 16.0233C23.9991 16.0233 24.9835 16.2675 25.8314 16.7483C26.6793 17.2305 27.354 17.9024 27.8355 18.7471C28.3169 19.5903 28.5607 20.5731 28.5607 21.665C28.5607 22.757 28.3199 23.7246 27.8431 24.5678C27.3662 25.4125 26.6993 26.0844 25.8621 26.5667C25.0249 27.049 24.0436 27.2932 22.9488 27.2932V27.2917ZM22.9028 18.2224C22.2909 18.2224 21.7374 18.371 21.2575 18.6621C20.7776 18.9549 20.3957 19.3613 20.1244 19.8709C19.8515 20.382 19.7134 20.9856 19.7134 21.665C19.7134 22.3445 19.8515 22.9329 20.1244 23.444C20.3957 23.9536 20.7791 24.36 21.2652 24.6512C21.7496 24.9439 22.3155 25.0911 22.9488 25.0911C23.582 25.0911 24.111 24.9424 24.5848 24.6512C25.0586 24.3586 25.4358 23.9506 25.7026 23.4364C25.9709 22.9193 26.1074 22.3187 26.1074 21.6483C26.1074 20.978 25.9695 20.3805 25.6964 19.8694C25.4251 19.3598 25.0464 18.9534 24.571 18.6607C24.0972 18.3694 23.536 18.2208 22.9043 18.2208L22.9028 18.2224Z" fill="#005E68"/>
<path d="M30.1105 27.1101C30.0262 27.1101 29.9572 27.0418 29.9572 26.9584V16.3421C29.9572 16.2587 30.0262 16.1904 30.1105 16.1904H32.2112C32.2955 16.1904 32.3645 16.2587 32.3645 16.3421V24.9109H36.9338C37.0182 24.9109 37.0871 24.9792 37.0871 25.0626V26.9584C37.0871 27.0418 37.0182 27.1101 36.9338 27.1101H30.1105Z" fill="#005E68"/>
<path d="M45.7811 27.1095C45.732 27.1095 45.686 27.0868 45.6569 27.0474L40.5984 20.1604V26.9578C40.5984 27.0413 40.5294 27.1095 40.4451 27.1095H38.3445C38.2601 27.1095 38.1911 27.0413 38.1911 26.9578V16.3416C38.1911 16.2582 38.2601 16.1899 38.3445 16.1899H40.5371C40.5862 16.1899 40.6321 16.2127 40.6613 16.2521L45.6277 23.0025V16.3401C45.6277 16.2566 45.6968 16.1885 45.7811 16.1885H47.8664C47.9507 16.1885 48.0198 16.2566 48.0198 16.3401V26.9563C48.0198 27.0397 47.9507 27.108 47.8664 27.108H45.7811V27.1095Z" fill="#005E68"/>
<path d="M57.6334 27.1101C57.5705 27.1101 57.5122 27.0706 57.4907 27.0129L56.6244 24.7744H52.3878L51.5215 27.0129C51.4985 27.0721 51.4418 27.1101 51.3788 27.1101H49.1555C49.105 27.1101 49.0574 27.0857 49.0283 27.0432C48.9992 27.0023 48.9945 26.9493 49.013 26.9023L53.245 16.286C53.268 16.2284 53.3247 16.1904 53.3875 16.1904H55.6262C55.6891 16.1904 55.7458 16.2284 55.7688 16.286L60.0008 26.9023C60.0191 26.9493 60.013 27.0023 59.9854 27.0432C59.9563 27.0843 59.9088 27.1101 59.8582 27.1101H57.6349H57.6334ZM55.7964 22.636L54.5053 19.301L53.2142 22.636H55.7949H55.7964Z" fill="#005E68"/>
</g>
<defs>
<clipPath id="clip0_46_45">
<rect width="68.5153" height="43.3142" fill="white"/>
</clipPath>
</defs>
</svg>
