<svg width="98" height="27" viewBox="0 0 98 27" fill="none" xmlns="http://www.w3.org/2000/svg">
<g clip-path="url(#clip0_46_109)">
<mask id="mask0_46_109" style="mask-type:luminance" maskUnits="userSpaceOnUse" x="0" y="0" width="98" height="27">
<path d="M97.6539 0.568298H0V26.2074H97.6539V0.568298Z" fill="white"/>
</mask>
<g mask="url(#mask0_46_109)">
<path fill-rule="evenodd" clip-rule="evenodd" d="M59.7899 19.7845V21.6817H59.6777C59.6652 21.5562 59.6527 21.4724 59.6278 21.4306C59.6028 21.3887 59.5653 21.3748 59.5029 21.3748H56.5066V22.2676H58.2419C58.4168 22.2676 58.5166 22.1839 58.5292 22.0165H58.6414V23.7045H58.5292C58.5166 23.6208 58.5042 23.551 58.4543 23.5091C58.4168 23.4674 58.3417 23.4394 58.2544 23.4394H56.5066V24.4578H59.5155C59.5653 24.4578 59.6153 24.4299 59.6403 24.388C59.6652 24.3461 59.6777 24.2624 59.6902 24.1369H59.8025V26.0481H59.6902C59.6652 25.8807 59.6153 25.797 59.5155 25.8109H54.7839V25.6854C54.9087 25.6715 54.9835 25.6435 55.0085 25.6156C55.0334 25.5737 55.0459 25.5459 55.0459 25.504V20.4262C55.0459 20.3704 55.0334 20.3286 55.0085 20.3006C54.9835 20.2588 54.9087 20.2309 54.7839 20.2309V20.1053H59.5029C59.5653 20.1053 59.6028 20.0914 59.6278 20.0496C59.6527 20.0077 59.6652 19.924 59.6777 19.7985H59.7899V19.7845ZM31.3377 20.0914V20.2169C31.2379 20.2169 31.163 20.2448 31.1256 20.2867C31.0879 20.3146 31.0753 20.3564 31.0753 20.4123V23.3278C31.0753 24.123 31.4749 24.5136 32.2491 24.4997C33.0106 24.5136 33.4102 24.123 33.4226 23.3278V20.4123C33.4226 20.3564 33.4102 20.3146 33.3851 20.2867C33.3602 20.2448 33.2853 20.2169 33.1605 20.2169V20.0914H35.1454V20.2169C35.0331 20.2169 34.9582 20.2448 34.9208 20.2867C34.8833 20.3146 34.8709 20.3564 34.8709 20.4123V23.3278C34.8709 24.2624 34.6086 24.9321 34.1092 25.3087C33.6348 25.6715 33.0355 25.8668 32.324 25.8668H32.2491C31.4999 25.8668 30.8882 25.6854 30.3888 25.3087C29.877 24.9321 29.6274 24.2624 29.6149 23.3278V20.4123C29.6149 20.3564 29.6025 20.3146 29.5775 20.2867C29.5398 20.2448 29.4649 20.2169 29.3526 20.2169V20.0914H31.3377ZM63.4604 20.0216C64.1098 20.0216 64.6591 20.1053 65.1086 20.2309C65.3332 20.2867 65.5079 20.3425 65.6454 20.3844C65.7951 20.4401 65.895 20.4681 65.9449 20.4681C66.0572 20.4681 66.1448 20.4123 66.2072 20.3006L66.307 20.3425L65.6579 21.8491L65.5453 21.7794V21.6677C65.5453 21.584 65.4829 21.5143 65.3706 21.4446C65.2583 21.3748 65.1086 21.319 64.9087 21.2632C64.4966 21.1516 64.0599 21.0819 63.5855 21.0819C63.1859 21.0958 62.8986 21.1377 62.7364 21.2353C62.5617 21.3329 62.4741 21.4585 62.4869 21.598C62.4869 21.7096 62.5492 21.7933 62.6615 21.863C62.7738 21.9328 62.9111 21.9747 63.0986 22.0026C63.4853 22.0583 63.9348 22.1142 64.4467 22.156C64.9586 22.2118 65.4081 22.3513 65.7951 22.5885C66.1822 22.8395 66.3819 23.272 66.3944 23.8858C66.4068 24.3741 66.2197 24.8204 65.8326 25.2111C65.6329 25.4064 65.3706 25.5598 65.021 25.6715C64.6716 25.797 64.2346 25.8527 63.7227 25.8527C62.9485 25.8388 62.3618 25.7551 61.9747 25.5877C61.7751 25.518 61.6253 25.4622 61.5006 25.4203C61.3755 25.3784 61.2881 25.3506 61.2382 25.3506C61.2008 25.3506 61.1758 25.3645 61.1509 25.3784C61.1134 25.4203 61.0885 25.4482 61.0635 25.4901L60.9385 25.4622L61.6378 23.5231L61.7376 23.5789C61.7252 23.6347 61.7127 23.7045 61.7127 23.8021C61.7127 23.83 61.7376 23.8718 61.7626 23.9137C61.7875 23.9556 61.825 23.9974 61.8874 24.0393C61.9999 24.123 62.1497 24.2066 62.3369 24.2904C62.7364 24.4856 63.1859 24.5833 63.6978 24.5833C64.6217 24.5833 65.0709 24.3322 65.0709 23.844C65.0709 23.7323 65.021 23.6487 64.9087 23.5928C64.7964 23.551 64.6591 23.5091 64.4717 23.4813C64.0849 23.4394 63.6354 23.3836 63.1235 23.3278C62.8861 23.286 62.6491 23.2302 62.4242 23.1743C62.1996 23.1046 61.9874 23.0209 61.7875 22.9093C61.388 22.7 61.1758 22.3373 61.1758 21.8352C61.1758 21.2772 61.388 20.8307 61.8125 20.4959C62.212 20.203 62.7738 20.0356 63.4604 20.0216ZM39.0781 20.0216C39.7272 20.0216 40.2766 20.1053 40.7135 20.2309C40.9384 20.2867 41.1131 20.3425 41.2504 20.3844C41.3876 20.4401 41.5002 20.4681 41.5501 20.4681C41.6625 20.4681 41.7498 20.4123 41.8121 20.3006L41.9123 20.3425L41.2629 21.8491L41.1506 21.7794V21.6677C41.1506 21.584 41.0882 21.5143 40.9759 21.4446C40.8633 21.3748 40.7135 21.319 40.5139 21.2632C40.1019 21.1516 39.6649 21.0819 39.1904 21.0819C38.7909 21.0958 38.5039 21.1377 38.3417 21.2353C38.1667 21.3329 38.0794 21.4585 38.0918 21.598C38.0918 21.7096 38.1542 21.7933 38.2665 21.863C38.3791 21.9328 38.5163 21.9747 38.7035 22.0026C39.0906 22.0583 39.5401 22.1142 40.052 22.156C40.5638 22.2118 41.0133 22.3513 41.4004 22.5885C41.7872 22.8395 41.9871 23.272 41.9996 23.8858C42.0121 24.3741 41.8246 24.8204 41.4378 25.2111C41.2379 25.4064 40.9759 25.5598 40.6262 25.6715C40.2766 25.797 39.8523 25.8527 39.328 25.8527C38.5538 25.8388 37.967 25.7551 37.58 25.5877C37.3803 25.518 37.2303 25.4622 37.1055 25.4203C36.9807 25.3784 36.8934 25.3506 36.8435 25.3506C36.806 25.3506 36.7811 25.3645 36.7561 25.3784C36.7184 25.4203 36.6935 25.4482 36.6685 25.4901L36.5437 25.4622L37.2427 23.5231L37.3429 23.5789C37.3303 23.6347 37.3179 23.7045 37.3179 23.8021C37.3179 23.83 37.3429 23.8718 37.3678 23.9137C37.3928 23.9556 37.4302 23.9974 37.4926 24.0393C37.6049 24.123 37.7546 24.2066 37.9421 24.2904C38.3417 24.4856 38.7909 24.5833 39.3027 24.5833C40.2267 24.5833 40.6761 24.3322 40.6761 23.844C40.6761 23.7323 40.6262 23.6487 40.5139 23.5928C40.4016 23.551 40.264 23.5091 40.0769 23.4813C39.6898 23.4394 39.2404 23.3836 38.7285 23.3278C38.4914 23.286 38.2541 23.2302 38.0295 23.1743C37.8049 23.1046 37.5924 23.0209 37.3928 22.9093C36.9932 22.7 36.7811 22.3373 36.7811 21.8352C36.7811 21.2772 36.9932 20.8307 37.4177 20.4959C37.8298 20.203 38.3916 20.0356 39.0781 20.0216ZM69.965 20.0216C70.6141 20.0216 71.1634 20.1053 71.6004 20.2309C71.8253 20.2867 72 20.3425 72.1372 20.3844C72.2747 20.4401 72.3746 20.4681 72.4369 20.4681C72.5492 20.4681 72.6366 20.4123 72.699 20.3006L72.7989 20.3425L72.1497 21.8491L72.0374 21.7794V21.6677C72.0374 21.584 71.975 21.5143 71.8627 21.4446C71.7504 21.3748 71.6004 21.319 71.4007 21.2632C70.9887 21.1516 70.5517 21.0819 70.0773 21.0819C69.6777 21.0958 69.3907 21.1377 69.2285 21.2353C69.0536 21.3329 68.9662 21.4585 68.9787 21.598C68.9787 21.7096 69.0411 21.7933 69.1534 21.863C69.2659 21.9328 69.4032 21.9747 69.5903 22.0026C69.9775 22.0583 70.4269 22.1142 70.9388 22.156C71.4506 22.2118 71.9001 22.3513 72.2873 22.5885C72.6741 22.8395 72.874 23.272 72.8864 23.8858C72.8989 24.3741 72.7115 24.8204 72.3246 25.2111C72.1247 25.4064 71.8627 25.5598 71.513 25.6715C71.1634 25.797 70.7392 25.8527 70.2148 25.8527C69.4406 25.8388 68.8539 25.7551 68.4668 25.5877C68.2796 25.518 68.1172 25.4622 67.9923 25.4203C67.8676 25.3784 67.7803 25.3506 67.7304 25.3506C67.6929 25.3506 67.668 25.3645 67.643 25.3784C67.6053 25.4203 67.5803 25.4482 67.5554 25.4901L67.4306 25.4622L68.1296 23.5231L68.2297 23.5789C68.2172 23.6347 68.2048 23.7045 68.2048 23.8021C68.2048 23.83 68.2297 23.8718 68.2547 23.9137C68.2796 23.9556 68.3171 23.9974 68.3794 24.0393C68.4917 24.123 68.6415 24.2066 68.8289 24.2904C69.2285 24.4856 69.6777 24.5833 70.1896 24.5833C71.1135 24.5833 71.5629 24.3322 71.5629 23.844C71.5629 23.7323 71.513 23.6487 71.4007 23.5928C71.2884 23.551 71.1509 23.5091 70.9638 23.4813C70.5766 23.4394 70.1271 23.3836 69.6153 23.3278C69.3782 23.286 69.1408 23.2302 68.9162 23.1743C68.6916 23.1046 68.4793 23.0209 68.2796 22.9093C67.88 22.7 67.668 22.3373 67.668 21.8352C67.668 21.2772 67.88 20.8307 68.3046 20.4959C68.7167 20.203 69.2659 20.0356 69.965 20.0216ZM25.857 20.0914C26.3813 20.0914 26.8058 20.203 27.1304 20.4401C27.4549 20.6773 27.6173 21.0679 27.6298 21.598C27.6298 21.9189 27.5425 22.1839 27.3675 22.3793C27.1928 22.5745 26.9681 22.7 26.6934 22.7838V22.8117C26.8682 22.8536 27.018 22.9093 27.1679 22.9931C27.3051 23.0767 27.4174 23.1604 27.5175 23.272C27.7172 23.4952 27.8295 23.8021 27.8295 24.2067C27.8295 24.6531 27.6797 25.0297 27.38 25.3366C27.068 25.6435 26.581 25.8109 25.9069 25.8109H22.2489V25.6854C22.3738 25.6715 22.4487 25.6435 22.4736 25.6156C22.4986 25.5737 22.5111 25.5459 22.5111 25.504V20.4262C22.5111 20.3704 22.4986 20.3286 22.4736 20.3006C22.4487 20.2588 22.3738 20.2309 22.2489 20.2309V20.1053H25.857V20.0914ZM45.4826 20.0914V20.2169C45.3703 20.2169 45.3079 20.2448 45.2705 20.2867C45.2456 20.3146 45.2205 20.3564 45.2205 20.4123V25.4901C45.2205 25.532 45.233 25.5737 45.2705 25.6156C45.3079 25.6435 45.3828 25.6715 45.4826 25.6854V25.8109H43.4978V25.6854C43.6225 25.6715 43.6974 25.6435 43.7224 25.6156C43.7474 25.5737 43.7598 25.5459 43.7598 25.4901V20.4123C43.7598 20.3564 43.7474 20.3146 43.7224 20.2867C43.685 20.2448 43.6101 20.2169 43.4978 20.2169V20.0914H45.4826ZM49.4902 20.0914V20.2169C49.3903 20.2169 49.328 20.2309 49.278 20.2588C49.2407 20.2867 49.2157 20.3146 49.2157 20.3564C49.2157 20.3844 49.3031 20.5099 49.4902 20.7331C49.6652 20.9563 49.8773 21.2353 50.1268 21.5562C50.6639 22.2397 51.1256 22.8256 51.5127 23.3138V20.4123C51.5127 20.2867 51.4379 20.2169 51.3131 20.2169V20.0914H53.0359V20.2169C52.9361 20.2169 52.8611 20.2448 52.8112 20.2867C52.7738 20.3146 52.7614 20.3564 52.7614 20.4123V25.4901C52.7614 25.532 52.7738 25.5737 52.8112 25.6017C52.8487 25.6296 52.9235 25.6575 53.0359 25.6715V25.797H51.2382V25.6715C51.388 25.6715 51.4628 25.6296 51.4503 25.5459C51.4753 25.532 51.3256 25.3227 51.0258 24.9321C50.7014 24.5554 49.9272 23.5928 48.7288 22.0444V25.4901C48.7288 25.532 48.7412 25.5737 48.7787 25.6017C48.8161 25.6296 48.891 25.6575 48.9908 25.6715V25.797H47.2056V25.6715C47.3304 25.6575 47.4053 25.6296 47.4302 25.6017C47.4552 25.5598 47.4677 25.532 47.4677 25.4901V20.4123C47.4677 20.3564 47.4552 20.3146 47.4302 20.2867C47.3928 20.2448 47.3179 20.2169 47.2056 20.2169V20.0914H49.4902ZM6.93034 14.8601L16.7307 22.8117V25.783H6.93034V14.8601ZM25.5574 23.3418H23.9593V24.6531H25.5574C25.8819 24.6531 26.1191 24.5973 26.2689 24.4997C26.4062 24.402 26.4812 24.2346 26.4812 23.9974C26.4812 23.7603 26.4062 23.5789 26.2689 23.4813C26.1191 23.3976 25.8819 23.3418 25.5574 23.3418ZM3.99646 0.658936V23.5928L0.0762939 19.6729V0.658936H3.99646ZM25.2327 21.2353H23.9593V22.2397H25.2327C25.6198 22.2397 25.8944 22.2118 26.0442 22.142C26.1816 22.0862 26.244 21.9467 26.244 21.7375C26.244 21.5282 26.1816 21.3887 26.0442 21.305C25.8944 21.2632 25.6322 21.2353 25.2327 21.2353ZM16.6433 6.12736L16.7307 6.225V19.2405L8.89041 12.949L16.6433 6.12736ZM78.6792 3.75586C79.4407 3.75586 80.1525 3.86747 80.8266 4.1046C81.5006 4.34176 82.0876 4.67657 82.587 5.12296C83.0864 5.56935 83.4982 6.12736 83.7855 6.79698C84.0849 7.46656 84.2349 8.23383 84.2349 9.09877C84.2349 9.96364 84.0849 10.7449 83.7855 11.4005C83.4857 12.0701 83.0864 12.6142 82.587 13.0745C82.0876 13.5209 81.4881 13.8557 80.8266 14.0649C80.1525 14.2742 79.4407 14.3858 78.6792 14.3858C77.9175 14.3858 77.206 14.2742 76.5319 14.0649C75.8576 13.8557 75.2709 13.5209 74.7715 13.0745C74.272 12.6281 73.8603 12.0701 73.573 11.4005C73.2733 10.7309 73.1235 9.96364 73.1235 9.09877C73.1235 8.23383 73.2733 7.45263 73.573 6.79698C73.8727 6.12736 74.272 5.58332 74.7715 5.12296C75.2709 4.6626 75.8701 4.32779 76.5319 4.1046C77.206 3.8814 77.9175 3.75586 78.6792 3.75586ZM25.8694 3.8814V4.11856H25.832C25.6322 4.14647 25.5074 4.18831 25.4575 4.24412C25.4075 4.29989 25.3826 4.3836 25.3826 4.46731V8.05247H25.5074L25.6322 7.92693C25.9569 7.57818 26.2939 7.22944 26.6685 6.86672C27.0804 6.46217 27.4549 6.07156 27.8045 5.72281C28.1542 5.37406 28.4412 5.06716 28.666 4.83002C28.8906 4.59286 29.0155 4.4394 29.0155 4.3836C29.0155 4.25805 28.9904 4.18831 28.9281 4.17435C28.8657 4.16041 28.7908 4.13251 28.691 4.11856V3.8814H33.2229V4.11856H33.1856C33.0854 4.13251 32.9981 4.14647 32.9357 4.17435C32.8608 4.20225 32.786 4.24412 32.7236 4.29989C32.6612 4.3557 32.5861 4.4115 32.5111 4.49521C32.4363 4.56496 32.3365 4.6626 32.2366 4.76025L29.153 7.71766L32.786 13.7859L32.8109 13.8139C32.8983 13.9534 32.9856 14.0371 33.0605 14.0649C33.1481 14.0929 33.2479 14.1068 33.3602 14.1068V14.3439H29.2777V14.1068H29.3152C29.4025 14.1068 29.4774 14.0929 29.5273 14.0789C29.5899 14.0649 29.6149 13.9813 29.6149 13.8557C29.6149 13.8139 29.565 13.7023 29.4524 13.493C29.3401 13.2977 29.2029 13.0466 29.0407 12.7536C28.8781 12.4607 28.691 12.1538 28.4911 11.819C28.2914 11.4842 28.1043 11.1633 27.9168 10.8704C27.7422 10.5635 27.5799 10.2984 27.4299 10.0752C27.2927 9.85207 27.1928 9.69856 27.1429 9.61484L25.395 11.3587V13.7441V13.772C25.395 13.8557 25.4325 13.9115 25.4699 13.9673C25.5199 14.0231 25.6572 14.0649 25.8944 14.0929V14.33H22.2239V14.0929H22.2614C22.4611 14.0649 22.586 14.0231 22.6359 13.9673C22.6859 13.9115 22.7108 13.8278 22.7108 13.7441V4.48125V4.45335C22.7108 4.36966 22.6734 4.31386 22.6359 4.25805C22.586 4.20225 22.4487 4.16041 22.2115 4.13251V3.89534L25.8694 3.8814ZM42.2866 3.8814V4.11856H42.2492C42.1743 4.13251 42.1119 4.14647 42.0619 4.17435C41.9996 4.20225 41.9747 4.27202 41.9747 4.36966C41.9747 4.39757 42.037 4.56496 42.1493 4.8858C42.2616 5.20667 42.4116 5.62516 42.5863 6.12736C42.7611 6.64352 42.9734 7.21547 43.198 7.85718C43.4351 8.49886 43.6724 9.15456 43.922 9.82414C44.1719 10.4937 44.4089 11.1494 44.6463 11.7772C44.8833 12.4188 45.0833 12.9768 45.2829 13.493C45.3828 13.7301 45.4576 13.8976 45.5203 13.9673C45.5827 14.051 45.67 14.0929 45.7823 14.0929V14.33H42.2741V14.0929H42.2991C42.5115 14.0789 42.6113 13.9952 42.6113 13.8557C42.6113 13.8418 42.5863 13.7581 42.5239 13.5906C42.4615 13.4233 42.3989 13.2419 42.324 13.0326C42.2492 12.8234 42.1868 12.6281 42.1244 12.4468C42.0619 12.2654 42.0246 12.1398 42.0121 12.0701H37.7923L37.7671 12.1398C37.6548 12.4607 37.5675 12.7397 37.5051 12.949C37.4302 13.1721 37.3803 13.3535 37.3303 13.4791C37.293 13.6186 37.2552 13.7023 37.2427 13.772C37.2303 13.8278 37.2178 13.8696 37.2178 13.8976C37.2178 13.9673 37.2428 14.0091 37.2805 14.051C37.3179 14.0789 37.4053 14.1068 37.5425 14.1068V14.3439H34.3839V14.1068L34.4214 14.0929C34.5337 14.0649 34.6211 14.0231 34.671 13.9673C34.7336 13.9115 34.796 13.7999 34.8459 13.6325C34.8709 13.5628 34.9332 13.3814 35.0206 13.1024C35.1204 12.8095 35.2454 12.4468 35.3952 12.0003C35.545 11.554 35.7197 11.0657 35.9071 10.5217C36.0942 9.97756 36.2817 9.41955 36.4814 8.86158C36.6685 8.30358 36.8559 7.74557 37.0432 7.21547C37.2303 6.68536 37.3928 6.1971 37.53 5.77861C37.6673 5.36013 37.7923 5.01135 37.8797 4.74631C37.9671 4.48125 38.0169 4.34176 38.0169 4.32779C38.0169 4.25805 37.9795 4.21621 37.9046 4.18831C37.8298 4.16041 37.7422 4.14647 37.6673 4.13251V3.89534H42.2866V3.8814ZM54.4716 3.8814H54.5465C55.8201 3.89534 56.7562 4.16041 57.3432 4.69051C57.9424 5.22061 58.2294 6.05762 58.2294 7.18757C58.2294 8.10828 57.9923 8.81974 57.5054 9.33583C57.0185 9.85207 56.4193 10.2287 55.6825 10.4519L57.7924 13.7581L57.8173 13.7859C57.9549 14.0091 58.1171 14.1068 58.3168 14.1068V14.3439H54.6089V14.1068H54.6338C54.8712 14.0929 54.9959 13.9673 54.9959 13.7441C54.9959 13.7162 54.946 13.6186 54.8587 13.4651C54.7586 13.3116 54.6463 13.1163 54.4966 12.8931C54.3593 12.67 54.1969 12.4328 54.0222 12.1678C53.8474 11.9027 53.685 11.6655 53.5228 11.4284C53.3606 11.1912 53.223 10.982 53.0983 10.7867C52.9734 10.6054 52.8986 10.4798 52.8611 10.4101H51.1131V13.7441V13.772C51.1131 13.8557 51.1506 13.9115 51.1883 13.9673C51.2382 14.0231 51.3755 14.0649 51.6125 14.0929V14.33H47.9421V14.0929H47.9795C48.1794 14.0649 48.3042 14.0231 48.3541 13.9673C48.404 13.9115 48.4291 13.8278 48.4291 13.7441V4.48125V4.45335C48.4291 4.36966 48.3916 4.31386 48.3541 4.25805C48.3042 4.20225 48.167 4.16041 47.9296 4.13251V3.89534L54.4716 3.8814ZM67.5429 3.8814H67.643C68.0922 3.8814 68.5042 3.93721 68.8789 4.03485C69.2784 4.14647 69.6278 4.29989 69.9275 4.52312C70.2273 4.74631 70.4519 5.02532 70.6266 5.37406C70.7891 5.72281 70.8764 6.14133 70.8764 6.64352C70.8764 7.24337 70.714 7.71766 70.3895 8.08038C70.0648 8.44309 69.6527 8.68023 69.1534 8.80577V8.84764L69.2285 8.87554C69.8028 9.05691 70.2772 9.33592 70.639 9.71257C71.0262 10.1031 71.2133 10.6612 71.2133 11.4005C71.2133 11.805 71.1509 12.1817 71.0137 12.5305C70.8764 12.8931 70.664 13.2001 70.3771 13.4651C70.0898 13.7301 69.7154 13.9394 69.2534 14.1068C68.7915 14.2742 68.2547 14.3439 67.6177 14.3439H60.7389V14.1068H60.7763C60.9762 14.0789 61.101 14.0371 61.1509 13.9813C61.2008 13.9254 61.2257 13.8418 61.2257 13.7581V4.48125V4.45335C61.2257 4.36966 61.1884 4.31386 61.1509 4.25805C61.101 4.20225 60.9638 4.16041 60.7264 4.13251V3.89534L67.5429 3.8814ZM90.8643 3.8814V4.11856H90.827C90.6397 4.13251 90.527 4.16041 90.4648 4.20225C90.4027 4.24412 90.3645 4.29989 90.3645 4.36966C90.3645 4.39757 90.44 4.50916 90.6015 4.73235C90.7516 4.94161 90.9637 5.20667 91.2132 5.52751C91.4636 5.84836 91.7503 6.1971 92.0628 6.58772C92.3753 6.97833 92.6993 7.36892 93.0118 7.75953C93.3359 8.15012 93.6359 8.52677 93.9351 8.87554C94.2352 9.22426 94.4846 9.53121 94.6968 9.78228V4.48125V4.45335C94.6844 4.24412 94.5601 4.13251 94.3222 4.11856V3.8814H97.5811V4.11856H97.5438C97.3432 4.14647 97.2189 4.18831 97.1692 4.24412C97.1186 4.29989 97.0938 4.3836 97.0938 4.46731V13.7301V13.7581C97.0938 13.8418 97.131 13.8976 97.1692 13.9534C97.2189 14.0091 97.3565 14.051 97.5936 14.0789V14.3161H94.2103V14.0789H94.2476C94.3967 14.0789 94.497 14.051 94.5468 14.0231C94.5974 13.9813 94.6222 13.9254 94.6222 13.8696C94.6222 13.8278 94.6098 13.7859 94.5725 13.7162C94.5343 13.6604 94.4598 13.5488 94.3346 13.4093C94.2103 13.2698 94.0354 13.0606 93.8108 12.7816C93.5862 12.5025 93.2737 12.1398 92.8866 11.6935C92.512 11.2331 92.0379 10.6612 91.476 9.97756C90.914 9.29406 90.2402 8.45703 89.4661 7.48053V13.7301V13.7581C89.4661 13.8418 89.5034 13.8976 89.5407 13.9534C89.5904 14.0091 89.728 14.051 89.965 14.0789V14.3161H86.5818V14.0789H86.6193C86.8192 14.051 86.944 14.0091 86.9939 13.9534C87.0438 13.8976 87.0688 13.8139 87.0688 13.7301V4.48125V4.45335C87.0688 4.36966 87.0313 4.31386 86.9939 4.25805C86.944 4.20225 86.8067 4.16041 86.5694 4.13251V3.89534L90.8643 3.8814ZM66.9436 9.85207H63.9099V12.2376H66.9436C67.5803 12.2376 68.0422 12.1538 68.3046 11.9725C68.5666 11.7911 68.6916 11.4842 68.6916 11.0517C68.6916 10.6193 68.5666 10.3124 68.3046 10.1311C68.0422 9.94972 67.5928 9.85207 66.9436 9.85207ZM78.6792 6.18317C78.2922 6.18317 77.9175 6.25291 77.5681 6.37846C77.2185 6.51798 76.9063 6.69933 76.6442 6.95043C76.3819 7.20153 76.1573 7.49447 76.0076 7.87112C75.8576 8.24777 75.7702 8.65232 75.7702 9.1127C75.7702 9.57307 75.8451 9.99149 76.0076 10.3542C76.1698 10.7169 76.3819 11.0239 76.6442 11.275C76.9063 11.526 77.2185 11.7074 77.5681 11.8469C77.9175 11.9864 78.2922 12.0422 78.6792 12.0422C79.0663 12.0422 79.4407 11.9725 79.7903 11.8469C80.14 11.7074 80.4519 11.526 80.7143 11.275C80.9762 11.0239 81.2011 10.7309 81.3509 10.3542C81.5006 9.97756 81.5883 9.57307 81.5883 9.1127C81.5883 8.65232 81.5131 8.23383 81.3509 7.87112C81.1887 7.50843 80.9762 7.20153 80.7143 6.95043C80.4519 6.69933 80.14 6.51798 79.7903 6.37846C79.4407 6.25291 79.0788 6.18317 78.6792 6.18317ZM11.2875 0.658936L14.7707 4.6347L6.93034 11.5819V0.658936H11.2875ZM39.7896 5.75071L38.2041 10.4798H41.5252L39.7896 5.75071ZM54.1095 6.11342H51.1131V8.30358H54.1095C54.6338 8.30358 54.9959 8.19199 55.1832 7.96877C55.3706 7.74557 55.4829 7.49447 55.4829 7.20153C55.4829 6.90856 55.3831 6.65746 55.1832 6.43427C54.9959 6.225 54.6338 6.11342 54.1095 6.11342ZM66.3445 5.98787H63.9224V7.81534H66.3445C66.719 7.81534 67.0435 7.80137 67.2933 7.78744C67.5429 7.77347 67.7428 7.71766 67.88 7.66189C68.0173 7.59212 68.1296 7.50843 68.1798 7.38288C68.2422 7.25734 68.2671 7.10388 68.2671 6.90856C68.2671 6.71326 68.2422 6.54588 68.1798 6.43427C68.1172 6.30871 68.0173 6.225 67.88 6.15526C67.7428 6.08552 67.5429 6.04368 67.2933 6.02972C67.0435 6.00181 66.719 5.98787 66.3445 5.98787Z" fill="#0657D0"/>
</g>
</g>
<defs>
<clipPath id="clip0_46_109">
<rect width="97.6539" height="26.7761" fill="white"/>
</clipPath>
</defs>
</svg>
