<svg width="106" height="20" viewBox="0 0 106 20" fill="none" xmlns="http://www.w3.org/2000/svg">
<path d="M34.7827 4.82201C35.4077 5.41165 35.7367 6.24696 35.7367 7.32796C35.7367 8.55636 35.3748 9.47357 34.6511 10.096C33.9274 10.7183 32.924 11.0132 31.6246 11.0132H28.8942V15.2552H27.2164V3.95394H32.0687C33.253 3.95394 34.1577 4.24876 34.7827 4.82201ZM31.6246 9.65373C32.4141 9.65373 33.0063 9.44081 33.4339 8.99858C33.8451 8.57274 34.059 8.01586 34.059 7.32796C34.059 6.03404 33.2365 5.37889 31.6246 5.37889H28.8942V9.65373H31.6246Z" fill="black"/>
<path d="M42.8122 7.36071L42.401 8.96583C42.2859 8.8348 42.1049 8.70377 41.8746 8.57274C41.6444 8.44171 41.3812 8.37619 41.1016 8.37619C40.641 8.37619 40.2463 8.55636 39.8844 8.88393C39.5225 9.22789 39.2265 9.71925 39.0291 10.3744C38.8317 11.0295 38.733 11.8157 38.733 12.7329V15.2552H37.1375V7.0659H38.4205L38.585 9.65373H38.8975C38.9962 8.8348 39.2594 8.17965 39.687 7.65553C40.0982 7.13141 40.6575 6.86935 41.3483 6.86935C41.9404 6.86935 42.4174 7.03314 42.8122 7.36071Z" fill="black"/>
<path d="M43.9807 5.31338C43.7998 5.11683 43.7175 4.87115 43.7175 4.54358C43.7175 4.24876 43.7998 4.00308 43.9807 3.80653C44.1452 3.60999 44.4083 3.51172 44.7702 3.51172C45.0992 3.51172 45.3623 3.60999 45.5433 3.80653C45.7242 4.00308 45.8229 4.24876 45.8229 4.54358C45.8229 4.87115 45.7242 5.11683 45.5597 5.31338C45.3788 5.50992 45.1156 5.60819 44.7702 5.60819C44.4083 5.60819 44.1452 5.50992 43.9807 5.31338ZM45.5597 15.2552H43.9642V7.0659H45.5597V15.2552Z" fill="black"/>
<path d="M59.9567 7.55726C60.4501 8.01586 60.6969 8.65463 60.6969 9.47357V15.2552H59.1014V10.1123C59.1014 9.57184 58.9533 9.14599 58.6737 8.8348C58.3941 8.5236 57.9829 8.35981 57.4565 8.35981C56.7328 8.35981 56.1571 8.70377 55.7295 9.37529C55.3018 10.0468 55.088 11.0623 55.088 12.4054V15.2552H53.4925V10.1123C53.4925 9.57184 53.3444 9.14599 53.0648 8.8348C52.7688 8.5236 52.3575 8.35981 51.8147 8.35981C50.2521 8.35981 49.4791 9.67011 49.4791 12.2743V15.2552H47.8836V7.0659H49.1666L49.3804 9.19513H49.7093C49.9561 8.44171 50.285 7.86845 50.7127 7.47536C51.1404 7.08228 51.6832 6.86935 52.374 6.86935C53.1306 6.86935 53.7228 7.08228 54.1669 7.47536C54.5945 7.86845 54.8412 8.44171 54.8906 9.19513H55.236C55.713 7.65553 56.6341 6.86935 58.0158 6.86935C58.8053 6.86935 59.4632 7.09865 59.9567 7.55726Z" fill="black"/>
<path d="M71.0933 15.0423C70.9617 15.1406 70.7972 15.2389 70.5669 15.3208C70.3367 15.419 70.1064 15.4518 69.909 15.4518C69.4156 15.4518 69.0372 15.3208 68.7741 15.0423C68.5109 14.7803 68.3793 14.3544 68.3793 13.7975C68.3793 13.5682 68.3957 13.3226 68.4451 13.0933H68.1161C67.9187 13.9122 67.5898 14.5018 67.1292 14.8785C66.6522 15.2716 66.0107 15.4518 65.2048 15.4518C64.3001 15.4518 63.5928 15.2389 63.0829 14.7803C62.5566 14.3217 62.3098 13.732 62.3098 13.0114C62.3098 12.1269 62.6717 11.4554 63.3954 10.9968C64.1192 10.5382 65.0896 10.3089 66.3068 10.3089C66.866 10.3089 67.4746 10.358 68.0997 10.4563V9.78476C68.0997 8.68739 67.4253 8.13051 66.1094 8.13051C65.5173 8.13051 65.0403 8.27792 64.7113 8.53998C64.3823 8.80204 64.1356 9.21151 64.004 9.73563L62.7046 9.34254C62.8033 8.55636 63.1816 7.95035 63.8395 7.5245C64.481 7.09865 65.3035 6.86935 66.3233 6.86935C67.3431 6.86935 68.1655 7.11503 68.7741 7.60639C69.3827 8.09776 69.6952 8.80204 69.6952 9.68649V13.1424C69.6952 13.4863 69.7281 13.7484 69.8268 13.945C69.9255 14.1415 70.057 14.2234 70.2544 14.2234C70.386 14.2234 70.534 14.1743 70.715 14.0596L71.0933 15.0423ZM68.0668 11.57C67.5075 11.5209 67.0634 11.4881 66.718 11.4881C65.8298 11.4881 65.1554 11.6192 64.6784 11.8649C64.2014 12.1105 63.9711 12.4872 63.9711 12.9786C63.9711 13.3389 64.0863 13.6174 64.333 13.8139C64.5797 14.0268 64.9251 14.1251 65.3692 14.1251C66.9647 14.1251 67.8694 13.2734 68.0668 11.57Z" fill="black"/>
<path d="M77.9421 13.8958C77.6789 14.338 77.3171 14.7148 76.873 15.0096C76.4124 15.3044 75.8532 15.4518 75.1788 15.4518C74.3564 15.4518 73.7478 15.2716 73.3366 14.8949C72.9089 14.5182 72.7115 13.9941 72.7115 13.3062V8.32706H71.6753V7.0659H72.8596L73.3366 4.67461H74.307V7.0659H77.4487V8.32706H74.307V12.995C74.307 13.7484 74.7018 14.1087 75.4913 14.1087C75.8532 14.1087 76.1657 14.0105 76.4453 13.7812C76.7085 13.5519 76.9717 13.2898 77.2184 12.9622L77.9421 13.8958Z" fill="black"/>
<path d="M85.916 7.55726C86.3765 8.01586 86.6233 8.65463 86.6233 9.47357V15.2552H85.0278V10.1779C85.0278 9.6046 84.8797 9.16237 84.6001 8.8348C84.3205 8.5236 83.9257 8.35981 83.4158 8.35981C82.9388 8.35981 82.5112 8.5236 82.1164 8.8348C81.7216 9.14599 81.4091 9.58822 81.1788 10.1779C80.9486 10.7675 80.8499 11.4718 80.8499 12.2743V15.2552H79.2544V3.70826H80.8499V6.11593C80.8499 7.21331 80.8005 8.24516 80.7347 9.19513H81.0966C81.6394 7.65553 82.6263 6.86935 84.0738 6.86935C84.8304 6.86935 85.439 7.09865 85.916 7.55726Z" fill="black"/>
<path d="M90.1105 14.9768C89.4854 14.6656 88.992 14.1906 88.6301 13.5682C88.2682 12.9459 88.1037 12.1924 88.1037 11.308C88.1037 10.3908 88.2847 9.58822 88.6465 8.91669C89.0084 8.26154 89.5019 7.7538 90.1269 7.39347C90.7519 7.04952 91.4592 6.86935 92.2652 6.86935C93.0383 6.86935 93.7455 7.03314 94.3706 7.36071C94.9956 7.68829 95.5055 8.17965 95.8674 8.80204C96.2293 9.42443 96.4266 10.1779 96.4266 11.0295C96.4266 12.4545 96.0483 13.5519 95.3081 14.3053C94.5515 15.0751 93.5482 15.4518 92.2652 15.4518C91.4428 15.4518 90.7355 15.3044 90.1105 14.9768ZM94.091 13.3553C94.5515 12.8476 94.7818 12.1105 94.7818 11.1442C94.7818 10.1779 94.5515 9.44081 94.091 8.91669C93.6304 8.39257 93.0218 8.13051 92.2652 8.13051C91.5086 8.13051 90.9 8.39257 90.4394 8.91669C89.9789 9.44081 89.765 10.1779 89.765 11.1442C89.765 12.1105 89.9789 12.8476 90.4394 13.3553C90.8835 13.8794 91.4921 14.1251 92.2652 14.1251C93.0218 14.1251 93.6304 13.8794 94.091 13.3553Z" fill="black"/>
<path d="M104.822 7.55726C105.283 8.01586 105.529 8.65463 105.529 9.47357V15.2552H103.934V10.1779C103.934 9.6046 103.786 9.16237 103.49 8.8348C103.194 8.5236 102.782 8.35981 102.24 8.35981C101.483 8.35981 100.891 8.67101 100.43 9.26064C99.9697 9.86666 99.7559 10.8658 99.7559 12.2743V15.2552H98.1604V7.0659H99.4434L99.6737 9.19513H99.9862C100.233 8.42533 100.595 7.85207 101.088 7.45899C101.565 7.0659 102.19 6.86935 102.98 6.86935C103.736 6.86935 104.345 7.09865 104.822 7.55726Z" fill="black"/>
<path d="M8.85968 11.6493C7.3095 13.0972 8.85634 14.6617 9.65753 14.6617H17.998C21.0884 13.6082 17.2956 9.833 15.4519 9.21843V11.2377H10.0683C9.62824 11.2377 9.18125 11.349 8.85968 11.6493Z" fill="#46AC70"/>
<path d="M11.9128 10.3101C13.3606 11.8602 14.9251 10.3134 14.9251 9.51221V1.17176C13.8716 -1.91861 10.0964 1.87412 9.48186 3.7178H11.5011V9.1015C11.5011 9.5415 11.6124 9.9885 11.9128 10.3101Z" fill="#268EC5"/>
<path d="M10.3101 7.4021C11.8602 5.95425 10.3134 4.38973 9.51221 4.38973H1.17176C-1.91861 5.44326 1.87412 9.21843 3.7178 9.833V7.81372H9.1015C9.54151 7.81372 9.9885 7.70244 10.3101 7.4021Z" fill="#E15547"/>
<path d="M7.257 8.74136C5.80915 7.19118 4.24462 8.73802 4.24462 9.53922V17.8797C5.29815 20.97 9.07332 17.1773 9.68789 15.3336H7.66861V9.94993C7.66861 9.50993 7.55733 9.06293 7.257 8.74136Z" fill="#FCB445"/>
</svg>
