<svg width="94" height="31" viewBox="0 0 94 31" fill="none" xmlns="http://www.w3.org/2000/svg">
<path d="M46.0647 11.7342C46.3394 11.9685 46.625 12.2515 46.7876 12.5798C46.9582 12.5092 47.0445 12.4138 47.1609 12.2712C47.8904 11.4387 48.8549 11.0532 49.9381 10.9658C51.189 10.8958 52.5093 11.0765 53.4825 11.936C53.5558 12.0073 53.6283 12.0795 53.7 12.1526C53.7322 12.1835 53.7643 12.2144 53.7975 12.2462C54.9205 13.4021 54.8975 15.1714 54.8898 16.673C54.8889 16.8768 54.8889 17.0806 54.8887 17.2844C54.8883 17.6689 54.8871 18.0534 54.8857 18.4379C54.8841 18.8762 54.8833 19.3145 54.8826 19.7528C54.8812 20.6532 54.8786 21.5535 54.8755 22.4538C53.991 22.4538 53.1065 22.4538 52.1952 22.4538C52.1943 22.2579 52.1934 22.062 52.1924 21.8601C52.1893 21.2108 52.1856 20.5614 52.1817 19.9121C52.1794 19.5187 52.1772 19.1252 52.1754 18.7318C52.1738 18.3885 52.172 18.0452 52.1697 17.702C52.1685 17.5205 52.1675 17.3391 52.1669 17.1576C52.2129 15.4575 52.2129 15.4575 51.5092 13.9654C51.0776 13.5553 50.5088 13.5097 49.9433 13.5192C49.4564 13.5376 48.9825 13.6864 48.632 14.041C47.8531 15.0174 47.9486 16.4383 47.9442 17.6153C47.9434 17.786 47.9422 17.9567 47.941 18.1274C47.9388 18.4491 47.937 18.7709 47.9355 19.0926C47.9333 19.5285 47.9305 19.9643 47.9277 20.4001C47.9233 21.0846 47.9198 21.7692 47.9162 22.4538C47.0317 22.4538 46.1472 22.4538 45.2359 22.4538C45.2349 22.2644 45.234 22.0749 45.2331 21.8798C45.2299 21.2511 45.2262 20.6224 45.2224 19.9938C45.22 19.6129 45.2178 19.2321 45.216 18.8513C45.2145 18.5189 45.2126 18.1865 45.2104 17.8542C45.2092 17.6786 45.2082 17.503 45.2075 17.3274C45.278 15.5255 45.278 15.5255 44.5394 13.9655C44.0052 13.5296 43.3564 13.4861 42.6967 13.5292C42.2011 13.6002 41.8211 13.7844 41.5022 14.1775C41.0183 14.8941 40.9981 15.85 40.9942 16.6874C40.9937 16.7499 40.9932 16.8125 40.9928 16.877C40.9915 17.0471 40.9905 17.2173 40.9896 17.3874C40.9885 17.5657 40.9873 17.7441 40.986 17.9224C40.9837 18.2595 40.9815 18.5966 40.9795 18.9336C40.9772 19.3177 40.9746 19.7017 40.972 20.0857C40.9667 20.8751 40.9617 21.6644 40.9568 22.4538C40.0568 22.4538 39.1568 22.4538 38.2295 22.4538C38.2295 18.7567 38.2295 15.0597 38.2295 11.2506C39.0519 11.2506 39.8743 11.2506 40.7217 11.2506C40.745 11.6971 40.745 11.6971 40.7687 12.1526C40.8691 12.0454 40.8691 12.0454 40.9715 11.936C42.2696 10.631 44.647 10.6211 46.0647 11.7342Z" fill="black"/>
<path d="M76.8351 7.50043C77.7196 7.50043 78.6041 7.50043 79.5154 7.50043C79.5154 12.435 79.5154 17.3696 79.5154 22.4538C78.693 22.4538 77.8706 22.4538 77.0232 22.4538C77.0077 22.0152 76.9922 21.5765 76.9762 21.1246C76.8986 21.2186 76.821 21.3126 76.7411 21.4094C76.5758 21.561 76.4002 21.6985 76.2238 21.8367C76.1686 21.881 76.1686 21.881 76.1122 21.9262C75.0784 22.7107 73.7502 22.7985 72.504 22.6769C71.5532 22.5403 70.5945 22.097 69.8758 21.4569C69.8378 21.4248 69.7999 21.3928 69.7608 21.3597C68.5709 20.3279 67.9435 18.8517 67.8198 17.2898C67.7112 15.6944 68.1526 14.0315 69.1941 12.8051C70.259 11.6224 71.56 10.8911 73.1679 10.813C74.1042 10.7836 74.9986 10.9728 75.833 11.4019C75.8637 11.4174 75.8943 11.4329 75.926 11.4488C76.2593 11.6291 76.4824 11.8479 76.7881 12.1051C76.8036 10.5856 76.8192 9.06602 76.8351 7.50043ZM71.3601 14.4193C70.7906 15.1485 70.4693 16.0123 70.5341 16.9472C70.6521 17.9528 71.0173 18.8435 71.8037 19.5106C72.4879 20.0252 73.3349 20.3156 74.1885 20.1987C74.583 20.1364 74.9316 20.0404 75.2834 19.8429C75.3478 19.807 75.3478 19.807 75.4134 19.7704C76.18 19.3111 76.6737 18.5793 76.9174 17.7215C77.1595 16.7425 77.0038 15.7752 76.5177 14.9C76.0253 14.1051 75.3197 13.6286 74.437 13.3868C73.2967 13.1852 72.1391 13.5306 71.3601 14.4193Z" fill="black"/>
<path d="M33.9974 11.3456C34.0454 11.3625 34.0934 11.3795 34.1429 11.397C34.8394 11.6644 35.4011 12.1034 35.9253 12.6273C35.9565 12.6559 35.9877 12.6845 36.0198 12.7139C36.9309 13.5632 37.4901 15.0047 37.5711 16.2351C37.581 16.4913 37.5849 16.7472 37.5858 17.0035C37.586 17.0359 37.5862 17.0683 37.5864 17.1016C37.5873 17.4428 37.5712 17.7064 37.4771 18.039C34.6684 18.0547 31.8598 18.0703 28.966 18.0865C29.2712 18.8876 29.6197 19.4456 30.3767 19.8429C31.2869 20.2223 32.3305 20.3258 33.2616 19.9495C33.6032 19.7873 33.8686 19.6045 34.1117 19.3121C34.3019 19.1182 34.4243 19.0492 34.6946 19.0295C34.8155 19.0295 34.9364 19.0322 35.0573 19.037C35.1219 19.0379 35.1866 19.0386 35.2513 19.039C35.4201 19.0408 35.5887 19.0455 35.7574 19.0508C35.9301 19.0557 36.1028 19.0578 36.2756 19.0602C36.6135 19.0652 36.9512 19.0733 37.289 19.0834C37.2457 19.4381 37.2457 19.4381 37.1683 19.5959C37.1534 19.6264 37.1386 19.6569 37.1233 19.6884C37.1072 19.7198 37.0911 19.7512 37.0745 19.7836C37.0576 19.8168 37.0407 19.85 37.0234 19.8843C36.3534 21.1734 35.1861 22.0337 33.8286 22.4666C32.7851 22.7864 31.4821 22.8534 30.4237 22.5487C30.3857 22.538 30.3477 22.5273 30.3086 22.5163C28.8041 22.0791 27.4845 21.1464 26.7089 19.748C26.4984 19.3552 26.3246 18.9535 26.1975 18.5256C26.1885 18.4954 26.1795 18.4652 26.1703 18.4341C25.7649 16.9645 25.9748 15.2905 26.7065 13.9588C26.9692 13.5015 27.2911 13.1058 27.6493 12.7223C27.6805 12.6872 27.7117 12.6521 27.7438 12.616C29.3032 10.9309 31.9235 10.5878 33.9974 11.3456ZM29.398 14.5321C29.1715 14.8267 28.8719 15.281 28.8719 15.6655C30.8582 15.6655 32.8444 15.6655 34.8908 15.6655C34.7966 14.9995 34.4447 14.4558 33.9159 14.047C32.5475 13.1261 30.5045 13.2597 29.398 14.5321Z" fill="black"/>
<path d="M65.1364 12.2694C66.292 13.2736 67.0311 14.7417 67.1484 16.2826C67.155 16.513 67.155 16.7433 67.1543 16.9739C67.1545 17.035 67.1547 17.0962 67.1549 17.1592C67.1548 17.2482 67.1548 17.2482 67.1547 17.339C67.1546 17.3925 67.1546 17.446 67.1545 17.5012C67.137 17.9556 67.137 17.9556 67.0544 18.039C66.9437 18.0436 66.8345 18.0452 66.7238 18.0447C66.6713 18.0448 66.6713 18.0448 66.6178 18.0448C66.4997 18.0449 66.3816 18.0446 66.2634 18.0444C66.1791 18.0444 66.0948 18.0444 66.0105 18.0444C65.7808 18.0444 65.5511 18.0441 65.3215 18.0438C65.0817 18.0435 64.842 18.0435 64.6023 18.0434C64.148 18.0433 63.6937 18.0429 63.2393 18.0424C62.7223 18.0419 62.2052 18.0416 61.6881 18.0414C60.6242 18.0409 59.5602 18.04 58.4962 18.039C58.5474 18.1607 58.5988 18.2823 58.6505 18.4037C58.6649 18.438 58.6792 18.4722 58.6939 18.5074C58.8113 18.782 58.9533 19.0051 59.1546 19.2258C59.179 19.2547 59.2034 19.2837 59.2286 19.3135C59.7012 19.8392 60.4768 20.1269 61.1727 20.1726C61.205 20.1734 61.2373 20.1743 61.2706 20.1752C61.3285 20.1779 61.3285 20.1779 61.3876 20.1808C62.207 20.2023 62.947 20.0098 63.5747 19.4631C63.5982 19.4325 63.6216 19.4019 63.6458 19.3704C63.781 19.2042 63.8854 19.0983 64.0972 19.0498C64.2744 19.0395 64.448 19.0406 64.6254 19.0463C64.6902 19.047 64.755 19.0475 64.8198 19.0479C64.9893 19.0493 65.1587 19.0531 65.3282 19.0573C65.5015 19.0612 65.6749 19.0629 65.8483 19.0648C66.1877 19.0689 66.527 19.0753 66.8663 19.0834C66.8271 19.3325 66.7611 19.5274 66.6547 19.7539C66.638 19.7894 66.6213 19.8249 66.6042 19.8614C66.4451 20.1888 66.2524 20.465 66.0199 20.7448C65.9887 20.7846 65.9576 20.8243 65.9255 20.8652C65.0748 21.8954 63.6643 22.5672 62.3521 22.6912C60.4863 22.7995 58.842 22.4166 57.4088 21.1543C56.365 20.178 55.6645 18.8552 55.5705 17.4053C55.5457 16.6627 55.5728 15.956 55.7689 15.2382C55.777 15.2071 55.785 15.176 55.7933 15.1439C56.1528 13.7869 57.1166 12.54 58.3082 11.8203C58.5527 11.68 58.8041 11.5568 59.0605 11.4405C59.1107 11.4176 59.1609 11.3946 59.2126 11.371C61.1423 10.5576 63.5374 10.9199 65.1364 12.2694ZM59.0458 14.449C58.7732 14.7767 58.4492 15.2204 58.4492 15.6654C60.4355 15.6654 62.4217 15.6654 64.4681 15.6654C64.3076 14.9363 63.99 14.3802 63.3631 13.9595C62.0312 13.1726 60.1276 13.276 59.0458 14.449Z" fill="black"/>
<path d="M7.1004 8.7821C13.1499 8.7821 13.1499 8.7821 13.9575 9.57465C14.6624 10.3285 14.8843 11.2555 14.8693 12.2705C14.8436 13.0187 14.6302 13.754 14.1538 14.3362C14.1211 14.3763 14.0883 14.4164 14.0546 14.4577C13.5791 14.9869 12.9438 15.2136 12.2729 15.3806C12.3185 15.4227 12.364 15.4648 12.4109 15.5082C12.7527 15.8266 13.0848 16.1504 13.4031 16.4928C13.4974 16.5929 13.5918 16.6928 13.6862 16.7928C13.7497 16.8607 13.8127 16.9292 13.8752 16.9982C13.9681 17.1004 14.0629 17.2002 14.1584 17.2998C14.1988 17.3459 14.1988 17.3459 14.24 17.393C14.5561 17.7144 14.716 17.6242 15.2353 17.6592C15.2353 16.9386 15.2353 16.218 15.2353 15.4755C15.9181 15.4755 16.6009 15.4755 17.3043 15.4755C17.3043 16.1961 17.3043 16.9167 17.3043 17.6592C18.0337 17.6592 18.763 17.6592 19.5144 17.6592C19.5144 18.3485 19.5144 19.0377 19.5144 19.7479C18.7851 19.7479 18.0558 19.7479 17.3043 19.7479C17.3043 20.4842 17.3043 21.2205 17.3043 21.979C16.6216 21.979 15.9388 21.979 15.2353 21.979C15.2353 21.2428 15.2353 20.5065 15.2353 19.7479C14.9405 19.7479 14.6457 19.7479 14.3419 19.7479C13.974 19.4859 13.974 19.4859 13.8665 19.3678C13.7466 19.2407 13.6201 19.1302 13.4837 19.021C12.9912 18.6159 12.5 18.2092 12.016 17.7939C11.7751 17.5874 11.5306 17.3857 11.2854 17.1845C11.0376 16.9811 10.7906 16.7771 10.5477 16.5678C10.2788 16.3362 10.0056 16.1117 9.72636 15.8929C9.68788 15.8627 9.68788 15.8627 9.64863 15.8319C9.62642 15.8146 9.60421 15.7973 9.58132 15.7795C9.45801 15.6802 9.33757 15.5774 9.21643 15.4755C9.20091 16.8854 9.18539 18.2953 9.1694 19.7479C8.48663 19.7479 7.80386 19.7479 7.1004 19.7479C7.1004 16.1292 7.1004 12.5105 7.1004 8.7821ZM9.1694 10.8234C9.1694 11.6536 9.1694 12.4839 9.1694 13.3393C9.53755 13.3426 9.90564 13.3454 10.2738 13.3471C10.399 13.3478 10.5241 13.3488 10.6492 13.3501C10.8295 13.3518 11.0097 13.3526 11.1899 13.3532C11.2456 13.354 11.3012 13.3547 11.3586 13.3555C11.7418 13.3555 12.0082 13.3129 12.3317 13.0931C12.6697 12.7441 12.7106 12.365 12.7062 11.8939C12.6846 11.534 12.5819 11.266 12.3199 11.0132C11.9843 10.7945 11.6925 10.7983 11.3001 10.8048C11.2085 10.8052 11.2085 10.8052 11.1151 10.8056C10.954 10.8063 10.7929 10.8082 10.6318 10.8103C10.467 10.8123 10.3021 10.8131 10.1372 10.8141C9.81459 10.816 9.49204 10.8197 9.1694 10.8234Z" fill="black"/>
<path d="M89.8709 12.2355C90.9203 13.134 91.6002 14.2186 91.9294 15.5705C91.9404 15.6138 91.9514 15.6571 91.9627 15.7018C92.2839 17.1854 91.9556 18.7609 91.1559 20.032C91.0459 20.1975 90.9267 20.354 90.8009 20.5075C90.7794 20.5336 90.758 20.5598 90.7359 20.5867C89.7725 21.7392 88.3818 22.5052 86.898 22.6911C86.0809 22.7326 85.2392 22.754 84.4528 22.5013C84.4202 22.4908 84.3877 22.4804 84.3541 22.4697C82.8604 21.9751 81.6121 20.9718 80.8791 19.5581C80.1467 18.0729 80.0383 16.4638 80.5542 14.8922C81.0816 13.4184 82.1801 12.196 83.58 11.5206C85.6005 10.5868 88.1223 10.8004 89.8709 12.2355ZM83.8415 14.5261C83.7989 14.5694 83.7989 14.5694 83.7554 14.6135C83.1894 15.23 82.9244 16.0871 82.9515 16.9167C83.0036 17.9188 83.3909 18.7454 84.1031 19.4453C84.6273 19.9045 85.2677 20.1665 85.9575 20.2226C85.988 20.2252 86.0185 20.2277 86.0499 20.2302C86.8111 20.2632 87.5861 19.9553 88.1641 19.4607C88.8963 18.7661 89.2902 17.9627 89.3422 16.94C89.3662 16.0776 89.0625 15.2032 88.4879 14.5617C87.8471 13.8774 87.0666 13.4906 86.128 13.461C85.2153 13.4837 84.465 13.8794 83.8415 14.5261Z" fill="black"/>
<path d="M13.9187 3.75018C16.2839 3.82041 18.6122 4.73563 20.4549 6.21868C20.5215 6.2709 20.5215 6.2709 20.5895 6.32419C20.8576 6.53873 21.1096 6.76982 21.36 7.00491C21.3912 7.03403 21.4223 7.06315 21.4544 7.09315C21.6685 7.29663 21.8636 7.51129 22.0536 7.73775C22.0778 7.76608 22.1019 7.79442 22.1268 7.82361C24.166 10.2299 25.0815 13.3407 24.8533 16.481C24.7678 17.4414 24.5435 18.3815 24.2518 19.2978C24.2119 19.4253 24.2119 19.4253 24.1798 19.5985C24.1283 19.8047 24.0493 19.9412 23.8701 20.0577C23.0822 20.4169 23.0822 20.4169 22.8448 20.4092C22.7114 20.3406 22.699 20.2481 22.6534 20.1071C22.6181 19.9965 22.5838 19.8857 22.5503 19.7746C22.532 19.7199 22.5138 19.6653 22.4949 19.6089C22.3797 19.2339 22.3792 19.0156 22.5239 18.6561C22.5518 18.565 22.5787 18.4735 22.6047 18.3818C22.6184 18.3344 22.6321 18.287 22.6462 18.2381C23.3662 15.7045 23.106 12.9759 21.8444 10.6548C20.505 8.26881 18.3517 6.64111 15.7526 5.88638C15.1516 5.72484 14.5339 5.64046 13.9187 5.55408C14.0842 5.35234 14.252 5.16635 14.4477 4.99333C14.6095 4.84984 14.6095 4.84984 14.7651 4.6996C14.7395 4.67422 14.7138 4.64883 14.6874 4.62267C14.572 4.50813 14.457 4.39322 14.3419 4.2783C14.3015 4.23834 14.2612 4.19838 14.2196 4.15721C14.1814 4.11896 14.1432 4.08072 14.1039 4.04131C14.0507 3.98836 14.0507 3.98836 13.9964 3.93434C13.9187 3.84513 13.9187 3.84513 13.9187 3.75018Z" fill="black"/>
<path d="M11.7397 3.81921C11.9882 3.8603 12.1484 4.00806 12.3405 4.1656C12.3988 4.21076 12.3988 4.21076 12.4583 4.25684C12.6694 4.42571 12.6694 4.42571 12.7431 4.50977C12.7431 4.72745 12.7248 4.74219 12.5819 4.88972C12.5484 4.92488 12.5148 4.96003 12.4803 4.99625C12.4448 5.03251 12.4094 5.06877 12.3728 5.10612C12.3033 5.1783 12.2339 5.25055 12.1645 5.3229C12.1335 5.35475 12.1025 5.3866 12.0705 5.41942C11.9825 5.51116 11.9825 5.51116 11.8967 5.64907C11.7895 5.68611 11.7895 5.68611 11.6548 5.7136C11.5801 5.7296 11.5801 5.7296 11.504 5.74593C11.4503 5.75705 11.3966 5.76816 11.3413 5.77962C8.71375 6.36047 6.4992 7.87789 5.03142 10.1588C3.6152 12.4704 3.22573 15.1594 3.81324 17.8009C3.96063 18.4241 4.16537 19.0587 4.45797 19.6284C4.47651 19.6678 4.49506 19.7073 4.51417 19.748C4.49866 19.7793 4.48314 19.8106 4.46715 19.8429C4.09473 19.7176 3.72231 19.5923 3.3386 19.4631C3.29642 19.6614 3.29642 19.6614 3.25338 19.8637C3.18824 20.1646 3.11559 20.4555 3.00945 20.7449C2.81549 20.5709 2.74507 20.3386 2.64796 20.101C2.61703 20.0255 2.61703 20.0255 2.58548 19.9484C2.00036 18.4861 1.71891 17.0181 1.72514 15.4459C1.72524 15.3998 1.72534 15.3538 1.72544 15.3063C1.72784 14.6261 1.74418 13.9602 1.8809 13.2919C1.89024 13.2452 1.89959 13.1986 1.90921 13.1505C2.46498 10.4527 3.92061 7.90156 6.11294 6.21872C6.14281 6.19573 6.17267 6.17274 6.20343 6.14905C7.84207 4.89611 9.70919 4.12549 11.7397 3.81921Z" fill="black"/>
<path d="M21.3953 20.9347C21.5011 21.0414 21.5102 21.0854 21.5397 21.2295C21.5479 21.2691 21.5561 21.3086 21.5645 21.3493C21.5727 21.3907 21.5809 21.4321 21.5893 21.4747C21.6021 21.5362 21.6021 21.5362 21.6152 21.5989C21.6519 21.7795 21.6775 21.9357 21.6775 22.1215C21.714 22.1112 21.7506 22.1008 21.7882 22.0902C21.953 22.0439 22.118 21.9981 22.2829 21.9524C22.3404 21.9361 22.3979 21.9199 22.4572 21.9031C22.5121 21.888 22.5669 21.8728 22.6234 21.8572C22.6995 21.836 22.6995 21.836 22.7772 21.8143C22.9001 21.7892 22.9001 21.7892 22.9941 21.8366C22.6609 22.3618 22.287 22.8324 21.8703 23.2929C21.784 23.3892 21.7013 23.4875 21.6187 23.5871C20.0969 25.3374 17.824 26.4229 15.6057 26.9042C15.5626 26.9136 15.5195 26.9231 15.4751 26.9328C14.7642 27.079 14.052 27.1242 13.328 27.1208C13.2893 27.1207 13.2506 27.1206 13.2108 27.1204C10.6276 27.1096 8.07277 26.2522 6.06593 24.59C6.0406 24.5692 6.01528 24.5485 5.98918 24.5271C5.29236 23.9535 4.59205 23.3075 4.09098 22.5487C4.08878 22.4232 4.08878 22.4232 4.10274 22.2728C4.10777 22.2184 4.1128 22.1641 4.11798 22.1081C4.14989 21.8268 4.18924 21.5468 4.23205 21.267C4.42216 21.3043 4.61218 21.342 4.8022 21.3797C4.8559 21.3903 4.90961 21.4008 4.96494 21.4116C5.01707 21.422 5.0692 21.4324 5.12291 21.4432C5.17068 21.4526 5.21845 21.462 5.26767 21.4718C5.54886 21.5372 5.70451 21.5863 5.87784 21.8248C6.30086 22.3713 6.79775 22.8355 7.34896 23.2477C7.42698 23.3063 7.50398 23.366 7.58095 23.426C8.87623 24.4166 10.4436 24.9675 12.0378 25.2071C12.0697 25.212 12.1016 25.217 12.1345 25.2221C13.1041 25.3528 14.186 25.3088 15.1413 25.1121C15.1854 25.1032 15.2295 25.0943 15.2749 25.0851C17.0432 24.7134 18.6762 23.8524 19.9847 22.5962C20.0107 22.5714 20.0368 22.5467 20.0636 22.5211C20.5682 22.0388 21.0095 21.519 21.3953 20.9347Z" fill="black"/>
</svg>
