<svg width="92" height="33" viewBox="0 0 92 33" fill="none" xmlns="http://www.w3.org/2000/svg">
<path d="M31.1161 2.29597C31.584 1.76119 32.33 1.47811 32.7541 2.04833C33.6383 3.13958 34.6052 3.68666 35.8658 4.18747C37.0577 4.66577 37.9503 5.23868 38.5874 6.43759C38.8264 7.00694 38.9153 7.58043 38.9571 8.18472C38.9717 8.39657 39.1365 8.5683 39.3483 8.58397C39.3734 8.58583 39.3993 8.58999 39.4236 8.59666C40.016 8.75916 40.2465 9.03329 40.6524 9.52521C40.7507 9.62946 40.8095 9.76513 40.8145 9.90835C40.8211 10.1023 40.8231 10.2965 40.823 10.4906C40.8233 10.7517 40.8233 10.7517 40.8236 11.0182C40.823 11.2108 40.8225 11.4035 40.8219 11.6019C40.822 11.8035 40.822 12.0051 40.822 12.2128C40.8219 12.7672 40.8211 13.3215 40.8201 13.8759C40.8191 14.4546 40.819 15.0333 40.8189 15.6121C40.8184 16.7087 40.8171 17.8054 40.8156 18.902C40.8136 20.3834 40.8128 21.8648 40.8119 23.3462C40.8105 25.6813 40.8074 28.0164 40.8046 30.3515C34.9763 30.3515 29.1479 30.3515 23.1429 30.3515C23.1429 28.5934 23.1429 25.249 23.1429 25.0238C22.0532 24.7958 21.6695 24.7156 21.3475 24.8442C20.912 25.0183 20.6174 25.4258 20.3357 25.8008C20.1701 25.9968 20.0036 26.1918 19.8361 26.386C19.7535 26.4836 19.6709 26.5812 19.5857 26.6818C16.836 29.7645 12.7839 31.1982 8.87725 31.3656C6.76527 31.4178 4.49737 31.3717 2.4361 30.8358C2.33562 30.7293 2.23513 30.6227 2.13159 30.5129C2.25817 30.4821 2.38475 30.4512 2.51517 30.4194C2.99131 30.3026 3.46713 30.1845 3.94279 30.0656C4.14747 30.0147 4.35226 29.9642 4.55717 29.9144C5.62508 29.6541 6.61599 29.3711 7.59986 28.897C7.7017 28.8479 7.67775 28.7001 7.56601 28.6829C7.03905 28.6011 6.51232 28.5177 5.98558 28.4343C5.80314 28.4062 5.62071 28.3781 5.43275 28.3492C5.2566 28.3211 5.08045 28.293 4.89897 28.2641C4.73711 28.2387 4.57525 28.2133 4.40848 28.1872C3.84829 28.0677 3.81004 27.3908 4.37384 27.2897C4.39477 27.286 4.41615 27.2822 4.43803 27.2784C4.59112 27.251 4.74421 27.2236 4.90194 27.1954C5.0617 27.1681 5.22146 27.1407 5.38607 27.1125C5.70129 27.0569 6.01651 27.0012 6.33172 26.9454C6.47154 26.9212 6.61135 26.8971 6.75541 26.8722C7.11736 26.8067 7.47704 26.7334 7.83671 26.6557C7.88377 26.6456 7.91732 26.6045 7.91732 26.5564C7.91732 26.5099 7.88596 26.4686 7.84096 26.4568C7.76097 26.4358 7.68054 26.4146 7.59828 26.393C7.12382 26.2676 6.64986 26.1402 6.1759 26.0127C5.92727 25.9474 5.92727 25.9474 5.67363 25.8809C5.43737 25.8169 5.43737 25.8169 5.19634 25.7516C5.05043 25.7127 4.90452 25.6738 4.75418 25.6337C4.63496 25.5895 4.5577 25.5609 4.50099 25.5283C4.3186 25.4233 4.47581 25.1566 4.68437 25.1286C5.20225 25.0587 5.7201 24.9885 6.23794 24.9182C6.46165 24.8879 6.68537 24.8577 6.90911 24.8276C7.23154 24.7842 7.55391 24.7404 7.87629 24.6965C8.07004 24.6703 8.26379 24.6441 8.46342 24.6171C8.89519 24.5526 9.31827 24.4751 9.7444 24.3781C9.34177 24.1554 8.94567 23.9752 8.51505 23.8231C8.40092 23.7819 8.28679 23.7407 8.1692 23.6982C7.9299 23.6127 7.69041 23.5278 7.45074 23.4434C6.94745 23.2608 6.72965 23.1817 6.6046 23.0822C6.46082 22.9678 6.59619 22.7535 6.77972 22.7442C10.8835 22.5413 10.9893 22.5361 14.7659 21.5522C14.8703 21.525 14.8857 21.3819 14.7885 21.3352C13.8596 20.869 12.9944 20.3431 12.2417 19.5962C12.2023 19.5571 12.1805 19.5044 12.1805 19.4488C12.1805 19.3227 12.2899 19.2237 12.4152 19.2374C12.434 19.2394 12.4559 19.2418 12.4823 19.2447C15.5613 19.5628 18.3297 19.4011 21.3165 18.5119C21.8208 18.3933 22.3262 18.329 22.8374 18.2747C23.0104 18.2563 23.1416 18.11 23.1399 17.936C23.1298 16.8806 23.1229 15.8252 23.1178 14.7697C23.1156 14.3759 23.1124 13.9821 23.1085 13.5882C23.1029 13.022 23.1003 12.4558 23.0983 11.8895C23.096 11.7135 23.0936 11.5376 23.0912 11.3563C23.0909 9.83521 23.0909 9.83521 23.5997 9.20232C23.9419 8.85809 24.1148 8.68569 24.4075 8.60909C24.7158 8.52839 24.9867 8.30952 25.0081 7.99149C25.152 6.82208 25.6609 5.90597 26.4658 5.1C26.9874 4.69585 27.5576 4.47021 28.1579 4.22594C29.3305 3.74856 30.3264 3.19842 31.1161 2.29597Z" fill="#C9A485"/>
<path d="M31.8215 7.91077C31.9723 7.91077 32.123 7.91077 32.2783 7.91077C32.2281 8.39026 32.1778 8.86974 32.1261 9.36376C32.2265 9.36376 32.327 9.36376 32.4306 9.36376C32.4306 8.99083 32.4306 8.61789 32.4306 8.23365C32.6315 8.23365 32.8325 8.23365 33.0396 8.23365C33.0396 8.34021 33.0396 8.44676 33.0396 8.55654C32.9391 8.55654 32.8386 8.55654 32.7351 8.55654C32.6325 8.99246 32.6325 8.99246 32.7351 9.52521C33.0258 9.85828 33.335 10.131 33.6718 10.4106C33.9531 10.6553 33.9531 10.6553 34.1054 10.9782C33.7981 11.0518 33.4908 11.1254 33.1835 11.1989C32.8558 11.2857 32.8558 11.2857 32.5828 11.624C32.5564 12.0741 32.5475 12.5063 32.5543 12.9559C32.5544 13.0772 32.5545 13.1985 32.5546 13.3236C32.5584 13.8394 32.5757 14.3246 32.6578 14.8339C33.0161 17.1663 32.8832 19.5502 31.7169 21.5931C30.4545 23.445 28.7216 24.4064 26.6448 24.8624C25.9788 24.9399 25.316 24.9661 24.6465 24.9835C24.3918 24.9938 24.3918 24.9938 24.132 25.0043C23.3774 25.0297 22.6811 25.0341 21.938 24.887C21.5623 24.8352 21.3876 24.8188 21.0568 25.0197C20.8026 25.2645 20.5849 25.5219 20.3643 25.8008C20.1945 25.9968 20.0238 26.1918 19.8522 26.386C19.7667 26.4836 19.6812 26.5812 19.5931 26.6818C16.6591 29.8767 12.5365 31.2751 8.42446 31.3767C6.45868 31.3936 4.35352 31.3343 2.4361 30.8358C2.33562 30.7293 2.23513 30.6227 2.13159 30.5129C2.25817 30.4821 2.38475 30.4512 2.51517 30.4194C2.99131 30.3026 3.46713 30.1845 3.94279 30.0656C4.14747 30.0146 4.35226 29.9642 4.55717 29.9144C5.74 29.6261 6.82836 29.3099 7.91733 28.737C7.80139 28.7192 7.68546 28.7013 7.56601 28.6829C7.03905 28.6011 6.51232 28.5177 5.98558 28.4343C5.80314 28.4062 5.62071 28.3781 5.43275 28.3492C5.2566 28.3211 5.08045 28.293 4.89897 28.2641C4.73711 28.2387 4.57525 28.2133 4.40848 28.1872C3.9744 28.0946 3.60155 27.9575 3.19738 27.7684C3.66159 27.4402 3.89997 27.3723 4.43803 27.2784C4.59112 27.251 4.74421 27.2236 4.90194 27.1954C5.0617 27.1681 5.22146 27.1407 5.38607 27.1125C5.7013 27.0569 6.01651 27.0012 6.33172 26.9454C6.54144 26.9092 6.54144 26.9092 6.75541 26.8722C7.14441 26.8018 7.53078 26.7224 7.91733 26.6383C7.91733 26.585 7.91733 26.5317 7.91733 26.4768C7.81204 26.4492 7.70675 26.4215 7.59828 26.393C7.12382 26.2676 6.64986 26.1402 6.1759 26.0127C6.01015 25.9692 5.8444 25.9257 5.67363 25.8809C5.51612 25.8382 5.35862 25.7955 5.19634 25.7516C4.97747 25.6933 4.97747 25.6933 4.75418 25.6337C4.41543 25.5082 4.41543 25.5082 4.26318 25.1853C4.47167 25.1572 4.47167 25.1572 4.68437 25.1286C5.20226 25.0587 5.72011 24.9885 6.23794 24.9182C6.46165 24.8879 6.68537 24.8577 6.90911 24.8276C7.23154 24.7842 7.55392 24.7404 7.87629 24.6965C8.07004 24.6703 8.26379 24.6441 8.46342 24.6171C8.89519 24.5526 9.31827 24.4751 9.7444 24.3781C9.34177 24.1554 8.94567 23.9752 8.51505 23.8231C8.40092 23.7819 8.28679 23.7407 8.1692 23.6982C7.9299 23.6127 7.69041 23.5278 7.45074 23.4434C6.5635 23.1214 6.5635 23.1214 6.39476 22.7636C6.58532 22.754 6.58532 22.754 6.77972 22.7442C10.9921 22.536 10.9921 22.536 15.0734 21.4721C14.9323 21.4043 14.9323 21.4043 14.7885 21.3352C13.8344 20.8563 12.9473 20.3144 12.1805 19.5347C12.1805 19.4282 12.1805 19.3216 12.1805 19.2118C12.3299 19.2281 12.3299 19.2281 12.4823 19.2447C15.5811 19.5648 18.3265 19.3578 21.3387 18.5226C23.8763 17.8325 26.4026 17.735 29 18.0937C29.3882 18.1074 29.3882 18.1074 29.7233 17.9234C30.3535 17.1658 30.3355 16.0213 30.3353 15.0597C30.3376 14.827 30.3401 14.5943 30.3427 14.3616C30.3452 14.0013 30.3466 13.6412 30.3455 13.2809C30.3426 10.7472 30.3426 10.7472 31.2125 9.68665C31.313 9.68665 31.4135 9.68665 31.517 9.68665C31.4668 9.31371 31.4165 8.94078 31.3648 8.55654C31.2643 8.55654 31.1638 8.55654 31.0603 8.55654C31.1105 8.39671 31.1607 8.23688 31.2125 8.07221C31.3632 8.12549 31.514 8.17876 31.6693 8.23365C31.6693 8.60659 31.6693 8.97953 31.6693 9.36376C31.7698 9.36376 31.8703 9.36376 31.9738 9.36376C31.9236 8.88427 31.8733 8.40479 31.8215 7.91077Z" fill="#F3F3F3"/>
<path d="M55.4212 10.171C55.9237 10.171 56.4261 10.171 56.9438 10.171C56.9438 11.6627 56.9438 13.1544 56.9438 14.6914C57.3458 14.5848 57.7477 14.4783 58.1618 14.3685C58.5755 14.3355 58.9674 14.3143 59.3799 14.3181C59.5394 14.3194 59.5394 14.3194 59.7021 14.3208C60.7704 14.3475 61.4524 14.4844 62.2442 15.2867C63.0807 16.6299 63.1036 17.8292 63.1197 19.4035C63.1249 19.8061 63.1314 20.2087 63.1393 20.6112C63.1412 20.7882 63.1431 20.9651 63.145 21.1474C63.1867 21.6384 63.2954 21.9961 63.4908 22.4407C63.607 22.4141 63.7232 22.3874 63.8429 22.36C64.2521 22.2793 64.2521 22.2793 64.7089 22.2793C64.2875 22.7757 63.9543 23.0809 63.3386 23.2479C62.7681 23.2267 62.4061 23.1905 61.9424 22.8287C61.5611 22.2978 61.5746 21.9208 61.5537 21.2576C61.5489 21.1433 61.5441 21.0291 61.5391 20.9113C61.524 20.5467 61.5126 20.1821 61.502 19.8172C61.5117 17.3177 61.5117 17.3177 60.4457 15.1757C59.3372 14.7839 58.1122 15.0143 56.9438 15.0143C56.9438 17.6248 56.9438 20.2354 56.9438 22.925C56.4414 22.925 55.9389 22.925 55.4212 22.925C55.4212 18.7162 55.4212 14.5073 55.4212 10.171Z" fill="#BE9576"/>
<path d="M64.2521 14.3685C64.8048 14.3685 65.3575 14.3685 65.9269 14.3685C66.2061 15.1413 66.4852 15.9142 66.7642 16.6871C66.8591 16.9501 66.9541 17.213 67.0491 17.4759C67.1856 17.8538 67.322 18.2317 67.4584 18.6096C67.5009 18.7272 67.5434 18.8447 67.5872 18.9659C67.7518 19.4224 67.9127 19.8782 68.0585 20.342C68.7904 18.3604 69.335 16.4475 68.6675 14.3685C69.2202 14.3685 69.7729 14.3685 70.3423 14.3685C71.0457 16.3398 71.7492 18.311 72.4739 20.342C72.6969 19.7626 72.9198 19.1832 73.1495 18.5863C73.2197 18.4071 73.2899 18.2279 73.3621 18.0434C73.8114 16.8504 74.2004 15.643 73.8442 14.3685C74.2462 14.3685 74.6481 14.3685 75.0623 14.3685C74.8615 15.4384 74.5727 16.4197 74.2005 17.4353C74.1472 17.583 74.0939 17.7307 74.039 17.8829C73.8703 18.3498 73.7002 18.8161 73.5302 19.2825C73.4154 19.5998 73.3007 19.9171 73.1861 20.2344C72.9771 20.8119 72.7681 21.3893 72.5577 21.9661C72.5157 22.0815 72.4737 22.1968 72.4304 22.3157C72.3217 22.6022 72.3217 22.6022 72.1694 22.9251C72.0187 22.9251 71.8679 22.9251 71.7126 22.9251C70.959 20.9006 70.2053 18.876 69.4288 16.7902C69.2781 17.6426 69.1273 18.495 68.972 19.3733C68.7999 19.9719 68.6264 20.5459 68.4201 21.129C68.3726 21.2686 68.3251 21.4083 68.2762 21.5522C67.9442 22.5216 67.9442 22.5216 67.754 22.9251C67.6032 22.9251 67.4525 22.9251 67.2972 22.9251C67.1913 22.637 67.1913 22.637 67.0832 22.3431C66.8188 21.6239 66.5544 20.9048 66.2898 20.1857C66.1758 19.8757 66.0618 19.5657 65.9479 19.2557C65.7831 18.8076 65.6183 18.3595 65.4535 17.9115C65.3783 17.7068 65.3783 17.7068 65.3015 17.498C65.2284 17.2994 65.2284 17.2994 65.1539 17.0968C65.1064 16.9678 65.059 16.8388 65.0101 16.7059C64.9046 16.4226 64.7973 16.1401 64.6888 15.8582C64.6329 15.7131 64.5771 15.568 64.5196 15.4185C64.4684 15.2869 64.4172 15.1553 64.3645 15.0197C64.2521 14.6914 64.2521 14.6914 64.2521 14.3685Z" fill="#CCA889"/>
<path d="M26.9493 24.8624C26.8991 25.1288 26.8488 25.3952 26.7971 25.6696C27.0483 25.6696 27.2995 25.6696 27.5584 25.6696C28.303 27.1179 28.8366 28.6505 29.3854 30.1901C29.2332 30.3515 29.2332 30.3515 28.6568 30.3698C28.3999 30.3698 28.143 30.3689 27.8861 30.3673C27.6836 30.3669 27.6836 30.3669 27.4771 30.3666C27.0442 30.3657 26.6114 30.3636 26.1785 30.3616C25.8858 30.3608 25.5931 30.36 25.3004 30.3594C24.5812 30.3577 23.8621 30.3546 23.1429 30.3515C23.1429 28.5401 23.1429 26.7287 23.1429 24.8624C23.7145 24.8324 24.286 24.8025 24.8748 24.7716C25.0549 24.7617 25.2349 24.7518 25.4205 24.7416C25.6326 24.7312 25.6326 24.7312 25.849 24.7205C25.9942 24.7129 26.1393 24.7053 26.2888 24.6974C26.6448 24.701 26.6448 24.701 26.9493 24.8624Z" fill="#BF9779"/>
<path d="M22.0771 22.925C22.2279 23.005 22.2279 23.005 22.3817 23.0865C21.9763 23.5211 21.57 23.9547 21.1636 24.3881C20.9937 24.5703 20.9937 24.5703 20.8204 24.7561C18.8342 26.8714 16.6603 28.8615 13.9885 29.8974C13.8429 29.9551 13.8429 29.9551 13.6943 30.0139C11.6249 30.7732 9.57667 30.9078 7.40885 30.8812C6.99001 30.8761 6.57126 30.8746 6.1524 30.8736C5.88248 30.8722 5.61257 30.8705 5.34265 30.8686C5.21925 30.8679 5.09584 30.8672 4.9687 30.8665C4.26381 30.8572 3.58478 30.8244 2.89287 30.6744C2.84263 30.5678 2.79238 30.4613 2.74062 30.3515C2.84396 30.3264 2.94731 30.3012 3.05379 30.2754C3.53649 30.1573 4.01883 30.0377 4.50108 29.9176C4.67663 29.8741 4.85218 29.8305 5.03304 29.7857C5.95041 29.553 6.821 29.2937 7.69846 28.9287C8.84265 28.4935 9.96272 28.4922 11.1696 28.463C12.2736 28.4341 13.2668 28.3335 14.3121 27.9298C14.4587 27.8732 14.6053 27.8166 14.7564 27.7583C16.7712 26.9181 18.5264 25.7438 20.2501 24.378C20.3397 24.3074 20.4293 24.2367 20.5216 24.1639C21.042 23.7535 21.5604 23.3405 22.0771 22.925Z" fill="#F4F4F4"/>
<path d="M79.7009 14.1463C81.2255 14.1001 82.7427 15.2512 82.7167 16.7763C82.6087 17.6501 81.9493 18.2802 81.3339 18.8158C80.8159 19.18 80.2621 19.4619 79.683 19.668C79.2085 19.8368 78.9616 19.3571 79.3825 19.0807C79.7507 18.8257 80.0722 18.5645 80.3497 18.2572C80.8736 17.6774 81.1303 16.8602 80.9798 16.0934C80.8488 15.4257 80.2631 14.8752 79.5831 14.8513C79.5492 14.8501 79.5149 14.8498 79.4802 14.8502C79.0907 14.8546 78.6827 14.9289 78.3859 15.1811C78.3659 15.1981 78.3466 15.2155 78.3278 15.2335C77.8867 15.6546 77.6863 16.275 77.6206 16.8813C77.5055 17.9436 77.7155 19.0483 78.1074 20.019C78.24 20.2937 78.3799 20.5534 78.5337 20.7944C79.3568 22.0846 81.1696 22.7215 82.4271 21.8492C82.895 21.4422 83.2831 20.9676 83.6166 20.4456C83.8067 20.1482 84.1474 20.1856 84.0454 20.5236C83.9128 20.8268 83.7597 21.1154 83.5849 21.3839C82.6774 22.7774 80.88 23.3872 79.2413 23.1044C78.7424 23.0183 78.2572 22.8562 77.8029 22.6022C76.9118 21.9723 76.3689 21.1195 76.0335 20.0367C75.7844 18.5662 75.8774 17.0601 76.6467 15.7912C77.4319 14.723 78.5404 14.1814 79.7009 14.1463Z" fill="#C49C7D"/>
<path d="M51.7832 14.4427C51.8752 14.4985 51.9584 14.5674 52.035 14.643C52.5185 15.1198 52.9274 15.5896 53.0953 16.2641C53.1215 16.3694 53.0397 16.4673 52.9311 16.4673C52.8707 16.4673 52.8134 16.4362 52.7812 16.3851C52.6282 16.1418 52.4753 15.8985 52.3223 15.6553C52.2569 15.5511 52.1819 15.4525 52.0899 15.3709C51.7277 15.0496 51.3212 14.8755 50.8825 14.7719C50.3148 14.6379 49.7094 14.6194 49.157 14.8067C48.8542 14.9093 48.5833 15.0669 48.3313 15.315C48.1765 15.4675 48.0465 15.688 47.983 15.8959C47.8795 16.2347 47.9847 16.5886 48.2386 16.8358C48.5301 17.1194 48.9163 17.2531 49.331 17.4359C49.9054 17.6325 50.4902 17.7805 51.0766 17.931C51.5998 18.0737 52.0383 18.2608 52.451 18.5216C53.0921 18.9268 53.6082 19.5565 53.6568 20.3133C53.6988 20.9687 53.503 21.652 53.0719 22.1474C52.9861 22.246 52.8946 22.3373 52.7962 22.4236C52.3549 22.811 51.7974 23.0443 51.2223 23.1634C50.4222 23.329 49.6201 23.3267 48.8315 23.1314C48.1279 22.9571 47.4556 22.6089 46.9784 22.0632C46.728 21.7769 46.5405 21.4409 46.4428 21.0089C46.4397 20.9949 46.4372 20.9666 46.4366 20.9523C46.4264 20.7089 46.7268 20.641 46.8216 20.8654C46.8523 20.938 46.8871 21.0248 46.9329 21.1391C47.2809 21.7848 47.7156 22.141 48.3865 22.3745C49.5616 22.6065 50.6476 22.5685 51.6606 22.0006C51.9346 21.847 52.1816 21.6032 52.2512 21.2968C52.3674 20.7852 52.0185 20.2956 51.563 20.0352C50.928 19.6721 50.241 19.4891 49.5082 19.2727C48.9772 19.1071 48.4595 18.9244 47.9989 18.652C47.124 18.1346 46.7054 17.0653 46.8443 16.0583C46.9165 15.5352 47.1955 15.0596 47.606 14.7273C48.7603 13.7927 50.5167 13.6756 51.7832 14.4427Z" fill="#C7A182"/>
<path d="M84.1976 14.6725C84.1976 14.5055 84.333 14.3685 84.5 14.3685C86.1169 14.3685 87.7363 14.3685 89.3972 14.3685C89.5527 14.3685 89.6789 14.4928 89.6789 14.6483C89.6789 14.7694 89.6015 14.8788 89.4866 14.9172C89.4307 14.9359 89.3744 14.9548 89.3172 14.9739C88.7258 15.1902 88.1511 15.4373 87.5734 15.6916C87.2382 15.8233 86.9435 16.117 86.9505 16.4771C86.9615 17.0515 86.9736 17.6259 86.9866 18.2002C86.9924 18.4699 86.9977 18.7395 87.0025 19.0092C87.0094 19.3971 87.0183 19.785 87.0275 20.1729C87.0292 20.2932 87.031 20.4135 87.0328 20.5374C87.038 20.7321 87.043 20.9152 87.0589 21.0907C87.1236 21.8042 87.769 22.4056 88.4501 22.1834C89.2275 21.8226 89.6167 21.372 90.0498 20.6491C90.0983 20.5681 90.2012 20.5382 90.2846 20.5824C90.3703 20.6278 90.4035 20.7344 90.3573 20.8197C89.9496 21.5733 89.5282 22.2088 88.8629 22.6784C88.608 22.8583 88.3026 22.9496 87.992 22.9795C87.6271 23.0147 87.2635 23.0251 86.9125 22.9561C86.4726 22.8696 86.0846 22.5956 85.8059 22.2444C85.4455 21.7904 85.4041 21.1782 85.4007 20.5986C85.3998 20.4387 85.3998 20.2786 85.4008 20.1181C85.401 19.9862 85.4012 19.8543 85.4015 19.7184C85.4023 19.2973 85.4042 18.8762 85.4062 18.4551C85.4069 18.1695 85.4076 17.8839 85.4082 17.5984C85.4097 17.0053 85.4118 16.4122 85.4143 15.8191C85.4151 15.6221 85.3066 15.4408 85.1326 15.3485C84.8745 15.2117 84.6164 15.0749 84.3584 14.9381C84.2595 14.8856 84.1976 14.7844 84.1976 14.6725Z" fill="#C49C7D"/>
<path d="M28.3196 18.0817C28.3196 18.135 28.3196 18.1883 28.3196 18.2432C28.1589 18.2552 27.9982 18.2673 27.8325 18.2797C25.5694 18.481 23.4329 19.0715 21.3254 19.9686C18.6235 21.1146 16.0077 21.0898 13.3284 19.9579C12.9404 19.7723 12.5586 19.5805 12.1805 19.3733C12.1805 19.32 12.1805 19.2667 12.1805 19.2118C12.3299 19.2281 12.3299 19.2281 12.4823 19.2447C15.5811 19.5648 18.3265 19.3578 21.3387 18.5226C23.5934 17.9095 26.0142 17.592 28.3196 18.0817Z" fill="#DBD8D7"/>
<path d="M59.3252 14.2605C61.0673 14.1302 62.6944 15.434 62.9981 17.1543C63.0559 17.482 63.0873 17.8287 63.1012 18.1997C63.1095 18.6009 63.1156 19.0022 63.1197 19.4036C63.1249 19.8062 63.1314 20.2087 63.1393 20.6113C63.1412 20.7882 63.1431 20.9651 63.145 21.1474C63.1758 21.5101 63.2432 21.8001 63.355 22.106C63.427 22.3029 63.6386 22.4069 63.8429 22.36C64.1805 22.2934 64.3666 22.6867 64.0904 22.8918C63.9047 23.0297 63.7002 23.1364 63.4465 23.2164C63.3754 23.2388 63.3006 23.2468 63.2261 23.2434C62.982 23.2323 62.7757 23.214 62.5792 23.1604C62.1166 23.0343 61.7457 22.6468 61.6321 22.1809C61.5663 21.9114 61.5654 21.6295 61.5537 21.2577C61.5489 21.1434 61.5441 21.0291 61.5391 20.9114C61.524 20.5467 61.5126 20.1821 61.502 19.8173C61.5097 17.8197 61.5113 17.4185 60.9675 16.2446C60.6471 15.553 60.0404 14.9934 59.2782 14.9986C59.1423 14.9991 59.0064 14.9996 58.8663 15.0001C58.7249 15.0015 58.5835 15.0028 58.4378 15.0042C58.223 15.0053 58.223 15.0053 58.0039 15.0064C57.9583 15.0067 57.9126 15.0069 57.8669 15.0072C57.468 15.0096 57.2155 14.5396 57.6004 14.4347C57.6266 14.4276 57.6638 14.42 57.6908 14.4172C58.3811 14.3459 58.9075 14.2917 59.3252 14.2605Z" fill="#CDA98A"/>
<path d="M64.2521 14.3685C64.8048 14.3685 65.3575 14.3685 65.9269 14.3685C66.2061 15.1413 66.4852 15.9142 66.7642 16.6871C66.8591 16.9501 66.9541 17.213 67.0491 17.4759C67.1856 17.8538 67.322 18.2317 67.4584 18.6096C67.5009 18.7272 67.5434 18.8447 67.5872 18.9659C67.7518 19.4224 67.9127 19.8782 68.0585 20.342C68.3703 19.4834 68.6685 18.6428 68.8388 17.7387C68.9047 17.429 68.9047 17.429 68.972 17.1131C69.0725 17.0598 69.173 17.0065 69.2765 16.9516C69.3147 17.8375 69.1918 18.5501 68.9435 19.3935C68.9097 19.5119 68.8759 19.6303 68.8411 19.7523C68.5272 20.8304 68.1566 21.8806 67.754 22.9251C67.6032 22.9251 67.4525 22.9251 67.2972 22.9251C67.1913 22.637 67.1913 22.637 67.0832 22.3431C66.8188 21.6239 66.5544 20.9048 66.2898 20.1857C66.1758 19.8757 66.0618 19.5657 65.9479 19.2557C65.7831 18.8076 65.6183 18.3595 65.4535 17.9115C65.3783 17.7068 65.3783 17.7068 65.3015 17.498C65.2284 17.2994 65.2284 17.2994 65.1539 17.0968C65.1064 16.9678 65.059 16.8388 65.0101 16.7059C64.9046 16.4226 64.7973 16.1401 64.6888 15.8582C64.6329 15.7131 64.5771 15.568 64.5196 15.4185C64.4684 15.2869 64.4172 15.1553 64.3645 15.0197C64.2521 14.6914 64.2521 14.6914 64.2521 14.3685Z" fill="#BE9475"/>
<path d="M23.1429 25.0238C23.9971 25.0238 24.8512 25.0238 25.7313 25.0238C25.7313 26.7287 25.7313 28.4335 25.7313 30.19C25.9323 30.2433 26.1332 30.2966 26.3403 30.3515C25.2852 30.3515 24.23 30.3515 23.1429 30.3515C23.1429 28.5933 23.1429 26.8352 23.1429 25.0238Z" fill="#BA8E6F"/>
<path d="M23.2952 22.1178C23.4459 22.1711 23.5967 22.2244 23.752 22.2792C23.6884 22.3409 23.6248 22.4027 23.5592 22.4662C22.0271 23.9439 22.0271 23.9439 20.6224 25.5542C18.002 28.8509 14.1556 30.8492 10.1436 31.2861C7.63927 31.4997 4.88742 31.473 2.4361 30.8358C2.33562 30.7292 2.23513 30.6227 2.13159 30.5129C2.22771 30.5241 2.32384 30.5353 2.42287 30.5468C3.82501 30.6914 5.22229 30.7099 6.62976 30.7131C7.03898 30.7147 7.44807 30.7197 7.85726 30.7248C9.95966 30.7386 11.9692 30.5328 13.96 29.7561C14.0667 29.7151 14.1734 29.674 14.2833 29.6318C17.3436 28.3984 19.7259 25.7524 21.9949 23.335C22.2577 23.0565 22.5236 22.7842 22.8004 22.5214C22.8844 22.4398 22.9684 22.3582 23.0549 22.2742C23.1342 22.2226 23.2135 22.171 23.2952 22.1178Z" fill="#E1E0E0"/>
<path d="M22.7206 22.1738C22.8097 22.2086 22.8989 22.2434 22.9907 22.2792C18.1819 26.4467 13.7536 29.2451 7.32873 28.6858C4.41477 28.3196 4.41477 28.3196 3.19737 27.7683C3.57099 27.5703 3.71468 27.6182 4.12161 27.6914C4.24566 27.713 4.3697 27.7347 4.4975 27.757C4.62743 27.7807 4.75736 27.8044 4.89122 27.8289C9.59153 28.6647 14.3335 28.4062 18.3585 25.374C19.0564 24.8281 19.743 24.2679 20.4255 23.7007C20.5499 23.5976 20.6743 23.4946 20.8025 23.3884C21.0398 23.19 21.2752 22.9892 21.5086 22.7858C21.6679 22.6506 21.6679 22.6506 21.8303 22.5126C21.9225 22.4323 22.0146 22.352 22.1096 22.2692C22.3816 22.1178 22.3816 22.1178 22.7206 22.1738Z" fill="#DAD8D8"/>
<path d="M56.9438 15.0143C56.9438 17.6248 56.9438 20.2354 56.9438 22.925C56.6926 22.925 56.4414 22.925 56.1825 22.925C56.1825 20.3678 56.1825 17.8105 56.1825 15.1757C56.487 15.0143 56.487 15.0143 56.9438 15.0143Z" fill="#D0AD8E"/>
<path d="M86.0247 9.36377C86.4882 9.49483 86.8523 9.61073 87.2237 9.93891C87.3335 10.191 87.3985 10.4347 87.4303 10.6803C87.5249 11.4114 87.2683 12.1372 86.9222 12.7881C86.7422 13.1698 86.7279 13.465 86.786 13.8842C86.8363 13.9908 86.8865 14.0973 86.9383 14.2071C86.3405 13.9958 85.964 13.7634 85.568 13.2384C85.2627 12.3087 85.6893 11.5812 86.02 10.7159C86.1787 10.1649 86.1868 9.9039 86.0247 9.36377Z" fill="#C7A182"/>
<path d="M26.7971 25.6696C27.0483 25.6696 27.2995 25.6696 27.5584 25.6696C28.3031 27.1179 28.8366 28.6505 29.3854 30.19C29.1342 30.19 28.883 30.19 28.6242 30.19C28.3177 29.5588 28.0139 28.9261 27.7106 28.2931C27.6235 28.1137 27.5363 27.9343 27.4466 27.7495C27.3641 27.5767 27.2817 27.404 27.1968 27.226C27.1202 27.0671 27.0437 26.9081 26.9648 26.7444C26.7971 26.3154 26.7971 26.3154 26.7971 25.6696Z" fill="#EDEAE9"/>
<path d="M56.3348 10.171C56.5357 10.171 56.7367 10.171 56.9438 10.171C56.9438 11.716 56.9438 13.261 56.9438 14.8528C56.6926 14.9061 56.4413 14.9594 56.1825 15.0143C56.1788 14.3505 56.176 13.6867 56.1741 13.0228C56.1734 12.7969 56.1723 12.5709 56.171 12.3449C56.1692 12.0207 56.1684 11.6965 56.1676 11.3723C56.1668 11.177 56.166 10.9817 56.1652 10.7805C56.1825 10.3324 56.1825 10.3324 56.3348 10.171Z" fill="#D0AC8D"/>
<path d="M20.7068 22.1179C17.1885 24.1171 13.0978 25.2871 9.11633 24.0754C8.58987 23.898 8.22584 23.7351 7.76506 23.4094C8.38304 23.4852 8.99424 23.568 9.60522 23.6926C13.2912 24.4404 16.6792 24.0506 19.9848 22.0737C20.2501 21.9564 20.2501 21.9564 20.7068 22.1179Z" fill="#D9D7D7"/>
<path d="M26.1881 25.9925C26.2885 25.9925 26.389 25.9925 26.4926 25.9925C26.4926 27.3777 26.4926 28.7629 26.4926 30.19C26.2413 30.19 25.9901 30.19 25.7313 30.19C25.718 29.6418 25.7099 29.0937 25.7027 28.5453C25.6989 28.3904 25.6951 28.2354 25.6911 28.0758C25.6767 26.6055 25.6767 26.6055 26.1881 25.9925Z" fill="#EBE6E4"/>
<path d="M2.13159 30.5129C2.24171 30.5244 2.35182 30.5359 2.46527 30.5477C3.59202 30.6573 4.70468 30.696 5.8357 30.6901C6.09035 30.6898 6.09035 30.6898 6.35015 30.6895C6.88523 30.6886 7.42031 30.6865 7.95539 30.6845C8.32116 30.6837 8.68693 30.6829 9.0527 30.6823C9.94305 30.6805 10.8334 30.6778 11.7237 30.6744C11.7237 30.7277 11.7237 30.7809 11.7237 30.8358C8.71639 31.4051 5.42669 31.6317 2.4361 30.8358C2.33562 30.7293 2.23513 30.6227 2.13159 30.5129Z" fill="#D7D5D5"/>
<path d="M22.7337 22.1582C22.8185 22.1981 22.9033 22.2381 22.9907 22.2793C22.0732 23.0743 21.1387 23.8433 20.193 24.6C20.088 24.6846 19.983 24.7691 19.8748 24.8562C19.7243 24.976 19.7243 24.976 19.5709 25.0982C19.4817 25.1695 19.3925 25.2407 19.3006 25.3141C19.0187 25.5178 18.7311 25.6765 18.423 25.831C18.6229 25.1749 18.835 24.8708 19.3633 24.4733C19.5524 24.3286 19.5524 24.3286 19.7454 24.181C19.8774 24.0828 20.0094 23.9847 20.1454 23.8836C20.405 23.6868 20.6645 23.4898 20.9239 23.2927C21.0459 23.2015 21.1679 23.1103 21.2936 23.0164C21.6474 22.7505 21.6474 22.7505 22.0551 22.3606C22.3816 22.1178 22.3816 22.1178 22.7337 22.1582Z" fill="#E0DEDE"/>
<path d="M5.17671 25.5082C5.99332 25.5981 6.80124 25.7082 7.61147 25.8479C9.18478 26.1178 10.7407 26.2563 12.3328 26.3154C12.3328 26.3687 12.3328 26.422 12.3328 26.4768C9.9052 26.7117 7.4515 26.7422 5.17671 25.6696C5.17671 25.6163 5.17671 25.5631 5.17671 25.5082Z" fill="#DFDFDE"/>
<path d="M23.1429 24.8624C24.2483 24.8624 25.3537 24.8624 26.4926 24.8624C26.4926 25.9925 26.4926 25.9925 26.2832 26.2851C26.2016 26.3484 26.1199 26.4116 26.0358 26.4768C25.9353 26.5834 25.8348 26.6899 25.7313 26.7997C25.7313 26.2137 25.7313 25.6276 25.7313 25.0238C24.8771 25.0238 24.023 25.0238 23.1429 25.0238C23.1429 24.9705 23.1429 24.9173 23.1429 24.8624Z" fill="#C2BBB6"/>
<path d="M85.8725 11.3011C85.9227 11.3011 85.9729 11.3011 86.0247 11.3011C86.0247 12.047 86.0247 12.7928 86.0247 13.5613C85.5679 13.2384 85.5679 13.2384 85.4347 12.8853C85.408 12.249 85.6092 11.8705 85.8725 11.3011Z" fill="#BD9273"/>
<path d="M26.9493 24.7009C27.1503 24.7009 27.3513 24.7009 27.5584 24.7009C27.5584 25.0206 27.5584 25.3402 27.5584 25.6696C27.3071 25.6696 27.0559 25.6696 26.7971 25.6696C26.7906 25.4006 26.7909 25.1314 26.7971 24.8624C26.8473 24.8091 26.8976 24.7558 26.9493 24.7009Z" fill="#A09F9F"/>
<path d="M31.2125 8.0722C31.3632 8.12548 31.514 8.17876 31.6693 8.23365C31.6693 8.60658 31.6693 8.97952 31.6693 9.36376C31.7698 9.41703 31.8703 9.47031 31.9738 9.5252C31.8231 9.5252 31.6723 9.5252 31.517 9.5252C31.4668 9.20554 31.4165 8.88588 31.3648 8.55654C31.2643 8.55654 31.1638 8.55654 31.0603 8.55654C31.1105 8.39671 31.1607 8.23688 31.2125 8.0722Z" fill="#E6DDD6"/>
<path d="M26.3403 25.5082C26.3906 25.668 26.4408 25.8278 26.4926 25.9925C26.2388 26.2616 25.9851 26.5307 25.7313 26.7997C25.7313 26.4801 25.7313 26.1604 25.7313 25.8311C25.9323 25.7245 26.1332 25.618 26.3403 25.5082Z" fill="#C6C6C5"/>
<path d="M32.5828 8.0722C32.7335 8.12548 32.8843 8.17876 33.0396 8.23365C33.0396 8.3402 33.0396 8.44675 33.0396 8.55654C32.9391 8.55654 32.8386 8.55654 32.7351 8.55654C32.6848 8.76964 32.6346 8.98275 32.5828 9.20231C32.5326 9.20231 32.4823 9.20231 32.4306 9.20231C32.4241 8.8795 32.4243 8.55647 32.4306 8.23365C32.4808 8.18037 32.531 8.1271 32.5828 8.0722Z" fill="#E3DCD5"/>
</svg>
