<svg width="120" height="40" viewBox="0 0 120 40" fill="none" xmlns="http://www.w3.org/2000/svg">
<path d="M74.8237 26.1507L76.2411 26.5759C76.1466 26.9775 76.0048 27.3082 75.7922 27.568C75.5796 27.8279 75.3434 28.0405 75.0363 28.1586C74.7292 28.3003 74.3512 28.3712 73.8788 28.3712C73.3118 28.3712 72.863 28.3003 72.485 28.135C72.1307 27.9696 71.8236 27.6861 71.5637 27.2609C71.3039 26.8593 71.1621 26.316 71.1621 25.6782C71.1621 24.8278 71.3983 24.1663 71.8472 23.6939C72.296 23.2214 72.9575 23.0088 73.7843 23.0088C74.4457 23.0088 74.9418 23.1505 75.3198 23.4104C75.6977 23.6702 75.9812 24.0718 76.1466 24.6388L74.7292 24.9459C74.6819 24.7805 74.6347 24.6624 74.5638 24.5915C74.4693 24.4734 74.3748 24.3789 74.2331 24.3081C74.0914 24.2372 73.9496 24.2136 73.8079 24.2136C73.4535 24.2136 73.1701 24.3553 72.9811 24.6624C72.8393 24.875 72.7685 25.2294 72.7685 25.6782C72.7685 26.2451 72.863 26.6467 73.0283 26.8593C73.1937 27.0719 73.4535 27.1901 73.7606 27.1901C74.0677 27.1901 74.304 27.0956 74.4457 26.9302C74.6347 26.7176 74.7528 26.4814 74.8237 26.1507Z" fill="#225E63"/>
<path d="M76.8096 25.6781C76.8096 24.8277 77.0458 24.1663 77.5183 23.6938C77.9907 23.2213 78.6522 22.9851 79.5026 22.9851C80.3766 22.9851 81.0381 23.2213 81.5105 23.6702C81.983 24.1426 82.2192 24.7805 82.2192 25.6309C82.2192 26.2451 82.1247 26.7412 81.9121 27.1191C81.6995 27.4971 81.4161 27.8042 81.0145 28.0168C80.6365 28.2294 80.1404 28.3475 79.5735 28.3475C78.9829 28.3475 78.5104 28.253 78.1088 28.064C77.7309 27.8751 77.4238 27.5916 77.1639 27.1664C76.9041 26.7412 76.8096 26.2923 76.8096 25.6781ZM78.4159 25.6781C78.4159 26.1978 78.5104 26.5758 78.6994 26.812C78.8884 27.0483 79.1482 27.1664 79.5026 27.1664C79.8569 27.1664 80.1168 27.0483 80.3058 26.8357C80.4948 26.5994 80.5892 26.1978 80.5892 25.6309C80.5892 25.1348 80.4948 24.7805 80.2822 24.5679C80.0932 24.3316 79.8097 24.2371 79.479 24.2371C79.1483 24.2371 78.8884 24.3552 78.6994 24.5915C78.5104 24.7805 78.4159 25.1584 78.4159 25.6781Z" fill="#225E63"/>
<path d="M83.0463 23.0796H85.1487L85.9519 26.2451L86.7551 23.0796H88.8575V28.2766H87.5346V24.308L86.5188 28.2766H85.3377L84.3219 24.308V28.2766H82.999V23.0796H83.0463Z" fill="#225E63"/>
<path d="M89.8975 23.0796H92.5669C93.1574 23.0796 93.5827 23.2213 93.8661 23.5048C94.1496 23.7883 94.2913 24.1662 94.2913 24.6859C94.2913 25.2057 94.126 25.6309 93.8189 25.9143C93.5118 26.2214 93.0157 26.3632 92.3779 26.3632H91.5038V28.3003H89.8975V23.0796ZM91.5038 25.3001H91.9054C92.2125 25.3001 92.4251 25.2529 92.5669 25.1348C92.685 25.0167 92.7558 24.8986 92.7558 24.7332C92.7558 24.5678 92.7086 24.4261 92.5905 24.308C92.4724 24.1899 92.2834 24.1426 91.9763 24.1426H91.5275V25.3001H91.5038Z" fill="#225E63"/>
<path d="M95.1416 23.0796H96.748V27.001H99.252V28.2766H95.1416V23.0796Z" fill="#225E63"/>
<path d="M100.054 23.0796H101.66V28.2766H100.054V23.0796Z" fill="#225E63"/>
<path d="M106.008 27.4025H104.189L103.929 28.253H102.299L104.26 23.0559H106.008L107.968 28.253H106.291L106.008 27.4025ZM105.677 26.2923L105.11 24.426L104.543 26.2923H105.677Z" fill="#225E63"/>
<path d="M108.465 23.0796H109.953L111.914 25.9616V23.0796H113.426V28.2766H111.914L109.977 25.4183V28.2766H108.465V23.0796Z" fill="#225E63"/>
<path d="M114.133 23.0796H119.023V24.3552H117.393V28.2766H115.786V24.3552H114.156V23.0796H114.133Z" fill="#225E63"/>
<path d="M56.8264 26.1516L60.2405 25.0771L59.1313 22.6162C58.3168 23.6387 57.5023 24.9558 56.8264 26.1516ZM55.6652 14.9041L48.9757 0L0 2.77286L13.5697 39.7906L39.6866 31.5586C38.0229 29.1671 37.4163 26.3249 39.34 24.9384C41.489 23.3787 44.7297 25.1811 46.7921 27.7286C48.7851 24.4012 54.3828 16.6545 55.6652 14.9041Z" fill="#225E63"/>
<path d="M47.4499 10.7708C49.4949 10.7708 51.1586 9.21103 51.1586 7.27003C51.1586 5.32902 49.4949 3.76929 47.4499 3.76929C45.4049 3.76929 43.7412 5.32902 43.7412 7.27003C43.7412 9.1937 45.4049 10.7708 47.4499 10.7708ZM44.4171 12.2785H50.4827V28.1358H44.4171V12.2785Z" fill="#FEFEFE"/>
<path d="M41.4192 16.9058C41.4712 16.9231 41.5059 16.9058 41.5059 16.8538V12.8332C41.5059 12.7812 41.4712 12.7292 41.4192 12.6945C41.4192 12.6945 40.622 12.1746 38.1958 12.036C38.0744 11.9666 35.9428 11.9493 35.3709 12.036C26.5324 12.7465 26.2031 19.1414 26.2031 19.4187V20.9784C26.2031 21.1691 26.2031 27.7026 35.3709 28.2745C36.2721 28.3439 38.0225 28.2745 38.1958 28.2745C40.3101 28.2745 41.7658 27.6333 41.7658 27.6333C41.8178 27.616 41.8525 27.564 41.8525 27.512V23.7513C41.8525 23.6993 41.8178 23.682 41.7831 23.7167C41.7831 23.7167 41.1246 24.2366 38.2477 24.5312C37.4332 24.6178 37.0346 24.5832 36.74 24.5312C32.65 23.838 32.4594 20.8571 32.4594 20.8571C32.4594 20.8051 32.4421 20.7185 32.4421 20.6838V19.54C32.4421 19.488 32.4421 19.4014 32.4594 19.3667C32.4594 19.3667 32.7367 16.1606 36.74 15.814H38.2477C39.9981 16.0393 41.4192 16.9058 41.4192 16.9058Z" fill="#FEFEFE"/>
<path d="M9.35742 28.0839C9.35742 28.1359 9.39208 28.1705 9.44407 28.1705H15.3537C15.4057 28.1705 15.4404 28.1359 15.4404 28.0839V23.474C15.4404 23.422 15.4751 23.3873 15.527 23.3873C15.527 23.3873 24.9721 24.0632 24.9721 17.7376C24.9721 12.7291 19.0451 12.1919 17.1041 12.2785C17.0694 12.2785 9.44407 12.2785 9.44407 12.2785C9.39208 12.2785 9.35742 12.3132 9.35742 12.3652V28.0839ZM15.3364 19.8693V15.7273H16.7922C16.7922 15.7273 18.8891 15.8139 19.0624 17.2524C19.0971 17.3563 19.0971 18.0669 19.0624 18.1016C18.7852 19.7826 16.9655 19.8693 16.9655 19.8693H15.3364Z" fill="#FEFEFE"/>
<path d="M47.6235 35.7872C48.1087 35.7872 48.49 35.7872 49.1139 35.5099C51.2629 34.3834 58.5243 16.6544 66.1843 11.1954C66.2363 11.1607 66.2883 11.1087 66.323 11.0567C66.375 10.9874 66.375 10.9181 66.375 10.9181C66.375 10.9181 66.375 10.5541 65.2485 10.5541C58.4376 10.3635 51.3495 24.6611 47.6235 30.3108C47.5715 30.3801 47.3288 30.3108 47.3288 30.3108C47.3288 30.3108 44.8333 27.3646 42.667 26.2381C42.615 26.2208 42.3724 26.1342 42.1124 26.1515C41.9391 26.1515 40.9339 26.3595 40.466 26.8447C39.9114 27.4339 39.9288 27.7632 39.9288 28.4738C39.9288 28.5258 39.9634 28.7684 40.0328 28.8897C40.57 29.8255 42.9789 33.153 44.9719 34.99C45.2665 35.2153 45.7345 35.7872 47.6235 35.7872Z" fill="#2BBC5D"/>
<path d="M71 3.30713H78.7247C80.2602 3.30713 81.4886 3.51974 82.4099 3.92133C83.3548 4.34654 84.1344 4.93712 84.725 5.69305C85.3392 6.47261 85.788 7.37028 86.0478 8.38607C86.3313 9.40186 86.4731 10.4885 86.4731 11.646C86.4731 13.4414 86.2605 14.8351 85.8589 15.8273C85.4573 16.8195 84.8903 17.6463 84.158 18.3313C83.4257 18.9928 82.6461 19.4416 81.8193 19.6779C80.6854 19.985 79.646 20.1267 78.7247 20.1267H71V3.30713ZM76.1971 7.11043V16.2998H77.4727C78.5594 16.2998 79.3389 16.1817 79.7878 15.9454C80.2366 15.7092 80.6146 15.284 80.8744 14.6934C81.1343 14.1028 81.276 13.1107 81.276 11.7642C81.276 9.96881 80.9925 8.76403 80.402 8.10259C79.8114 7.44115 78.8665 7.11043 77.4963 7.11043H76.1971Z" fill="#225E63"/>
<path d="M87.9121 14.5753L92.8729 14.2682C92.9911 15.0713 93.2037 15.6855 93.5344 16.1108C94.0777 16.7958 94.8337 17.1265 95.8258 17.1265C96.5581 17.1265 97.1487 16.9612 97.5503 16.6068C97.9519 16.2525 98.1645 15.8509 98.1645 15.4021C98.1645 14.9769 97.9755 14.5753 97.5975 14.2209C97.2196 13.8666 96.3219 13.5595 94.9281 13.2524C92.6367 12.7327 91.0303 12.0476 90.0382 11.1972C89.046 10.3467 88.5736 9.26009 88.5736 7.93721C88.5736 7.06316 88.8334 6.25998 89.3295 5.48042C89.8256 4.70086 90.5815 4.11028 91.5973 3.66144C92.6131 3.21261 93.9832 3 95.7313 3C97.881 3 99.5346 3.40159 100.645 4.20477C101.779 5.00796 102.44 6.2836 102.653 8.0317L97.7393 8.31518C97.5975 7.55924 97.3377 7.01591 96.9125 6.66157C96.4873 6.30722 95.9203 6.14186 95.188 6.14186C94.5738 6.14186 94.125 6.25997 93.8179 6.51983C93.5108 6.77968 93.369 7.08678 93.369 7.46475C93.369 7.7246 93.4871 7.98445 93.747 8.19706C93.9832 8.40967 94.5738 8.62227 95.4951 8.81125C97.7629 9.30733 99.3929 9.80342 100.385 10.2995C101.377 10.7956 102.086 11.4334 102.535 12.1657C102.984 12.898 103.196 13.7485 103.196 14.6698C103.196 15.7564 102.889 16.7486 102.299 17.6463C101.708 18.5676 100.858 19.2526 99.7945 19.7251C98.7314 20.1975 97.3613 20.4338 95.7313 20.4338C92.8729 20.4338 90.8886 19.8904 89.7783 18.7802C88.6917 17.6699 88.0775 16.2761 87.9121 14.5753Z" fill="#225E63"/>
<path d="M104.52 14.5753L109.48 14.2682C109.598 15.0713 109.811 15.6855 110.142 16.1108C110.685 16.7958 111.441 17.1265 112.433 17.1265C113.166 17.1265 113.756 16.9612 114.158 16.6068C114.559 16.2525 114.772 15.8509 114.772 15.4021C114.772 14.9769 114.583 14.5753 114.205 14.2209C113.827 13.8666 112.929 13.5595 111.536 13.2524C109.244 12.7327 107.638 12.0476 106.646 11.1972C105.677 10.3467 105.181 9.26009 105.181 7.93721C105.181 7.06316 105.441 6.25998 105.937 5.48042C106.433 4.70086 107.189 4.11028 108.205 3.66144C109.22 3.21261 110.591 3 112.339 3C114.488 3 116.142 3.40159 117.252 4.20477C118.386 5.00796 119.048 6.2836 119.26 8.0317L114.347 8.31518C114.205 7.55924 113.945 7.01591 113.52 6.66157C113.095 6.30722 112.528 6.14186 111.795 6.14186C111.181 6.14186 110.732 6.25997 110.425 6.51983C110.118 6.77968 109.976 7.08678 109.976 7.46475C109.976 7.7246 110.095 7.98445 110.354 8.19706C110.591 8.40967 111.181 8.62227 112.103 8.81125C114.37 9.30733 116 9.80342 116.992 10.2995C117.985 10.7956 118.693 11.4334 119.142 12.1657C119.591 12.898 119.804 13.7485 119.804 14.6698C119.804 15.7564 119.496 16.7486 118.906 17.6463C118.315 18.5676 117.465 19.2526 116.402 19.7251C115.339 20.1975 113.969 20.4338 112.339 20.4338C109.48 20.4338 107.496 19.8904 106.386 18.7802C105.275 17.6699 104.661 16.2761 104.52 14.5753Z" fill="#225E63"/>
</svg>
