<svg width="30" height="30" viewBox="0 0 30 30" fill="none" xmlns="http://www.w3.org/2000/svg">
<g clip-path="url(#clip0_24_135)">
<path d="M30 15C30 23.284 23.284 30 15 30C6.71602 30 0 23.284 0 15C0 6.71543 6.71602 0 15 0C23.284 0 30 6.71543 30 15Z" fill="#FF6255"/>
<path d="M16.9998 15H12.75V10.5H16.9998C18.2426 10.5 19.2498 11.5072 19.2498 12.75C19.2498 13.9928 18.2426 15 16.9998 15ZM16.9998 7.5H9.75V22.5H12.75V18H16.9998C19.8996 18 22.2498 15.6492 22.2498 12.75C22.2498 9.8502 19.8996 7.5 16.9998 7.5Z" fill="white"/>
</g>
<defs>
<clipPath id="clip0_24_135">
<rect width="30" height="30" fill="white"/>
</clipPath>
</defs>
</svg>
