<svg width="579" height="498" viewBox="0 0 579 498" fill="none" xmlns="http://www.w3.org/2000/svg">
<path d="M555.136 41.866C565.776 23.1998 552.296 0 530.81 0H300.137C290.078 0 280.792 5.39535 275.811 14.134L23.8643 456.134C13.2243 474.8 26.7041 498 48.1899 498H278.863C288.922 498 298.208 492.605 303.189 483.866L555.136 41.866Z" fill="#185BF5"/>
<path d="M23.8127 41.8479C13.1911 23.1818 26.6721 0 48.1486 0H278.34C288.406 0 297.697 5.40327 302.676 14.1521L554.187 456.152C564.809 474.818 551.328 498 529.851 498H299.66C289.594 498 280.303 492.597 275.324 483.848L23.8127 41.8479Z" fill="url(#paint0_linear_88_2)"/>
<defs>
<linearGradient id="paint0_linear_88_2" x1="83.214" y1="4.43088e-06" x2="578.836" y2="248.828" gradientUnits="userSpaceOnUse">
<stop stop-color="#00FFFF"/>
<stop offset="0.5" stop-color="#15E89D"/>
<stop offset="0.759615" stop-color="#56FFA1"/>
<stop offset="1" stop-color="#04E573"/>
</linearGradient>
</defs>
</svg>
