<svg width="131" height="26" viewBox="0 0 131 26" fill="none" xmlns="http://www.w3.org/2000/svg">
<g clip-path="url(#clip0_24_96)">
<path d="M0 0H26.2692V26H0V0Z" fill="#FC6723"/>
<path d="M7.80368 6.4791C7.91925 6.45357 8.03424 6.42455 8.15333 6.42107C8.71769 6.40946 9.28146 6.44428 9.84524 6.46169C9.93441 6.44776 9.9655 6.52959 9.99835 6.59343C10.8578 8.33566 11.7049 10.0849 12.5726 11.8236C12.7592 12.1846 12.9263 12.556 13.1375 12.9042C13.3153 12.6187 13.4596 12.314 13.6163 12.0169C14.5907 10.1603 15.5123 8.27647 16.4715 6.41236C17.1063 6.43151 17.7475 6.36941 18.377 6.47214C18.2626 6.8279 18.0566 7.14419 17.8936 7.47906C16.6346 9.86549 15.3416 12.2339 14.0709 14.614C14.025 14.7062 14.0034 14.8084 14.0081 14.9111C14.0105 16.6121 14.0081 18.3137 14.0093 20.0148C13.3963 20.0154 12.7832 20.0188 12.1702 20.0125C12.1766 18.352 12.1684 16.6916 12.1743 15.0312C12.1719 14.8531 12.1948 14.6621 12.0951 14.5037C10.9241 12.3308 9.74903 10.1603 8.58452 7.98455C8.32698 7.48138 8.036 6.99446 7.80368 6.4791Z" fill="#FFFEFE"/>
<path d="M102.313 9.47739C102.742 9.48027 103.177 9.46222 103.604 9.52719C104.67 9.72693 105.582 10.6759 105.61 11.7704C105.667 13.3982 105.599 15.0277 105.616 16.6561C105.628 17.1401 105.61 17.6333 105.73 18.1063C105.802 18.4251 106.102 18.6014 106.333 18.8026C106.106 19.1096 105.92 19.4564 105.625 19.7059C105.453 19.8475 105.24 19.6931 105.095 19.5887C104.713 19.3084 104.453 18.901 104.242 18.4862C103.903 18.669 103.643 18.9604 103.313 19.1571C102.738 19.518 102.059 19.7324 101.375 19.7225C100.761 19.7364 100.132 19.636 99.5796 19.3651C98.6821 18.8962 98.1827 17.8732 98.2085 16.8895C98.2009 15.9441 98.6863 15.0234 99.4536 14.4657C100.372 13.7875 101.539 13.5645 102.66 13.4832C103.172 13.4386 103.687 13.436 104.201 13.4139C104.221 12.9177 104.183 12.4205 104.112 11.9295C104.051 11.5125 103.85 11.0853 103.463 10.8758C102.999 10.6338 102.45 10.6285 101.943 10.701C100.986 10.8165 100.087 11.2206 99.3081 11.7723C99.1005 11.4792 98.8792 11.1929 98.7027 10.8807C98.617 10.7249 98.756 10.6018 98.8872 10.5379C99.9379 9.96512 101.09 9.46869 102.313 9.47739ZM110.924 6.85434C110.848 7.80196 110.777 8.7505 110.744 9.70102C111.561 9.72017 112.379 9.71971 113.196 9.75278C113.054 10.1159 112.904 10.4758 112.746 10.8319C112.057 10.8342 111.368 10.8296 110.68 10.8348C110.678 11.7116 110.688 12.5879 110.688 13.4647C110.68 14.1611 110.729 14.8566 110.718 15.5536C110.737 16.3428 110.696 17.1363 110.787 17.9227C110.81 18.2499 111.107 18.4807 111.406 18.5643C111.904 18.6774 112.426 18.637 112.919 18.5174C113.052 18.802 113.113 19.1145 113.096 19.4276C112.648 19.6585 112.135 19.7034 111.64 19.7469C110.942 19.7748 110.163 19.6654 109.662 19.1356C109.249 18.7561 109.28 18.1525 109.233 17.6424C109.182 16.5219 109.203 15.3989 109.197 14.2772C109.194 13.1298 109.2 11.9822 109.194 10.8348C108.758 10.829 108.323 10.8334 107.888 10.8329C107.872 10.458 107.875 10.0827 107.886 9.70786C108.314 9.70438 108.741 9.71319 109.168 9.70102C109.234 8.87524 109.248 8.04327 109.383 7.22446C109.887 7.06428 110.404 6.94662 110.924 6.85434ZM49.69 9.47641C50.0962 9.48973 50.5132 9.46711 50.9048 9.59457C51.804 9.90037 52.5956 10.5182 53.0767 11.3329C53.4862 12.0357 53.7743 12.8249 53.8072 13.6414C53.8582 14.7382 53.8955 15.8668 53.5484 16.9247C53.2251 17.9171 52.5171 18.8021 51.5708 19.2762C50.6299 19.7572 49.5036 19.847 48.4859 19.576C47.5707 19.3381 46.7765 18.741 46.2515 17.9686C45.6679 17.1406 45.4709 16.1155 45.4351 15.1239C45.4116 14.1645 45.3927 13.1769 45.7154 12.2577C46.0198 11.3512 46.6084 10.5228 47.4331 10.0116C47.812 9.78183 48.2211 9.58403 48.6597 9.49985C49.0011 9.4569 49.3468 9.47351 49.69 9.47641ZM118.235 9.49887C118.845 9.41491 119.466 9.4323 120.071 9.54965C120.972 9.76348 121.766 10.2917 122.304 11.0379C122.737 11.6357 123.019 12.3361 123.153 13.0575C123.257 13.7487 123.296 14.4479 123.271 15.1463C123.244 16.2814 122.891 17.4233 122.191 18.3309C121.625 19.0575 120.748 19.4938 119.847 19.6551C118.754 19.8443 117.566 19.6526 116.652 19.0096C115.85 18.4445 115.339 17.5601 115.061 16.6405C114.911 16.1768 114.884 15.6866 114.849 15.2049C114.834 14.3937 114.818 13.5723 114.984 12.7733C115.211 11.8675 115.663 10.9968 116.364 10.3602C116.881 9.88647 117.535 9.58514 118.235 9.49887ZM73.5679 5.14926C73.8101 5.16028 73.847 5.44166 73.8687 5.6268C73.9273 6.49692 73.9581 7.36901 73.9605 8.24106C73.9992 9.07096 73.9939 9.90218 74.0103 10.7332C74.4843 10.3729 74.9489 9.98364 75.5103 9.76254C76.4084 9.37199 77.486 9.36692 78.3618 9.82016C79.3033 10.2861 79.9606 11.1857 80.2915 12.1571C80.6013 13.0786 80.6758 14.066 80.6236 15.0311C80.5397 16.1587 80.2301 17.3002 79.5542 18.2264C79.1542 18.7631 78.6281 19.2337 77.9859 19.4618C76.957 19.8341 75.7558 19.7009 74.8326 19.119C74.5398 18.9379 74.293 18.6957 74.0249 18.4832C73.917 18.8168 73.8359 19.1587 73.731 19.494C73.2376 19.4992 72.7392 19.5335 72.2505 19.4539C72.4476 18.6734 72.4524 17.865 72.4742 17.0653C72.5105 14.2593 72.4712 11.4523 72.4595 8.64633C72.3968 7.55656 72.489 6.45457 72.2837 5.37582C72.7053 5.27604 73.1305 5.14411 73.5679 5.14926ZM39.7173 5.83286C40.6483 5.81603 41.6138 5.88103 42.4702 6.27328C42.8211 6.4323 43.1748 6.59996 43.4663 6.85532C43.2534 7.21914 42.9723 7.53662 42.7066 7.86215C42.3658 7.66196 42.0292 7.44628 41.6509 7.31918C40.7287 6.99711 39.6801 6.92805 38.7603 7.29477C37.9907 7.58434 37.3621 8.17611 36.9673 8.88461C36.6945 9.3837 36.4659 9.91364 36.3521 10.4725C36.2506 11.0179 36.2183 11.5733 36.2095 12.1268C36.1796 12.8627 36.1448 13.6015 36.19 14.3368C36.3208 15.3587 36.6798 16.3878 37.3843 17.1649C38.0015 17.8669 38.9134 18.2787 39.8413 18.3709C40.3298 18.3976 40.8289 18.4044 41.3062 18.2821C41.8869 18.1562 42.4013 17.854 42.938 17.6161C43.2513 17.9236 43.524 18.2697 43.7798 18.6248C43.3794 18.8478 42.9654 19.0463 42.5406 19.2196C41.3955 19.6786 40.1255 19.6886 38.9136 19.5731C38.0418 19.3938 37.2324 18.9578 36.5601 18.3856C35.7847 17.7183 35.2165 16.8329 34.8745 15.8778C34.644 15.2343 34.5313 14.5551 34.4702 13.8768C34.4462 13.3725 34.3894 12.866 34.4468 12.3612C34.4644 11.4055 34.6211 10.4414 35.0064 9.55942C35.4704 8.45268 36.1675 7.40241 37.1783 6.71469C37.9284 6.21803 38.8029 5.84456 39.7173 5.83286ZM66.4644 9.46176C67.1314 9.38632 67.8298 9.60759 68.3179 10.0672C68.5383 10.2766 68.773 10.4892 68.8951 10.7733C69.0136 11.0507 69.0501 11.3545 69.0777 11.6522C69.1938 13.2208 69.1141 14.7957 69.1763 16.3661C69.1763 17.4101 69.1835 18.4538 69.1841 19.4979C68.6562 19.5054 68.1285 19.5085 67.6011 19.494C67.6029 17.9288 67.6021 16.3638 67.6021 14.7987C67.5974 13.7926 67.6209 12.7848 67.5376 11.7811C67.5161 11.6211 67.4623 11.4665 67.3784 11.328C67.2946 11.1895 67.1827 11.0698 67.0503 10.9754C66.7424 10.7747 66.3548 10.7965 66.0034 10.8163C65.3798 10.8743 64.8577 11.2609 64.3872 11.6375C64.1645 11.8237 63.9332 11.9997 63.7163 12.1922C63.6489 12.245 63.6693 12.3406 63.6617 12.4149C63.6622 14.7751 63.6665 17.1361 63.6607 19.4969C63.1358 19.5056 62.6098 19.5083 62.0855 19.495C62.0861 17.6587 62.0863 15.8224 62.0845 13.9862C62.0804 13.5406 62.0941 13.0937 62.0572 12.6493C62.029 12.1961 62.0756 11.7095 61.8609 11.2928C61.5406 10.8445 60.9061 10.7508 60.397 10.8748C59.6033 11.0635 58.918 11.5475 58.3179 12.078C58.2208 12.1395 58.2306 12.2591 58.23 12.3582C58.2347 14.7365 58.2282 17.1157 58.2329 19.494C57.7725 19.5079 57.311 19.5083 56.8511 19.492C56.8077 17.0576 56.8379 14.6204 56.771 12.1854C56.757 11.6331 56.758 11.079 56.6841 10.5301C56.6395 10.2858 56.5578 10.0494 56.5161 9.80453C56.9714 9.65982 57.4365 9.54388 57.9068 9.45786C58.0991 9.89343 58.2165 10.358 58.2544 10.8319C58.5752 10.6671 58.8255 10.4028 59.1245 10.2049C59.8074 9.7215 60.6372 9.41407 61.4849 9.45004C61.6761 9.46281 61.8615 9.52298 62.0327 9.60825C62.3243 9.75275 62.6223 9.90184 62.8599 10.1288C63.1101 10.3625 63.2676 10.6708 63.44 10.9608C63.8222 10.7919 64.1185 10.4913 64.4615 10.2616C65.0569 9.85475 65.7358 9.532 66.4644 9.46176ZM90.9781 10.0858C91.7982 9.6041 92.8222 9.27468 93.7574 9.61996C94.3059 9.81148 94.8394 10.1196 95.1714 10.6053C95.443 10.957 95.5056 11.4118 95.5337 11.8407C95.6164 13.3669 95.5905 14.8963 95.6099 16.4237C95.6087 17.4474 95.6294 18.4709 95.6324 19.494C95.1073 19.5091 94.5812 19.5072 94.0562 19.495C94.0556 17.8137 94.0226 16.1319 94.0191 14.45C93.9962 13.5147 94.0455 12.5741 93.9312 11.6434C93.7892 11.1971 93.3532 10.8236 92.8687 10.8114C92.5108 10.7969 92.1398 10.7833 91.7984 10.9081C91.0475 11.1849 90.3712 11.6284 89.7593 12.1356C89.7417 14.5886 89.7585 17.0433 89.7515 19.4969C89.2916 19.5062 88.831 19.5085 88.3716 19.494C88.3699 18.103 88.3347 16.7122 88.3277 15.3211C88.3148 13.8895 88.3262 12.4571 88.2505 11.0272C88.2347 10.6239 88.101 10.241 88.0142 9.85043C88.4794 9.70536 88.9508 9.5355 89.4429 9.52621C89.6198 9.97505 89.7354 10.4456 89.7867 10.9247C90.2018 10.6705 90.5517 10.3248 90.9781 10.0858ZM84.8833 9.46274C84.9473 10.8335 84.9247 12.208 84.937 13.5799C84.9394 15.5518 84.938 17.5237 84.938 19.495C84.4147 19.5066 83.891 19.507 83.3677 19.4959C83.3513 16.6732 83.3656 13.8499 83.3609 11.0272C83.3638 10.5913 83.3515 10.1544 83.3726 9.7186C83.8782 9.64548 84.3818 9.55906 84.8833 9.46274ZM128.357 10.3856C129.041 9.71482 130.031 9.30877 131 9.48032V9.60043C130.787 10.0612 130.655 10.553 130.456 11.0184C130.427 11.1041 130.309 11.0765 130.242 11.0926C129.819 11.1025 129.37 11.0919 128.99 11.3026C128.616 11.5192 128.287 11.8043 128.019 12.1414C127.759 12.4658 127.809 12.9035 127.791 13.2899C127.766 13.851 127.754 14.4124 127.76 14.9735C127.758 16.481 127.761 17.988 127.758 19.495C127.234 19.5066 126.709 19.5066 126.184 19.495C126.176 17.8138 126.183 16.1321 126.18 14.451C126.171 13.309 126.189 12.1651 126.129 11.0243C126.118 10.6198 125.987 10.2319 125.953 9.8309C126.423 9.69974 126.892 9.5578 127.37 9.45102C127.621 9.92791 127.67 10.471 127.697 10.9989C127.94 10.8196 128.142 10.5956 128.357 10.3856ZM102.958 14.4354C102.472 14.4806 101.98 14.508 101.508 14.6385C100.943 14.7975 100.422 15.1496 100.122 15.6561C99.9498 15.9369 99.9513 16.2772 99.9331 16.5946C99.9249 16.9462 99.8787 17.3166 100.02 17.6502C100.16 17.9827 100.387 18.3088 100.735 18.451C101.137 18.6176 101.584 18.6342 102.013 18.5965C102.526 18.535 102.986 18.261 103.382 17.9471C103.714 17.6743 104.037 17.3182 104.06 16.869C104.126 16.0741 104.112 15.2746 104.122 14.4774C103.732 14.4896 103.347 14.4017 102.958 14.4354ZM50.8111 10.9588C50.238 10.6264 49.5313 10.5763 48.8931 10.7254C48.3657 10.8485 47.8673 11.1476 47.5757 11.6073C47.1611 12.263 47.1012 13.0613 47.0542 13.8133C47.0009 14.3732 47.0503 14.9349 47.1001 15.493C47.1828 16.1679 47.3129 16.8557 47.6431 17.4598C48.0039 18.0935 48.7438 18.4179 49.4536 18.4666C50.1306 18.5102 50.8665 18.3302 51.3482 17.8329C51.7377 17.4104 51.9619 16.8571 52.0406 16.2948C52.1403 15.5885 52.1242 14.8729 52.1118 14.162C52.0784 13.422 52.0263 12.6608 51.7242 11.9725C51.5408 11.5446 51.2196 11.1883 50.8111 10.9588ZM119.905 10.7997C119.407 10.6326 118.866 10.6453 118.352 10.7137C117.613 10.7939 117.017 11.3738 116.778 12.0487C116.482 12.7543 116.519 13.5298 116.502 14.2772C116.522 14.9833 116.521 15.694 116.651 16.3914C116.741 16.8592 116.895 17.3344 117.216 17.7C117.523 18.0645 117.97 18.294 118.434 18.3944C119.092 18.54 119.815 18.4664 120.403 18.1288C120.8 17.903 121.07 17.5111 121.241 17.0985C121.441 16.6094 121.464 16.0744 121.505 15.5545C121.536 14.9365 121.542 14.3162 121.506 13.6981C121.453 13.0517 121.381 12.3805 121.061 11.8026C120.785 11.3691 120.377 11.0103 119.905 10.7997ZM77.2378 10.9354C76.8121 10.842 76.3687 10.8531 75.937 10.8885C75.1498 10.9976 74.5215 11.5344 74.0064 12.0956C73.9824 12.28 73.9964 12.4666 73.9947 12.6522C73.9958 14.1423 73.9947 15.6318 73.9947 17.1219C73.9677 17.2804 74.1115 17.3725 74.2095 17.4706C74.9727 18.1942 76.1133 18.5403 77.147 18.2791C77.6473 18.1538 78.0748 17.8129 78.3335 17.3748C78.7014 16.7544 78.8305 16.0308 78.9097 15.325C78.9431 14.7827 79.0116 14.2381 78.9507 13.6952C78.9214 13.0638 78.8002 12.4172 78.4712 11.867C78.2031 11.4161 77.7623 11.0468 77.2378 10.9354ZM83.7398 5.53989C84.0551 5.44227 84.3951 5.45905 84.6988 5.58774C84.9739 5.76246 85.1852 6.01982 85.3013 6.32211C85.5042 6.97141 84.9713 7.70072 84.3033 7.77524C83.7871 7.8321 83.2194 7.53313 83.0591 7.02719C82.8468 6.45498 83.1737 5.76625 83.7398 5.53989Z" fill="#FC6723"/>
</g>
<defs>
<clipPath id="clip0_24_96">
<rect width="131" height="26" fill="white"/>
</clipPath>
</defs>
</svg>
