<svg width="39" height="39" viewBox="0 0 39 39" fill="none" xmlns="http://www.w3.org/2000/svg">
<rect width="39" height="39" rx="19.5" fill="#04E573"/>
<g filter="url(#filter0_i_243_296)">
<rect x="3.4668" y="3.4668" width="32.0667" height="32.0667" rx="16.0333" fill="#0048FF"/>
</g>
<rect x="3.9668" y="3.9668" width="31.0667" height="31.0667" rx="15.5333" stroke="url(#paint0_linear_243_296)"/>
<path d="M18.1992 24.2669V18.2002" stroke="#04E573" stroke-width="2" stroke-linecap="round" stroke-linejoin="round"/>
<path d="M19.1696 10.5722C19.4075 10.4566 19.6685 10.3971 19.9329 10.398C20.1973 10.3989 20.458 10.4602 20.695 10.5774L27.5122 13.9114C27.9247 14.1134 27.7808 14.7339 27.3215 14.7339H12.5431C12.0838 14.7339 11.9408 14.1134 12.3524 13.9114L19.1696 10.5722Z" stroke="#04E573" stroke-width="2" stroke-linecap="round" stroke-linejoin="round"/>
<path d="M21.666 24.2669V18.2002" stroke="#04E573" stroke-width="2" stroke-linecap="round" stroke-linejoin="round"/>
<path d="M25.1328 24.2669V18.2002" stroke="#04E573" stroke-width="2" stroke-linecap="round" stroke-linejoin="round"/>
<path d="M12.1328 27.7339H27.7328" stroke="#04E573" stroke-width="2" stroke-linecap="round" stroke-linejoin="round"/>
<path d="M14.7324 24.2669V18.2002" stroke="#04E573" stroke-width="2" stroke-linecap="round" stroke-linejoin="round"/>
<defs>
<filter id="filter0_i_243_296" x="3.4668" y="3.4668" width="32.0664" height="36.0669" filterUnits="userSpaceOnUse" color-interpolation-filters="sRGB">
<feFlood flood-opacity="0" result="BackgroundImageFix"/>
<feBlend mode="normal" in="SourceGraphic" in2="BackgroundImageFix" result="shape"/>
<feColorMatrix in="SourceAlpha" type="matrix" values="0 0 0 0 0 0 0 0 0 0 0 0 0 0 0 0 0 0 127 0" result="hardAlpha"/>
<feOffset dy="4"/>
<feGaussianBlur stdDeviation="2"/>
<feComposite in2="hardAlpha" operator="arithmetic" k2="-1" k3="1"/>
<feColorMatrix type="matrix" values="0 0 0 0 0 0 0 0 0 0 0 0 0 0 0 0 0 0 0.25 0"/>
<feBlend mode="normal" in2="shape" result="effect1_innerShadow_243_296"/>
</filter>
<linearGradient id="paint0_linear_243_296" x1="19.5001" y1="3.4668" x2="19.5001" y2="35.5335" gradientUnits="userSpaceOnUse">
<stop stop-color="#0048FF"/>
<stop offset="1" stop-color="#04E573"/>
</linearGradient>
</defs>
</svg>
