<svg width="39" height="39" viewBox="0 0 39 39" fill="none" xmlns="http://www.w3.org/2000/svg">
<rect width="39" height="39" rx="19.5" fill="#04E573"/>
<g filter="url(#filter0_i_243_307)">
<rect x="3.4668" y="3.46631" width="32.0667" height="32.0667" rx="16.0333" fill="#0048FF"/>
</g>
<rect x="3.9668" y="3.96631" width="31.0667" height="31.0667" rx="15.5333" stroke="url(#paint0_linear_243_307)"/>
<path d="M26.0005 13L13.8672 25.1333" stroke="#04E573" stroke-width="2" stroke-linecap="round" stroke-linejoin="round"/>
<path d="M15.1667 16.4666C16.3633 16.4666 17.3333 15.4966 17.3333 14.3C17.3333 13.1034 16.3633 12.1333 15.1667 12.1333C13.97 12.1333 13 13.1034 13 14.3C13 15.4966 13.97 16.4666 15.1667 16.4666Z" stroke="#04E573" stroke-width="2" stroke-linecap="round" stroke-linejoin="round"/>
<path d="M24.6999 25.9998C25.8965 25.9998 26.8665 25.0298 26.8665 23.8332C26.8665 22.6366 25.8965 21.6665 24.6999 21.6665C23.5033 21.6665 22.5332 22.6366 22.5332 23.8332C22.5332 25.0298 23.5033 25.9998 24.6999 25.9998Z" stroke="#04E573" stroke-width="2" stroke-linecap="round" stroke-linejoin="round"/>
<defs>
<filter id="filter0_i_243_307" x="3.4668" y="3.46631" width="32.0664" height="36.0669" filterUnits="userSpaceOnUse" color-interpolation-filters="sRGB">
<feFlood flood-opacity="0" result="BackgroundImageFix"/>
<feBlend mode="normal" in="SourceGraphic" in2="BackgroundImageFix" result="shape"/>
<feColorMatrix in="SourceAlpha" type="matrix" values="0 0 0 0 0 0 0 0 0 0 0 0 0 0 0 0 0 0 127 0" result="hardAlpha"/>
<feOffset dy="4"/>
<feGaussianBlur stdDeviation="2"/>
<feComposite in2="hardAlpha" operator="arithmetic" k2="-1" k3="1"/>
<feColorMatrix type="matrix" values="0 0 0 0 0 0 0 0 0 0 0 0 0 0 0 0 0 0 0.25 0"/>
<feBlend mode="normal" in2="shape" result="effect1_innerShadow_243_307"/>
</filter>
<linearGradient id="paint0_linear_243_307" x1="19.5001" y1="3.46631" x2="19.5001" y2="35.533" gradientUnits="userSpaceOnUse">
<stop stop-color="#0048FF"/>
<stop offset="1" stop-color="#04E573"/>
</linearGradient>
</defs>
</svg>
