<svg width="17" height="18" viewBox="0 0 17 18" fill="none" xmlns="http://www.w3.org/2000/svg">
<path d="M14.2339 0H2.71494C1.21485 0 0 1.22538 0 2.73832V14.3547C0 15.8666 1.21485 17.0927 2.71494 17.0927H14.2339C15.7338 17.0927 16.9479 15.8666 16.9479 14.3547V2.73832C16.9479 1.22538 15.7338 0 14.2339 0Z" fill="#1677FF"/>
<path d="M4.57932 13.1443C1.94274 13.1443 1.16324 11.0496 2.46627 9.90364C2.90109 9.5163 3.69558 9.32727 4.11933 9.28497C5.68546 9.12879 7.13539 9.73139 8.84629 10.5737C7.64375 12.1559 6.11189 13.1443 4.57932 13.1443ZM13.9538 10.7326C13.2755 10.5034 12.3655 10.1532 11.352 9.78334C11.9607 8.7161 12.4469 7.50071 12.7664 6.18002H9.42569V4.96642H13.5183V4.28902H9.42569V2.26611H7.75567C7.46258 2.26611 7.46258 2.55778 7.46258 2.55778V4.28902H3.32359V4.96642H7.46258V6.18002H4.04525V6.85723H10.673C10.4391 7.6731 10.1191 8.46179 9.71842 9.21C7.56771 8.49441 5.27296 7.91429 3.83124 8.27129C2.9093 8.50048 2.31544 8.90941 1.96648 9.33781C0.36536 11.3025 1.51381 14.2866 4.89526 14.2866C6.8946 14.2866 8.82058 13.1625 10.3134 11.3098C12.5397 12.3892 16.9479 14.2425 16.9479 14.2425V11.6011C16.9479 11.6011 16.3942 11.5569 13.9538 10.7326Z" fill="white"/>
</svg>
