<svg width="16" height="15" viewBox="0 0 16 15" fill="none" xmlns="http://www.w3.org/2000/svg">
<g clip-path="url(#clip0_202_110)">
<path d="M4.22656 6.95506C4.22656 6.30343 4.38466 5.74627 4.70086 5.28357C5.01706 4.82087 5.44952 4.47153 5.99825 4.23543C6.5004 4.01821 7.11894 3.8625 7.85374 3.76791C8.10475 3.73963 8.51399 3.70184 9.08132 3.65455V3.41375C9.08132 2.80942 9.01626 2.4034 8.88601 2.19557C8.69069 1.91217 8.38386 1.77066 7.96526 1.77066H7.85374C7.54678 1.79893 7.28166 1.89809 7.05849 2.06801C6.83533 2.23805 6.69109 2.47403 6.62603 2.77632C6.58882 2.96513 6.4959 3.07367 6.34705 3.10207L4.7427 2.90376C4.5846 2.86597 4.50555 2.78101 4.50555 2.64876C4.50555 2.62048 4.51017 2.58739 4.51941 2.54973C4.67751 1.70928 5.06576 1.08606 5.6843 0.67991C6.30271 0.274018 7.0259 0.047297 7.85374 0H8.20253C9.26252 0 10.0904 0.278583 10.6858 0.835749C10.779 0.930597 10.8654 1.03229 10.9438 1.1402C11.0226 1.24874 11.0855 1.34562 11.1319 1.43058C11.1785 1.51553 11.2204 1.6384 11.2575 1.79881C11.2948 1.95946 11.3226 2.07042 11.3414 2.13166C11.3599 2.19303 11.3739 2.32529 11.3831 2.52842C11.3924 2.73143 11.397 2.85177 11.397 2.88955V6.31751C11.397 6.56299 11.4318 6.78731 11.5016 6.99032C11.5715 7.19345 11.639 7.33978 11.7038 7.42943C11.7689 7.51908 11.876 7.66325 12.0248 7.86132C12.0806 7.94653 12.1084 8.0221 12.1084 8.08816C12.1084 8.16374 12.0714 8.22955 11.9967 8.28635C11.2249 8.96639 10.8064 9.33475 10.7412 9.39143C10.6297 9.47639 10.4949 9.48577 10.3366 9.41971C10.2066 9.30622 10.0927 9.1978 9.99495 9.09383C9.89742 8.9901 9.82761 8.91453 9.78565 8.86723C9.74394 8.82019 9.67638 8.728 9.58347 8.59106C9.49056 8.45411 9.42512 8.36193 9.38815 8.31488C8.8674 8.89094 8.35589 9.24979 7.85374 9.39143C7.53741 9.48577 7.14679 9.53307 6.68185 9.53307C5.96566 9.53307 5.37747 9.30863 4.91716 8.86013C4.45672 8.41151 4.22656 7.77649 4.22656 6.95506ZM6.62603 6.67166C6.62603 7.04002 6.71682 7.33509 6.89802 7.55699C7.07947 7.77889 7.32349 7.88985 7.63045 7.88985C7.65842 7.88985 7.69789 7.88515 7.74909 7.87577C7.80004 7.86613 7.83501 7.86144 7.85374 7.86144C8.24424 7.75772 8.54645 7.50285 8.76038 7.0967C8.86278 6.91728 8.93946 6.72137 8.99066 6.50885C9.04186 6.29646 9.06971 6.12401 9.07433 5.99175C9.07895 5.85963 9.08145 5.64242 9.08145 5.34025V4.98609C8.54196 4.98609 8.13285 5.02388 7.85386 5.09945C7.03514 5.33543 6.62603 5.8595 6.62603 6.67166Z" fill="black"/>
<path d="M12.4855 11.2328C12.5042 11.1949 12.5321 11.1572 12.5694 11.1193C12.8018 10.9588 13.025 10.8504 13.2389 10.7937C13.5923 10.6994 13.9365 10.6474 14.2712 10.6379C14.3643 10.6282 14.4526 10.6332 14.5363 10.6519C14.9549 10.6896 15.2058 10.7606 15.2897 10.8645C15.3268 10.9211 15.3453 11.0061 15.3453 11.1193V11.2186C15.3453 11.5489 15.257 11.9386 15.0804 12.3871C14.9036 12.8356 14.6572 13.197 14.3409 13.4709C14.2945 13.5085 14.2526 13.5273 14.2155 13.5273C14.1967 13.5273 14.1781 13.5226 14.1597 13.5132C14.1038 13.4849 14.0899 13.4329 14.1177 13.3574C14.4619 12.5358 14.6338 11.9646 14.6338 11.6433C14.6338 11.5395 14.6153 11.464 14.5783 11.4167C14.4851 11.3034 14.2248 11.2468 13.797 11.2468C13.6387 11.2468 13.4528 11.2561 13.2389 11.275C13.0065 11.3036 12.7926 11.3317 12.5971 11.3603C12.5413 11.3603 12.5042 11.3506 12.4854 11.3317C12.4669 11.313 12.4621 11.2941 12.4715 11.275C12.4715 11.2658 12.4761 11.2516 12.4855 11.2328ZM0.0278485 10.9921C0.0744292 10.9166 0.148734 10.9119 0.251136 10.9778C2.57617 12.3471 5.10589 13.0319 7.84004 13.0319C9.66306 13.0319 11.4626 12.6871 13.2389 11.9977C13.2852 11.9789 13.3528 11.9506 13.4411 11.9127C13.5296 11.8751 13.5923 11.8467 13.6294 11.8278C13.7689 11.7711 13.8782 11.7995 13.9572 11.9127C14.0365 12.0262 14.0109 12.1299 13.8807 12.2243C13.7131 12.3471 13.4992 12.4888 13.2389 12.6493C12.4392 13.131 11.5461 13.504 10.5603 13.7685C9.57464 14.033 8.61193 14.165 7.6727 14.165C6.22183 14.165 4.85001 13.9077 3.55737 13.393C2.2646 12.8783 1.1067 12.1534 0.0836704 11.2187C0.0278485 11.1714 0 11.1241 0 11.077C0 11.0486 0.00924121 11.0203 0.0278485 10.9921Z" fill="#FF9900"/>
</g>
<defs>
<clipPath id="clip0_202_110">
<rect width="15.3453" height="14.1649" fill="white"/>
</clipPath>
</defs>
</svg>
