<svg width="17" height="17" viewBox="0 0 17 17" fill="none" xmlns="http://www.w3.org/2000/svg">
<rect width="17" height="17" fill="white"/>
<path d="M13.9683 4.17068L14.5123 2.69167H17V0H0V17H17V14.314H14.654L13.787 13.2997L12.886 14.314H6.222V8.91368H4.02332L6.77168 2.69167H9.44631L10.0923 4.10267V2.69167H13.413L13.9683 4.17068ZM12.0927 5.15101L12.087 4.556L12.3137 5.15101L13.4187 8.10333H14.518L15.6287 5.15101L15.844 4.56167V8.10333H17V3.57H15.079L14.2063 5.87069L13.974 6.494L13.736 5.87069L12.8577 3.57H10.9367V8.10333H12.0927V5.15101ZM9.605 8.10333H10.9367L8.942 3.57H7.395L5.38899 8.10333H6.70368L7.055 7.23068H9.25368L9.605 8.10333ZM7.92768 5.10569L8.15432 4.539L8.381 5.10569L8.85132 6.25032H7.45732L7.92768 5.10569ZM7.15131 8.91931V13.4357H10.9367V12.4553H8.30732V11.6677H10.8857V10.693H8.30732V9.89968H10.9367V8.91931H7.15131ZM15.147 13.4357H16.6487L14.5293 11.169L16.6487 8.91931H15.1697L13.804 10.387L12.444 8.91931H10.9367L13.0503 11.186L10.9367 13.4357H12.3987L13.7757 11.9623L15.147 13.4357ZM15.7193 11.1633L17 12.4667V9.87701L15.7193 11.1633Z" fill="#006FCF"/>
</svg>
