<svg width="18" height="18" viewBox="0 0 18 18" fill="none" xmlns="http://www.w3.org/2000/svg">
<path d="M2.51943 17.3955L2.54525 17.4036C3.50433 17.7061 4.38964 17.7061 6.16025 17.7061H11.5311C13.3091 17.7061 14.1944 17.7061 15.1461 17.411C15.66 17.2234 16.1272 16.9267 16.5155 16.5413C16.9038 16.156 17.204 15.691 17.3955 15.1785L17.4036 15.1527C17.7061 14.1929 17.7061 13.3069 17.7061 11.5363V6.18533C17.7061 4.4066 17.7061 3.52056 17.4036 2.56148C17.2163 2.0495 16.9205 1.58404 16.5366 1.19695C16.1527 0.809857 15.6897 0.510277 15.1793 0.31871L15.1535 0.309857C14.187 0 13.3091 0 11.5237 0H6.16762C4.39701 0 3.50433 0 2.55263 0.295102C2.03997 0.48341 1.57414 0.78044 1.18713 1.1658C0.800123 1.55115 0.501098 2.0157 0.310594 2.52754L0.302479 2.55337C0 3.51318 0 4.39849 0 6.16984V11.5355C0 13.3142 0 14.1922 0.295102 15.152C0.482444 15.6641 0.77818 16.1296 1.16208 16.5168C1.54598 16.904 2.00899 17.2038 2.51943 17.3955ZM4.83893 11.6395L5.57668 10.9239C5.64352 10.8608 5.73202 10.8256 5.82398 10.8258C5.91593 10.8259 6.00433 10.8613 6.07098 10.9247C6.74233 11.5591 7.64239 11.914 8.57196 11.8992C9.53104 11.8992 10.1729 11.4935 10.1729 10.8509C10.1729 10.2083 9.52366 10.0394 8.29899 9.58121C7.00055 9.11642 5.7685 8.45909 5.7685 6.92456C5.7685 5.13846 7.25138 4.26791 9.00724 4.18602L9.19168 3.27858C9.20871 3.19925 9.25242 3.12815 9.31552 3.07714C9.37861 3.02613 9.45728 2.99828 9.53842 2.99823H10.859L10.9328 3.00561C11.1246 3.04987 11.25 3.23431 11.2057 3.42613L11.0065 4.43759C11.6705 4.65892 12.2976 5.00566 12.8362 5.46381L12.8509 5.47856C12.9911 5.62611 12.9911 5.84744 12.8509 5.98023L12.1656 6.66634C12.0987 6.7289 12.011 6.76431 11.9195 6.76568C11.8279 6.76704 11.7392 6.73426 11.6705 6.67372C11.0068 6.11133 10.1657 5.80283 9.2957 5.80317C8.58008 5.80317 7.86446 6.03925 7.86446 6.69659C7.86446 7.36057 8.63172 7.5819 9.51702 7.91462C11.0663 8.43105 12.35 9.08101 12.35 10.6015C12.35 12.2548 11.0663 13.3917 8.97109 13.5171L8.77927 14.4032C8.76231 14.4845 8.71784 14.5576 8.65334 14.61C8.58884 14.6624 8.50825 14.6909 8.42515 14.6909H7.10457L7.03817 14.6835C6.94338 14.662 6.86085 14.604 6.8084 14.5222C6.75595 14.4403 6.73779 14.3411 6.75783 14.246L6.75709 14.2482L6.96366 13.3106C6.16734 13.1104 5.4351 12.7108 4.83598 12.1493L4.83893 12.1515V12.1442C4.77296 12.0767 4.73602 11.9862 4.73602 11.8919C4.73602 11.7975 4.77296 11.707 4.83893 11.6395Z" fill="#01D031"/>
</svg>
