<svg width="18" height="18" viewBox="0 0 18 18" fill="none" xmlns="http://www.w3.org/2000/svg">
<rect width="17.0431" height="17.0431" rx="3" fill="white"/>
<path fill-rule="evenodd" clip-rule="evenodd" d="M15.3569 8.29928C15.3569 7.8717 15.0531 7.62496 14.5227 7.62496H13.8408V9.90891H14.3V8.9915H14.3601L14.9966 9.90891H15.5622L14.82 8.94678C15.1662 8.87854 15.3569 8.64904 15.3569 8.29934V8.29928ZM15.5819 7.5739C15.4814 7.5739 15.4014 7.65172 15.4014 7.74893C15.4014 7.84602 15.4823 7.92396 15.5819 7.92396C15.68 7.92396 15.7604 7.84518 15.7604 7.74893C15.7604 7.65304 15.68 7.5739 15.5819 7.5739ZM15.5814 7.89259C15.5022 7.89259 15.4373 7.82878 15.4373 7.74917C15.4373 7.66914 15.5012 7.60539 15.5813 7.60539C15.6601 7.60539 15.7243 7.67075 15.7243 7.74917C15.7243 7.82818 15.6601 7.89259 15.5814 7.89259ZM15.6505 7.7108C15.6505 7.67075 15.622 7.6489 15.5721 7.6489H15.5055V7.84955H15.555V7.77174L15.6129 7.84955H15.6734L15.6053 7.76677C15.6344 7.75923 15.6505 7.73863 15.6505 7.7108ZM15.5634 7.7381H15.555V7.68566H15.5639C15.5883 7.68566 15.6011 7.69422 15.6011 7.71152C15.6011 7.72918 15.5882 7.73804 15.5634 7.73804V7.7381ZM10.8889 9.15905L10.2602 7.6249H9.75778L10.7583 9.96757H11.0058L12.0243 7.6249H11.5257L10.889 9.15905H10.8889ZM5.42191 8.76852C5.42191 9.43985 5.966 9.96045 6.66623 9.96045C6.86419 9.96045 7.03367 9.92268 7.24276 9.82732V9.30283C7.05888 9.48109 6.8962 9.55292 6.68767 9.55292C6.22452 9.55292 5.89587 9.22771 5.89587 8.76511C5.89587 8.32664 6.23502 7.98071 6.66623 7.98071C6.88563 7.98071 7.05159 8.05649 7.24276 8.23774V7.71349C7.0409 7.61425 6.87495 7.57324 6.6771 7.57324C5.98046 7.57324 5.42191 8.10426 5.42191 8.76846V8.76852ZM4.59873 8.50137C4.32279 8.40248 4.24172 8.33729 4.24172 8.2138C4.24172 8.0699 4.38612 7.96065 4.58427 7.96065C4.72199 7.96065 4.83531 8.01543 4.95505 8.14556L5.19565 7.84034C4.99793 7.67273 4.76141 7.58707 4.5029 7.58707C4.08577 7.58707 3.76763 7.86775 3.76763 8.24152C3.76763 8.5562 3.9158 8.71728 4.34763 8.86789C4.52767 8.92942 4.6193 8.97043 4.66558 8.99802C4.75739 9.05615 4.80343 9.13833 4.80343 9.23435C4.80343 9.41938 4.65155 9.55645 4.44636 9.55645C4.22708 9.55645 4.05031 9.45026 3.94447 9.25189L3.6474 9.52898C3.85926 9.83019 4.11376 9.9638 4.46366 9.9638C4.94146 9.9638 5.27671 9.656 5.27671 9.21376C5.27671 8.85101 5.12175 8.68663 4.5986 8.50131H4.59866L4.59873 8.50137ZM3.01452 9.90885H3.47427V7.6249H3.01452V9.90885ZM1.53726 7.6249H0.862305V9.90885H1.53368C1.89074 9.90885 2.14852 9.82732 2.37484 9.64517C2.6438 9.42961 2.8029 9.10463 2.8029 8.76852C2.8029 8.0945 2.28296 7.6249 1.53726 7.6249ZM2.0745 9.34072C1.92998 9.46708 1.74233 9.52227 1.4452 9.52227H1.32175V8.01189H1.4452C1.74233 8.01189 1.92269 8.06343 2.0745 8.19656C2.23353 8.33376 2.32918 8.54632 2.32918 8.76511C2.32918 8.98444 2.23353 9.20346 2.0745 9.34066V9.34072ZM12.2322 9.90885H13.5362V9.52233H12.6916V8.90578H13.5051V8.51885H12.6916V8.01195H13.5362V7.62496H12.2322V9.90891V9.90885ZM14.4345 8.67652H14.3V7.98472H14.4417C14.728 7.98472 14.8837 8.10091 14.8837 8.32328C14.8837 8.55285 14.728 8.67652 14.4345 8.67652Z" fill="#211D1C"/>
<path fill-rule="evenodd" clip-rule="evenodd" d="M8.71048 7.57324C9.37194 7.57324 9.908 8.10925 9.908 8.76999V8.77076C9.908 9.43157 9.37194 9.96757 8.71048 9.96757C8.04968 9.96757 7.51367 9.43157 7.51367 8.77076V8.76999C7.51367 8.10925 8.04968 7.57324 8.71048 7.57324Z" fill="url(#paint0_linear_202_105)"/>
<defs>
<linearGradient id="paint0_linear_202_105" x1="9.47727" y1="9.48671" x2="7.94434" y2="8.05413" gradientUnits="userSpaceOnUse">
<stop stop-color="#F7991E"/>
<stop offset="1" stop-color="#DE5214"/>
</linearGradient>
</defs>
</svg>
