<svg width="16" height="16" viewBox="0 0 16 16" fill="none" xmlns="http://www.w3.org/2000/svg">
<g clip-path="url(#clip0_202_98)">
<path d="M0.1875 6.90912C0.1875 3.74119 0.1875 2.15625 1.17188 1.17187C2.15625 0.1875 3.74116 0.1875 6.90909 0.1875H9.09075C12.2597 0.1875 13.8437 0.1875 14.8281 1.17187C15.8124 2.15625 15.8124 3.74122 15.8124 6.90916V9.09081C15.8124 12.2597 15.8124 13.8437 14.8281 14.8281C13.8437 15.8125 12.2597 15.8125 9.09078 15.8125H6.90912C3.74119 15.8125 2.15622 15.8125 1.17184 14.8281C0.187469 13.8437 0.1875 12.2597 0.1875 9.09078V6.90912Z" fill="#FFA8CD"/>
<path d="M11.7275 3.0098H9.56051C9.56051 4.79205 8.47066 6.3887 6.81345 7.52933L6.16207 7.98539V3.00977H3.91113V12.9902H6.16207V8.04302L9.88666 12.9903H12.6337L9.05076 8.25686C10.6796 7.07327 11.7421 5.23442 11.7275 3.0098Z" fill="#0B051D"/>
</g>
<defs>
<clipPath id="clip0_202_98">
<rect width="16" height="16" fill="white"/>
</clipPath>
</defs>
</svg>
