<svg width="12" height="14" viewBox="0 0 12 14" fill="none" xmlns="http://www.w3.org/2000/svg">
<path d="M11.0929 6.39469C10.7752 8.20509 9.2983 9.57343 7.36003 9.57343H6.12966C5.87876 9.57343 5.62609 9.80588 5.5861 10.0625L5.04738 13.4829C5.01618 13.6776 4.92478 13.7422 4.72748 13.7422H2.74835C2.54842 13.7422 2.50096 13.6754 2.53084 13.4776L2.75802 11.1127L0.382534 10.9901C0.1826 10.9901 0.110536 10.8811 0.138659 10.6816L1.75967 0.404127C1.79087 0.209466 1.91214 0.125977 2.10856 0.125977H6.2193C8.19844 0.125977 9.44989 1.45785 9.60325 3.18519C10.7804 3.98054 11.331 5.03865 11.0929 6.39469Z" fill="#001C64"/>
<path d="M3.36051 7.28345L2.75851 11.1134L2.37754 13.5161C2.37534 13.5319 2.37402 13.5486 2.37402 13.5653C2.37402 13.7446 2.51903 13.8905 2.69875 13.8914L4.78862 13.8918C4.88411 13.8916 4.9764 13.8574 5.04896 13.7953C5.12151 13.7333 5.16957 13.6474 5.18453 13.553L5.73468 10.0623C5.76544 9.86765 5.93286 9.72441 6.13016 9.72397L7.36008 9.72441C9.29747 9.72177 10.9444 8.30905 11.2414 6.39539C11.4546 5.03583 10.7704 3.79844 9.59979 3.18677C9.59729 3.33146 9.58467 3.47579 9.562 3.61871C9.26363 5.53149 7.6167 6.94378 5.68107 6.94598H3.75555C3.55869 6.94598 3.39127 7.08923 3.36051 7.28345Z" fill="#0070E0"/>
<path d="M2.75866 11.1133H0.324728C0.145007 11.1124 0 10.9661 0 10.7864C0 10.7697 0.00131766 10.7534 0.00351474 10.7371L1.64342 0.338351C1.67418 0.143689 1.84203 0 2.03889 0H6.21774C8.19687 0 9.63552 1.43997 9.60169 3.18445C9.08388 2.91784 8.50993 2.77865 7.92751 2.77843H4.4135C4.2162 2.77843 4.04834 2.92168 4.01758 3.11634L3.3611 7.28333L2.7591 11.1133H2.75866Z" fill="#003087"/>
</svg>
