<svg width="14" height="14" viewBox="0 0 14 14" fill="none" xmlns="http://www.w3.org/2000/svg">
<g clip-path="url(#clip0_201_2130)">
<path d="M2.2457 5.02831C2.16056 4.64478 2.17363 4.24597 2.28371 3.86884C2.39379 3.49171 2.5973 3.14849 2.87539 2.87098C3.15348 2.59347 3.49713 2.39068 3.87449 2.28139C4.25185 2.1721 4.65069 2.15986 5.03403 2.24581C5.24503 1.91582 5.5357 1.64425 5.87926 1.45614C6.22281 1.26803 6.60819 1.16943 6.99987 1.16943C7.39155 1.16943 7.77693 1.26803 8.12048 1.45614C8.46403 1.64425 8.7547 1.91582 8.9657 2.24581C9.34963 2.15949 9.74916 2.17167 10.1271 2.28123C10.5051 2.39078 10.8492 2.59414 11.1274 2.8724C11.4057 3.15066 11.6091 3.49477 11.7186 3.87273C11.8282 4.25068 11.8404 4.65021 11.754 5.03414C12.084 5.24514 12.3556 5.53581 12.5437 5.87936C12.7318 6.22292 12.8304 6.60829 12.8304 6.99998C12.8304 7.39166 12.7318 7.77703 12.5437 8.12059C12.3556 8.46414 12.084 8.75481 11.754 8.96581C11.84 9.34916 11.8277 9.748 11.7185 10.1254C11.6092 10.5027 11.4064 10.8464 11.1289 11.1245C10.8514 11.4025 10.5081 11.6061 10.131 11.7161C9.75388 11.8262 9.35506 11.8393 8.97153 11.7541C8.76081 12.0854 8.46991 12.3581 8.12577 12.5471C7.78164 12.736 7.39538 12.8351 7.00278 12.8351C6.61019 12.8351 6.22393 12.736 5.87979 12.5471C5.53566 12.3581 5.24476 12.0854 5.03403 11.7541C4.65069 11.8401 4.25185 11.8278 3.87449 11.7186C3.49713 11.6093 3.15348 11.4065 2.87539 11.129C2.5973 10.8515 2.39379 10.5082 2.28371 10.1311C2.17363 9.75398 2.16056 9.35517 2.2457 8.97164C1.91318 8.7612 1.63928 8.47008 1.44948 8.12535C1.25968 7.78062 1.16016 7.3935 1.16016 6.99998C1.16016 6.60645 1.25968 6.21933 1.44948 5.8746C1.63928 5.52987 1.91318 5.23875 2.2457 5.02831Z" stroke="white" stroke-width="1.25" stroke-linecap="round" stroke-linejoin="round"/>
<path d="M5.25 7.00004L6.41667 8.16671L8.75 5.83337" stroke="white" stroke-width="1.25" stroke-linecap="round" stroke-linejoin="round"/>
</g>
<defs>
<clipPath id="clip0_201_2130">
<rect width="14" height="14" fill="white"/>
</clipPath>
</defs>
</svg>
