<svg width="24" height="24" viewBox="0 0 24 24" fill="none" xmlns="http://www.w3.org/2000/svg">
<path d="M11.9948 1.37659C11.3986 1.38209 10.8113 1.68829 10.4988 2.23989C9.32181 4.29399 1.08801 18.5025 0.127314 20.2343C-0.262986 21.1711 0.281014 22.2822 1.25831 22.5547C1.66441 22.6623 2.09201 22.608 2.46131 22.6211C7.83461 22.6261 16.6949 22.6146 22.0847 22.6211C22.2409 22.624 22.5132 22.6197 22.743 22.5547C23.452 22.3573 23.9778 21.6842 23.9988 20.9492C24.0068 20.7056 23.9619 20.4618 23.8738 20.2362C23.7625 19.9948 23.6785 19.8691 23.5868 19.705L23.0418 18.7616L14.321 3.65599L13.7761 2.71259L13.5027 2.23999C13.3791 2.03539 13.2181 1.84999 13.0222 1.70479C12.7151 1.47929 12.3526 1.37329 11.9948 1.37659ZM12.0008 2.67739C12.1475 2.67779 12.2944 2.75089 12.3758 2.89219C12.5413 3.16909 13.0244 4.03069 13.1922 4.30819C15.0234 7.48179 17.307 11.4378 19.4969 15.2303L10.3581 5.08949C10.6871 4.51979 11.484 3.13749 11.6257 2.89219V2.89019C11.7071 2.74809 11.8545 2.67689 12.0008 2.67739ZM9.78781 6.14419L17.3426 13.9901C17.3237 13.9816 17.3049 13.9731 17.2859 13.9647L9.28581 8.52319C9.35701 7.90119 9.47911 7.28129 9.63541 6.66769L9.78781 6.14419ZM8.36981 8.53499L4.22131 21.3203C3.68871 21.3201 2.94261 21.3205 2.46151 21.3203C2.35161 21.3196 1.77881 21.3236 1.70361 21.3163C1.42321 21.3113 1.22561 20.9858 1.33261 20.7285C1.97241 19.6079 5.51121 13.4847 8.36981 8.53499ZM9.21351 9.73999L14.7878 13.1718L9.28381 10.8944C9.23609 10.5115 9.2126 10.1259 9.21351 9.73999ZM8.35411 11.117L7.65691 20.582C6.93751 20.8847 6.18361 21.119 5.41661 21.3067L8.35411 11.117ZM9.50651 12.0253L13.0593 13.2499H9.97331C9.84819 12.9988 9.738 12.7406 9.64331 12.4765C9.59251 12.3264 9.54771 12.1765 9.50651 12.0253ZM8.95381 12.8769C8.96991 12.9206 8.98561 12.9642 9.00261 13.0077L9.83661 19.3457C9.49101 19.6078 9.12741 19.8417 8.74861 20.0527L8.95381 12.8769ZM10.819 14.0449H13.1843C13.3643 14.0449 13.4771 14.2384 13.3874 14.3945L12.2038 16.4433C12.1834 16.4789 12.154 16.5085 12.1185 16.529C12.083 16.5496 12.0427 16.5604 12.0017 16.5604C11.9606 16.5604 11.9203 16.5496 11.8848 16.529C11.8493 16.5085 11.8199 16.4789 11.7995 16.4433H11.7975L10.6159 14.3945C10.5255 14.2384 10.6384 14.0449 10.819 14.0449ZM14.4968 14.0605C14.7759 14.0774 15.0537 14.1107 15.3288 14.1601C15.4842 14.1919 15.6386 14.2283 15.7918 14.2695L12.9499 16.7363L14.4968 14.0605ZM16.8778 14.6405C17.241 14.7934 17.5939 14.9696 17.9344 15.1679L12.0554 18.3418L16.8778 14.6405ZM9.98891 14.8984L11.5319 17.5703C11.3773 17.8033 11.209 18.0271 11.028 18.2403C10.9241 18.3587 10.8166 18.474 10.7057 18.5859L9.98891 14.8984ZM18.9539 15.8437C19.2277 16.0475 19.4921 16.2659 19.7509 16.4922L20.7372 17.5156L10.028 20.168C10.0475 20.1545 10.0672 20.1406 10.0866 20.127L18.9539 15.8437ZM21.4012 18.5293C21.7811 19.1874 22.2492 19.9949 22.5946 20.5938C22.6554 20.6936 22.6465 20.6979 22.6688 20.7305C22.7636 20.9596 22.623 21.2346 22.3895 21.3047C22.3592 21.3062 22.3318 21.3193 22.2977 21.3165C22.292 21.3215 22.1687 21.3204 22.0848 21.3204C18.3051 21.3194 13.0979 21.3201 8.29551 21.3204L21.4012 18.5293Z" fill="black"/>
</svg>
