<svg width="34" height="15" viewBox="0 0 34 15" fill="none" xmlns="http://www.w3.org/2000/svg">
<g clip-path="url(#clip0_224_2919)">
<path fill-rule="evenodd" clip-rule="evenodd" d="M2.22938 13.7079C1.80889 13.7079 1.59865 13.4789 1.59865 13.1018C1.59865 12.4026 2.30554 12.164 3.59636 12.0123C3.59636 12.9474 3.02434 13.707 2.22858 13.707L2.22938 13.7079ZM2.78633 8.44912C1.86443 8.44912 0.802893 8.92982 0.226905 9.43684L0.752911 10.6605C1.21465 10.193 1.96201 9.79386 2.63559 9.79386C3.30916 9.79386 3.62889 10.0307 3.62889 10.507C3.62889 10.8281 3.39484 10.9903 2.95214 11.0535C1.29796 11.2912 0 11.7956 0 13.2061C0 14.3237 0.720383 15 1.84459 15C2.64669 15 3.36152 14.507 3.70109 13.8561V14.8175H5.19659V10.7877C5.19659 9.12368 4.15013 8.44824 2.78633 8.44824V8.44912Z" fill="black"/>
<path fill-rule="evenodd" clip-rule="evenodd" d="M17.8033 8.6307V14.8175H19.4035V11.836C19.4035 10.4193 20.1794 10.0035 20.7205 10.0035C20.9323 10.0035 21.2172 10.071 21.4052 10.2272L21.6964 8.59123C21.4496 8.47456 21.191 8.44824 20.9792 8.44824C20.1564 8.44824 19.6391 8.85087 19.298 9.67017V8.62982H17.8033" fill="black"/>
<path fill-rule="evenodd" clip-rule="evenodd" d="M29.1168 8.44913C28.2703 8.44913 27.6372 9.00264 27.3087 9.53509C27.0033 8.8465 26.3551 8.44913 25.5792 8.44913C24.7326 8.44913 24.1471 8.9693 23.8766 9.56667V8.63071H22.3343V14.8175H23.9353V11.6333C23.9353 10.4895 24.4772 9.94123 24.9825 9.94123C25.4403 9.94123 25.8608 10.2684 25.8608 11.1132V14.8175H27.4602V11.6333C27.4602 10.4763 27.9886 9.94123 28.5178 9.94123C28.9407 9.94123 29.3873 10.2816 29.3873 11.1009V14.8184H30.9868V10.5421C30.9868 9.15088 30.1403 8.44913 29.1176 8.44913" fill="black"/>
<path fill-rule="evenodd" clip-rule="evenodd" d="M13.9063 8.6307H12.456V8.00175C12.456 7.18333 12.8788 6.94912 13.243 6.94912C13.646 6.94912 13.9594 7.14649 13.9594 7.14649L14.4529 5.89912C14.4529 5.89912 13.9531 5.53772 13.0431 5.53772C12.0204 5.53772 10.8565 6.17456 10.8565 8.17632V8.63158H8.42881V8.00263C8.42881 7.18421 8.85168 6.95 9.21584 6.95C9.42291 6.95 9.70138 7.00263 9.93225 7.14737L10.4257 5.9C10.1314 5.70877 9.65774 5.5386 9.01591 5.5386C7.99325 5.5386 6.82937 6.17544 6.82937 8.17719V8.63246H5.90033V9.99737H6.82937V14.8202H8.42881V9.99737H10.8565V14.8202H12.456V9.99737H13.9063V8.63246" fill="black"/>
<path d="M16.4593 8.63071H14.8615V14.8175H16.4593V8.63071Z" fill="black"/>
<path fill-rule="evenodd" clip-rule="evenodd" d="M14.9202 7.57895H16.4855C17.3987 4.40439 20.4968 1.61754 24.1836 1.61754C28.6646 1.61754 32.537 5.38947 32.537 11.2614C32.537 12.5789 32.3831 13.7684 32.0903 14.8184H33.6097L33.6247 14.7605C33.8738 13.6772 34.0008 12.5 34.0008 11.2614C34 4.71316 29.6848 0 24.1836 0C19.8629 0 16.0126 3.31579 14.9202 7.57895Z" fill="black"/>
</g>
<defs>
<clipPath id="clip0_224_2919">
<rect width="34" height="15" fill="white"/>
</clipPath>
</defs>
</svg>
