<svg width="24" height="24" viewBox="0 0 24 24" fill="none" xmlns="http://www.w3.org/2000/svg">
<g clip-path="url(#clip0_224_2620)">
<path d="M19.695 15.07C23.121 16.228 23.898 16.29 23.898 16.29V3.84601C23.898 1.72201 22.193 0.00100708 20.088 0.00100708H3.91399C1.80799 0.00100708 0.10199 1.72201 0.10199 3.84601V20.156C0.10199 22.279 1.80799 24.001 3.91499 24.001H20.088C22.193 24.001 23.898 22.279 23.898 20.156V19.999C23.898 19.999 17.708 17.397 14.583 15.88C12.487 18.482 9.78299 20.061 6.97599 20.061C2.22599 20.061 0.61499 15.871 2.86399 13.112C3.35399 12.51 4.18799 11.937 5.48099 11.615C7.50599 11.113 10.728 11.928 13.747 12.932C14.3098 11.882 14.7594 10.7751 15.088 9.63001H5.78099V8.67801H10.58V6.97501H4.76999V6.02201H10.58V3.59101C10.58 3.59101 10.58 3.18201 10.991 3.18201H13.338V6.02201H19.082V6.97301H13.338V8.67701H18.028C17.6061 10.4483 16.9375 12.1516 16.042 13.737C17.466 14.257 18.743 14.748 19.695 15.07ZM5.88599 13.038C5.28999 13.098 4.17599 13.363 3.56499 13.907C1.73499 15.515 2.82999 18.457 6.53299 18.457C8.68399 18.457 10.834 17.069 12.523 14.847C10.12 13.665 8.08499 12.819 5.88599 13.038Z" fill="black"/>
</g>
<defs>
<clipPath id="clip0_224_2620">
<rect width="24" height="24" fill="white"/>
</clipPath>
</defs>
</svg>
