<svg width="35" height="35" viewBox="0 0 35 35" fill="none" xmlns="http://www.w3.org/2000/svg">
<path fill-rule="evenodd" clip-rule="evenodd" d="M30.8398 23.9438C27.2429 26.5983 22.0286 28.0098 17.538 28.0098C11.2446 28.0098 5.57743 25.6832 1.28932 21.8112C0.952649 21.507 1.25254 21.0918 1.65757 21.3276C6.28407 24.0198 12.0058 25.6414 17.9156 25.6414C21.9021 25.6414 26.2843 24.8143 30.317 23.1039C30.9245 22.845 31.4345 23.5037 30.8399 23.9438M32.3359 22.235C32.7964 22.8245 31.8241 25.2518 31.3901 26.336C31.2585 26.6641 31.5405 26.7965 31.8378 26.5479C33.7669 24.9339 34.266 21.5515 33.8712 21.0628C33.4791 20.5783 30.106 20.1614 28.0469 21.607C27.7299 21.8291 27.7846 22.1367 28.1358 22.094C29.2951 21.9556 31.8762 21.6454 32.3359 22.235Z" fill="black"/>
<path fill-rule="evenodd" clip-rule="evenodd" d="M27.1284 17.8887L30.8723 8.35981C30.9509 8.16669 30.9911 8.03086 30.9911 7.95136C30.9911 7.81553 30.9116 7.74717 30.7527 7.74717H29.8001C29.6181 7.74717 29.4942 7.77622 29.425 7.83262C29.3567 7.88984 29.2892 8.01459 29.2208 8.20771L26.9234 14.8095L24.5414 8.20771C24.473 8.01459 24.4055 7.88984 24.3372 7.83262C24.2688 7.77622 24.1441 7.74717 23.9621 7.74717H22.9411C22.7822 7.74717 22.7027 7.81553 22.7027 7.95136C22.7027 8.03086 22.742 8.16669 22.8215 8.35981L26.1058 16.4594L25.7828 17.3274C25.5897 17.8725 25.3744 18.2467 25.136 18.4509C24.8977 18.6551 24.5627 18.7568 24.1321 18.7568C23.939 18.7568 23.7861 18.7448 23.6733 18.7226C23.5597 18.7004 23.4742 18.6884 23.4179 18.6884C23.2478 18.6884 23.1624 18.7961 23.1624 19.0114V19.4539C23.1624 19.6129 23.1906 19.7291 23.2479 19.8026C23.3042 19.876 23.3948 19.9307 23.5203 19.964C23.8032 20.0426 24.127 20.0836 24.4901 20.0836C25.1368 20.0836 25.6614 19.9136 26.0639 19.5727C26.468 19.2335 26.8226 18.6713 27.1284 17.8887ZM13.1524 10.089C12.9875 9.5388 12.7526 9.07061 12.4459 8.68527C12.14 8.29999 11.7657 8.00441 11.3232 7.80015C10.8815 7.59596 10.3876 7.49431 9.84252 7.49431C9.33249 7.49431 8.83265 7.59001 8.34566 7.78306C7.85785 7.97617 7.3982 8.2598 6.96671 8.63406L6.88209 8.08897C6.84791 7.86256 6.7172 7.74888 6.48998 7.74888H5.74151C5.5151 7.74888 5.40149 7.86256 5.40149 8.08897V19.5411C5.40149 19.7684 5.5151 19.8812 5.74151 19.8812H6.74543C6.97266 19.8812 7.08545 19.7675 7.08545 19.5411V15.5597C7.82278 16.2287 8.70195 16.5635 9.72296 16.5635C10.2783 16.5635 10.7832 16.4525 11.2369 16.232C11.6906 16.0108 12.0759 15.7015 12.3938 15.3042C12.7116 14.9077 12.9585 14.4259 13.1336 13.8577C13.3096 13.2904 13.3976 12.6548 13.3976 11.9516C13.3993 11.2604 13.3165 10.6393 13.1524 10.089ZM9.33249 15.2016C8.5601 15.2016 7.8117 14.93 7.08634 14.3849V9.63799C7.80056 9.11593 8.56099 8.85528 9.36667 8.85528C10.9097 8.85528 11.6812 9.91649 11.6812 12.0371C11.6803 14.1473 10.8977 15.2016 9.33249 15.2016ZM20.8257 8.16238C20.3147 7.72071 19.521 7.49944 18.4436 7.49944C17.9104 7.49944 17.3774 7.54811 16.8442 7.64381C16.3102 7.74033 15.8626 7.86769 15.4994 8.02662C15.3636 8.08384 15.2722 8.14277 15.2268 8.20511C15.1816 8.26752 15.1585 8.37861 15.1585 8.53665V8.99541C15.1585 9.19967 15.232 9.30214 15.3798 9.30214C15.4251 9.30214 15.4738 9.2936 15.525 9.27651C15.5763 9.25942 15.619 9.24574 15.6524 9.23378C16.5264 8.9732 17.3594 8.84249 18.154 8.84249C18.8341 8.84249 19.3108 8.96725 19.5834 9.21758C19.8559 9.46709 19.9918 9.89769 19.9918 10.5103V11.6329C19.1981 11.4398 18.4829 11.3442 17.8473 11.3442C16.8494 11.3442 16.0556 11.5911 15.4652 12.084C14.8758 12.577 14.5801 13.2383 14.5801 14.0662C14.5801 14.8386 14.8185 15.4528 15.2952 15.9126C15.7711 16.3722 16.4179 16.6011 17.2347 16.6011C17.7225 16.6011 18.2129 16.5046 18.7068 16.3124C19.2006 16.1202 19.6509 15.8467 20.0592 15.4956L20.1447 16.0569C20.1789 16.2723 20.3036 16.3799 20.5198 16.3799H21.2512C21.4776 16.3799 21.5921 16.2663 21.5921 16.0398V10.2215C21.5912 9.29107 21.3357 8.60501 20.8256 8.16238H20.8257ZM19.9918 14.4592C19.6176 14.7429 19.2262 14.9582 18.8178 15.106C18.4095 15.2538 18.0182 15.3273 17.6439 15.3273C17.2013 15.3273 16.8613 15.2111 16.623 14.9786C16.3846 14.7463 16.2658 14.4148 16.2658 13.9833C16.2658 12.9965 16.9066 12.5027 18.1882 12.5027C18.4829 12.5027 18.7863 12.5232 19.098 12.5625C19.41 12.6027 19.7081 12.6565 19.9918 12.7239V14.4592Z" fill="black"/>
</svg>
