<svg width="30" height="30" viewBox="0 0 30 30" fill="none" xmlns="http://www.w3.org/2000/svg">
<g clip-path="url(#clip0_224_2586)">
<path d="M20.0187 17.9725C20.0187 17.5725 19.85 17.3525 19.5887 17.195C19.3262 17.045 19.0088 17.0263 18.5763 17.0263H16.6475V20.5512H17.4913V19.2675H18.3913C18.6913 19.2675 18.8787 19.2975 18.9887 19.4237C19.1387 19.5862 19.1188 19.8988 19.1188 20.1113V20.5487H19.9437V19.855C19.9412 19.5425 19.9225 19.385 19.8088 19.21C19.7338 19.11 19.5838 18.985 19.3963 18.9175L19.4212 18.9075C19.6462 18.8175 20.0213 18.5362 20.0213 17.9737L20.0187 17.9725ZM18.9313 18.4812L18.8962 18.4787C18.7837 18.545 18.6525 18.5512 18.4837 18.5512H17.4713V17.7638H18.5012C18.6512 17.7638 18.8012 17.7637 18.9137 17.8262C19.0362 17.8862 19.1088 18.01 19.1013 18.145C19.1013 18.295 19.045 18.4138 18.9338 18.4825L18.9313 18.4812ZM25.3713 19.7962H23.75V20.5463H25.38C26.225 20.5463 26.6925 20.1988 26.6925 19.4413C26.6925 19.0913 26.61 18.8812 26.4587 18.7137C26.2675 18.5475 25.9688 18.4725 25.5463 18.455L25.0763 18.4362C24.9463 18.4362 24.8512 18.4362 24.7575 18.3987C24.645 18.3612 24.57 18.2675 24.57 18.1362C24.57 18.0237 24.5913 17.9287 24.6825 17.8737C24.7863 17.8162 24.9037 17.7913 25.0225 17.7988H26.56V17.0463H24.8725C23.9925 17.0463 23.675 17.5925 23.675 18.0963C23.675 19.2213 24.645 19.165 25.4338 19.1838C25.5638 19.1838 25.6588 19.2025 25.715 19.2587C25.7725 19.2962 25.8175 19.3912 25.8175 19.4837C25.8175 19.58 25.7737 19.6713 25.7175 19.7088C25.6425 19.775 25.53 19.7962 25.3713 19.7962ZM0 0V12.62L1.0125 10.275H3.2L3.48125 10.855V10.275H6.035L6.5975 11.55L7.14375 10.2838H15.2713C15.64 10.2838 15.9712 10.355 16.2162 10.5788V10.2912H18.45V10.5788C18.8338 10.3663 19.3075 10.2912 19.85 10.2912H23.1075L23.4075 10.8738V10.2912H25.805L26.1225 10.8725V10.29H28.445V15.225H26.0875L25.6375 14.475V15.2062H22.6962L22.3762 14.4187H21.6475L21.31 15.1863H19.7938C19.1938 15.1863 18.7438 15.0563 18.4438 14.8863V15.1863H14.8312V14.0813C14.8312 13.9313 14.7938 13.9313 14.7 13.9125H14.5687V15.2075H7.58375V14.6075L7.32125 15.2075H5.8625L5.61 14.6075V15.1888H2.79375L2.47375 14.4088H1.75L1.43 15.1888H0V30H29.7325V21.115C29.395 21.2838 28.9662 21.34 28.5162 21.34H26.3625V21.0212C26.1 21.2275 25.65 21.34 25.22 21.34H18.3875V20.215C18.3875 20.065 18.365 20.065 18.2375 20.065H18.1438V21.3425H15.8938V20.01C15.5213 20.18 15.09 20.1975 14.7337 20.18H14.4662V21.3238H11.7412L11.0662 20.5525L10.3537 21.3025H5.9275V16.39H10.44L11.0875 17.1425L11.78 16.3925H14.795C15.145 16.3925 15.72 16.43 15.9725 16.6737V16.3737H18.6937C18.9462 16.3737 19.4987 16.43 19.8225 16.655V16.355H23.9037V16.655C24.1075 16.45 24.5388 16.355 24.9075 16.355H27.27V16.655C27.5125 16.4675 27.85 16.355 28.32 16.355H29.79V0H0ZM26.445 18.6937C26.45 18.7 26.4537 18.7087 26.4587 18.7137C26.4712 18.7262 26.4875 18.7263 26.4975 18.7388L26.445 18.695V18.6937ZM29.785 16.3525H29.8662V17.0463H29.785V16.3525ZM29.8312 18.7875V18.7812C29.7937 18.75 29.7738 18.7212 29.7375 18.6937C29.55 18.5025 29.25 18.425 28.7825 18.4125L28.3325 18.3975C28.1825 18.3975 28.09 18.3887 27.995 18.36C27.8825 18.3225 27.8075 18.2287 27.8075 18.0975C27.8075 17.985 27.845 17.8975 27.92 17.8425C28.015 17.7863 28.1075 17.78 28.2575 17.78H29.7863V17.045H28.1825C27.32 17.045 26.9825 17.5912 26.9825 18.095C26.9825 19.22 27.9575 19.1637 28.745 19.1825C28.875 19.1825 28.97 19.2013 29.025 19.2575C29.0825 19.295 29.12 19.39 29.12 19.4825C29.12 19.57 29.0775 19.655 29.0075 19.7075C28.9512 19.7775 28.8375 19.795 28.67 19.795H27.06V20.5512H28.6687C29.1937 20.5512 29.5862 20.4037 29.7937 20.1012H29.8312C29.9437 19.9337 30 19.7262 30 19.4475C30 19.1475 29.9437 18.96 29.8312 18.79V18.7875ZM23.2463 17.76V17.0312H20.4525V20.5725H23.2463V19.8413H21.2838V19.1288H23.2V18.3987H21.285V17.7612M16.8875 10.9837H17.7437V14.5H16.8887L16.8875 10.9837ZM16.4075 11.9288L16.3988 11.9362C16.3988 11.5437 16.2363 11.3113 15.9738 11.1563C15.7025 11 15.3862 10.9875 14.9612 10.9875H13.0375V14.5125H13.88V13.22H14.78C15.08 13.22 15.2675 13.2575 15.3887 13.37C15.5412 13.54 15.5225 13.8425 15.5225 14.055V14.4975H16.3688V13.8063C16.3688 13.4938 16.3487 13.3375 16.2312 13.1613C16.1187 13.0275 15.9787 12.9237 15.8187 12.865C16.0337 12.7775 16.4087 12.49 16.4087 11.9275L16.4075 11.9288ZM15.3387 12.4238H15.32C15.2075 12.4913 15.0762 12.4937 14.9075 12.4937H13.875V11.715H14.9063C15.0563 11.715 15.2063 11.72 15.3188 11.7775C15.4313 11.8275 15.5062 11.9375 15.5062 12.09C15.5062 12.2425 15.4475 12.365 15.3387 12.4225V12.4238ZM19.9 11.7163H20.69V10.9662H19.885C19.305 10.9662 18.88 11.0975 18.61 11.3787C18.2525 11.7537 18.1575 12.2413 18.1575 12.7663C18.1575 13.4063 18.3112 13.8075 18.6075 14.1087C18.8975 14.4062 19.4137 14.4963 19.82 14.4963H20.795L21.1138 13.7125H22.8513L23.1787 14.4963H24.8787V11.8588L26.4687 14.4963H27.6562L27.6588 14.4987V10.9825H26.8038V13.4362L25.3288 10.9862H24.0538V14.25L22.6375 10.93H21.3825L20.2038 13.705H19.8287C19.6075 13.705 19.3763 13.6675 19.2438 13.5375C19.0875 13.35 19.0112 13.0875 19.0112 12.71C19.0112 12.3538 19.1112 12.0725 19.2537 11.9225C19.42 11.7538 19.5937 11.7163 19.8987 11.7163H19.9ZM21.985 11.5813L22.565 12.9788V12.9813H21.4025L21.985 11.5813ZM2.975 13.7125L3.2925 14.4975H5V11.7412L6.215 14.4975H6.945L8.16125 11.745L8.18 14.4975H9.0425V10.985H7.6475L6.63875 13.365L5.54375 10.9837H4.17875V14.3125L2.75625 10.9837H1.51L0.0125 14.4963H0.9125L1.2375 13.7137L2.975 13.7125ZM2.115 11.5813L2.69 12.9788L2.68625 12.9813H1.5425L2.11375 11.5813H2.115ZM14.82 17.025H12.1425L11.08 18.1788L10.0487 17.0263H6.6825V20.5512H10L11.0687 19.3862L12.0987 20.5487H13.7262V19.3737H14.7738C15.5238 19.3737 16.2363 19.1687 16.2363 18.1925L16.2287 18.1887C16.2287 17.2137 15.4812 17.0263 14.8187 17.0263L14.82 17.025ZM9.5875 19.8162L9.57 19.8137H7.525V19.1175H9.3625V18.4H7.525V17.7625H9.625L10.5412 18.7875L9.58625 19.8175L9.5875 19.8162ZM12.89 20.2288L11.6025 18.795L12.89 17.41V20.2262V20.2288ZM14.8312 18.6563H13.725V17.76H14.8312C15.1312 17.76 15.3562 17.8825 15.3562 18.19C15.3562 18.4938 15.1687 18.655 14.8312 18.655V18.6563ZM12.4588 11.7163V10.9837H9.6625V14.5H12.4588V13.775H10.5V13.07H12.4088V12.35H10.5V11.7163" fill="black"/>
</g>
<defs>
<clipPath id="clip0_224_2586">
<rect width="30" height="30" fill="white"/>
</clipPath>
</defs>
</svg>
