<svg width="35" height="23" viewBox="0 0 35 23" fill="none" xmlns="http://www.w3.org/2000/svg">
<g clip-path="url(#clip0_224_2645)">
<path fill-rule="evenodd" clip-rule="evenodd" d="M31.1865 4.0127H29.5503H21.9878H20.3514L19.2495 5.32802L15.6736 9.59603L14.5716 10.9114H12.9351H5.51623H3.87972L4.96463 9.57944L5.47814 8.94899L6.56305 7.61706H4.92655H2.8178H1.6365C0.736483 7.61706 0 8.41766 0 9.39605V12.8317V13.1497C0 14.1283 0.736483 14.9289 1.6365 14.9289H2.09629H19.2665H20.4975C21.3975 14.9289 22.627 14.3343 23.2297 13.6075L26.0827 10.1673L31.1865 4.0127Z" fill="black"/>
<path d="M14.5567 0.5H33.3633C33.9487 0.5 34.5 1.03675 34.5 1.7793V5.53223C34.5 6.27466 33.9487 6.81152 33.3633 6.81152H29.5166L29.9336 6.30859L30.4766 5.65332L31.5713 4.33203L32.25 3.5127H20.1182L19.9678 3.69141L14.3389 10.416H4.88187L11.9131 1.98828L12.2051 1.6377L12.2041 1.63672C12.4491 1.34341 12.8448 1.05471 13.295 0.837891C13.7468 0.620225 14.2043 0.5 14.5567 0.5Z" fill="white" stroke="black"/>
<path fill-rule="evenodd" clip-rule="evenodd" d="M3.68814 21.3099C3.68814 21.0649 3.63358 20.8527 3.52474 20.6736C3.41575 20.4945 3.27241 20.3578 3.09459 20.2635C3.27241 20.1693 3.41021 20.0301 3.50812 19.8463C3.60588 19.6625 3.65477 19.4552 3.65477 19.2242V19.0969C3.65477 18.814 3.60368 18.5785 3.50147 18.3898C3.39913 18.2013 3.25566 18.0504 3.07119 17.9374C2.88673 17.8242 2.66542 17.743 2.4077 17.6933C2.1497 17.6438 1.86302 17.6192 1.54728 17.6192C1.44064 17.6192 1.32943 17.6214 1.21393 17.6262C1.09816 17.6307 0.985982 17.6368 0.877129 17.6438C0.768138 17.6509 0.668016 17.6593 0.577033 17.6686C0.485769 17.6782 0.411259 17.6876 0.35351 17.6968C0.224586 17.7207 0.133457 17.7629 0.0801343 17.8241C0.0268245 17.8855 9.15527e-05 17.9963 9.15527e-05 18.1565V22.4554C9.15527e-05 22.6157 0.0277841 22.7264 0.0834627 22.7876C0.138996 22.849 0.233446 22.8913 0.366949 22.9149C0.433555 22.929 0.513601 22.9408 0.60694 22.9503C0.700287 22.9597 0.801377 22.9679 0.910368 22.9749C1.01936 22.982 1.13153 22.9879 1.24717 22.9927C1.36281 22.9972 1.47609 22.9997 1.5873 22.9997C1.87632 22.9997 2.14858 22.9761 2.40438 22.929C2.65988 22.882 2.88215 22.7982 3.07119 22.6779C3.26022 22.5578 3.41021 22.3952 3.52141 22.1902C3.63248 21.9851 3.68814 21.727 3.68814 21.4159V21.3099ZM2.55435 19.2807C2.55435 19.3562 2.54326 19.4281 2.52096 19.4964C2.49867 19.5647 2.4621 19.6236 2.411 19.6733C2.35976 19.7227 2.29094 19.7627 2.20424 19.7933C2.11755 19.824 2.00745 19.8392 1.87408 19.8392H1.12722V18.6161C1.1494 18.6161 1.18386 18.6152 1.23054 18.6128C1.27722 18.6105 1.32609 18.6095 1.37719 18.6095H1.52399H1.63394C1.97628 18.6095 2.21531 18.6554 2.3509 18.7473C2.48647 18.8392 2.55433 18.9818 2.55433 19.175L2.55435 19.2807ZM2.58111 21.3877C2.58111 21.5856 2.51547 21.7389 2.38432 21.8473C2.25318 21.9558 2.01636 22.0101 1.67402 22.0101H1.56406C1.51282 22.0101 1.45951 22.0093 1.40397 22.0062C1.3483 22.0039 1.29498 22.0022 1.24388 22.0022H1.12727V20.6801H1.87414C2.14086 20.6801 2.32532 20.7427 2.42767 20.8675C2.52987 20.9924 2.58111 21.1397 2.58111 21.3094V21.3877ZM7.34285 20.2706C7.34285 20.0115 7.30616 19.7909 7.23276 19.6095C7.1595 19.4281 7.05605 19.2796 6.92269 19.164C6.78933 19.0486 6.62592 18.9639 6.43244 18.9096C6.23911 18.8554 6.02238 18.8282 5.78225 18.8282C5.55983 18.8282 5.3431 18.8449 5.13205 18.8779C4.92072 18.9108 4.75287 18.9438 4.62851 18.9767C4.54403 19.0005 4.50179 19.0521 4.50179 19.1322V19.7049C4.50179 19.7522 4.51286 19.7852 4.53519 19.8039C4.55734 19.8228 4.58617 19.8323 4.62188 19.8323H4.65512C4.70857 19.8273 4.77518 19.8216 4.85523 19.8145C4.93528 19.8075 5.02529 19.8018 5.12541 19.7967C5.22541 19.7923 5.32983 19.7887 5.43881 19.7863C5.54767 19.784 5.65555 19.7829 5.76232 19.7829C5.91784 19.7829 6.04012 19.8136 6.12904 19.8748C6.21795 19.9362 6.2624 20.0682 6.2624 20.2708V20.5254H5.90233C5.32872 20.5254 4.91187 20.6208 4.65179 20.8117C4.39171 21.0025 4.26167 21.3054 4.26167 21.7202V21.784C4.26167 22.0148 4.29397 22.208 4.35834 22.3635C4.42273 22.5192 4.50846 22.6441 4.61509 22.7385C4.72187 22.8326 4.8429 22.8999 4.97862 22.9398C5.1142 22.9799 5.25546 23 5.40211 23C5.60223 23 5.77451 22.9716 5.91895 22.9151C6.06339 22.8586 6.20008 22.7808 6.32915 22.6818V22.7949C6.32915 22.8326 6.34243 22.8657 6.36919 22.8938C6.39595 22.9222 6.42694 22.9363 6.46253 22.9363H7.20953C7.24497 22.9363 7.27614 22.9222 7.30287 22.8938C7.32963 22.8657 7.34291 22.8326 7.34291 22.7949L7.34285 20.2706ZM6.28246 21.9816C6.20242 22.0241 6.11669 22.0606 6.02571 22.0911C5.93444 22.122 5.83778 22.1371 5.73558 22.1371C5.59321 22.1371 5.48769 22.1159 5.41872 22.0735C5.34975 22.0311 5.3154 21.9345 5.3154 21.7838V21.72C5.3154 21.6351 5.32422 21.5598 5.34216 21.4937C5.35991 21.4278 5.39105 21.3735 5.4355 21.3312C5.47984 21.2887 5.53993 21.2569 5.61554 21.2356C5.69116 21.2145 5.78671 21.2039 5.90235 21.2039H6.28249L6.28246 21.9816ZM11.4244 22.7876V20.4331C11.4244 20.2119 11.4077 20.0031 11.3744 19.8075C11.341 19.6121 11.281 19.4422 11.1943 19.2984C11.1076 19.1546 10.9876 19.0402 10.8341 18.9555C10.6808 18.8707 10.484 18.8282 10.2439 18.8282C10.0305 18.8282 9.84145 18.8556 9.67707 18.9102C9.51255 18.9648 9.33916 19.061 9.15691 19.1987V19.0273C9.15691 18.9894 9.14345 18.9561 9.11687 18.9276C9.09011 18.8992 9.05898 18.8848 9.02339 18.8848H8.27653C8.24078 18.8848 8.20978 18.8989 8.18319 18.9272C8.15643 18.9556 8.14315 18.9886 8.14315 19.0262V22.7876C8.14315 22.8254 8.15744 22.8596 8.18649 22.8901C8.21529 22.9208 8.24756 22.9361 8.28315 22.9361H9.09011C9.12571 22.9361 9.15686 22.9208 9.18346 22.8903C9.21022 22.8597 9.22349 22.8257 9.22349 22.788V20.0084C9.33913 19.9426 9.44798 19.8886 9.55033 19.8463C9.65253 19.8039 9.75252 19.7827 9.85043 19.7827C9.95263 19.7827 10.036 19.7933 10.1005 19.8146C10.1649 19.8357 10.2149 19.8721 10.2505 19.9241C10.2861 19.9757 10.3106 20.0438 10.3239 20.1283C10.3372 20.2131 10.344 20.3166 10.344 20.4389V22.788C10.344 22.8257 10.3573 22.8597 10.3841 22.8903C10.4106 22.9208 10.4417 22.9361 10.4774 22.9361H11.2844C11.3198 22.9361 11.3521 22.9208 11.381 22.8901C11.41 22.8596 11.4244 22.8254 11.4244 22.7876ZM14.7057 22.7311V22.102C14.7057 22.0641 14.6933 22.0348 14.669 22.0135C14.6445 21.9922 14.6144 21.9816 14.579 21.9816H14.5655C14.441 21.9957 14.3222 22.0076 14.2088 22.017C14.0953 22.0264 13.943 22.0311 13.7519 22.0311C13.6763 22.0311 13.6052 22.0181 13.5385 21.9922C13.4717 21.9663 13.414 21.9216 13.3651 21.8578C13.316 21.7943 13.2773 21.7094 13.2483 21.6034C13.2194 21.4973 13.205 21.3664 13.205 21.211V20.6171C13.205 20.4615 13.2194 20.3306 13.2483 20.2246C13.2773 20.1185 13.3161 20.0338 13.3651 19.97C13.414 19.9065 13.4717 19.8617 13.5385 19.8357C13.6052 19.8098 13.6763 19.7968 13.7519 19.7968C13.943 19.7968 14.0953 19.8018 14.2088 19.8111C14.3222 19.8205 14.441 19.8324 14.5655 19.8463H14.579C14.6144 19.8463 14.6445 19.8358 14.669 19.8146C14.6934 19.7934 14.7057 19.764 14.7057 19.7263V19.097C14.7057 19.0452 14.6945 19.0086 14.6723 18.9873C14.65 18.9661 14.6144 18.9484 14.5655 18.9343C14.4722 18.9108 14.351 18.8873 14.2021 18.8636C14.0531 18.8401 13.8786 18.8283 13.6785 18.8283C13.2072 18.8283 12.8304 18.9815 12.5482 19.288C12.2658 19.5943 12.1247 20.0374 12.1247 20.6172V21.211C12.1247 21.7908 12.2658 22.2339 12.5482 22.5402C12.8304 22.8467 13.2072 22.9999 13.6785 22.9999C13.8786 22.9999 14.0531 22.988 14.2021 22.9646C14.351 22.9408 14.4722 22.9174 14.5655 22.8937C14.6144 22.8797 14.65 22.862 14.6723 22.8407C14.6944 22.8196 14.7057 22.7829 14.7057 22.7311ZM18.4072 20.6665C18.4072 20.3836 18.3703 20.1292 18.2968 19.903C18.2232 19.6767 18.1163 19.4847 17.976 19.3267C17.8358 19.1689 17.662 19.0463 17.4549 18.9591C17.2477 18.872 17.0082 18.8282 16.7364 18.8282C16.4647 18.8282 16.2253 18.872 16.0181 18.9591C15.8109 19.0463 15.636 19.1689 15.4935 19.3267C15.3509 19.4847 15.2429 19.6767 15.1695 19.903C15.0958 20.1292 15.0591 20.3836 15.0591 20.6665V21.1615C15.0591 21.4442 15.0958 21.6988 15.1695 21.9251C15.2429 22.1513 15.3509 22.3434 15.4935 22.5013C15.636 22.6593 15.8109 22.7818 16.0181 22.869C16.2253 22.956 16.4647 22.9998 16.7364 22.9998C17.0082 22.9998 17.2477 22.9561 17.4549 22.869C17.662 22.7818 17.8358 22.6593 17.976 22.5013C18.1163 22.3434 18.2232 22.1513 18.2968 21.9251C18.3703 21.6988 18.4072 21.4442 18.4072 21.1615V20.6665ZM17.3267 21.1615C17.3267 21.7413 17.1299 22.0311 16.7364 22.0311C16.5419 22.0311 16.3938 21.9581 16.2922 21.8119C16.1904 21.6658 16.1396 21.4489 16.1396 21.1615V20.6665C16.1396 20.3791 16.1904 20.1634 16.2922 20.0195C16.3938 19.8758 16.5419 19.8039 16.7364 19.8039C17.1299 19.8039 17.3267 20.0915 17.3267 20.6665V21.1615ZM22.3752 22.7876V20.4331C22.3752 20.2119 22.3583 20.0031 22.3252 19.8075C22.2919 19.6121 22.2318 19.4422 22.1449 19.2984C22.0582 19.1546 21.9383 19.0402 21.785 18.9555C21.6316 18.8707 21.4348 18.8282 21.1948 18.8282C20.9814 18.8282 20.7923 18.8556 20.6278 18.9102C20.4633 18.9648 20.2899 19.061 20.1077 19.1987V19.0273C20.1077 18.9894 20.0943 18.9561 20.0675 18.9276C20.0411 18.8992 20.0098 18.8848 19.9743 18.8848H19.2273C19.1917 18.8848 19.1607 18.8989 19.134 18.9272C19.1074 18.9556 19.0939 18.9886 19.0939 19.0262V22.7876C19.0939 22.8254 19.1083 22.8596 19.1373 22.8901C19.1662 22.9208 19.1983 22.9361 19.2341 22.9361H20.041C20.0765 22.9361 20.1076 22.9208 20.1344 22.8903C20.161 22.8597 20.1744 22.8257 20.1744 22.788V20.0084C20.2899 19.9426 20.3989 19.8886 20.5011 19.8463C20.6034 19.8039 20.7034 19.7827 20.8013 19.7827C20.9035 19.7827 20.9869 19.7933 21.0513 19.8146C21.1157 19.8357 21.1658 19.8721 21.2014 19.9241C21.237 19.9757 21.2614 20.0438 21.2748 20.1283C21.2881 20.2131 21.2948 20.3166 21.2948 20.4389V22.788C21.2948 22.8257 21.3081 22.8597 21.3348 22.8903C21.3616 22.9208 21.3926 22.9361 21.4282 22.9361H22.2352C22.2707 22.9361 22.303 22.9208 22.3319 22.8901C22.3607 22.8596 22.3752 22.8254 22.3752 22.7876ZM25.283 22.8035V22.2563C25.283 22.1769 25.2364 22.1371 25.143 22.1371H24.8161C24.7139 22.1371 24.6517 22.1171 24.6295 22.0771C24.6072 22.0371 24.5961 21.9462 24.5961 21.8049V19.7473H25.143C25.1785 19.7473 25.2096 19.7331 25.2364 19.7046C25.2631 19.6762 25.2764 19.643 25.2764 19.6048V19.0274C25.2764 18.9895 25.2631 18.956 25.2364 18.9275C25.2096 18.8991 25.1785 18.8848 25.143 18.8848H24.5961V18.1353C24.5961 18.0977 24.585 18.0682 24.5631 18.0469C24.5409 18.0258 24.5121 18.0153 24.4768 18.0153H24.457L23.6484 18.1636C23.613 18.1732 23.5818 18.1896 23.5555 18.2131C23.529 18.2367 23.5157 18.2673 23.5157 18.305V18.8848H22.9823C22.9465 18.8848 22.9144 18.9002 22.8855 18.9307C22.8565 18.9614 22.8422 18.9956 22.8422 19.0332V19.5C22.8422 19.5377 22.8565 19.5696 22.8855 19.5954C22.9144 19.6214 22.9466 19.639 22.9823 19.6484L23.5157 19.7404V21.7907C23.5157 22.0408 23.5401 22.2444 23.5886 22.4022C23.6372 22.5602 23.708 22.684 23.8006 22.7735C23.8934 22.8631 24.0096 22.9232 24.1488 22.9538C24.2879 22.9844 24.4482 22.9998 24.6296 22.9998C24.7272 22.9998 24.8141 22.9953 24.8897 22.9857C24.9652 22.9763 25.0541 22.9624 25.1564 22.9436C25.2409 22.9297 25.283 22.8829 25.283 22.8035ZM28.8442 20.2706C28.8442 20.0115 28.8077 19.7909 28.7342 19.6095C28.6609 19.4282 28.5576 19.2796 28.4242 19.164C28.2909 19.0486 28.1274 18.9639 27.934 18.9096C27.7406 18.8554 27.5239 18.8283 27.2838 18.8283C27.0612 18.8283 26.8446 18.8449 26.6336 18.8779C26.4222 18.9108 26.2544 18.9438 26.13 18.9767C26.0453 19.0005 26.0033 19.0522 26.0033 19.1322V19.7049C26.0033 19.7522 26.0143 19.7852 26.0366 19.8039C26.0589 19.8228 26.0876 19.8323 26.1233 19.8323H26.1566C26.2101 19.8273 26.2767 19.8216 26.3568 19.8145C26.4368 19.8075 26.5268 19.8018 26.6268 19.7968C26.7269 19.7923 26.8314 19.7887 26.9403 19.7863C27.0492 19.784 27.1571 19.7829 27.2637 19.7829C27.4194 19.7829 27.5417 19.8136 27.6306 19.8748C27.7195 19.9362 27.7639 20.0682 27.7639 20.2708V20.5254H27.4039C26.8301 20.5254 26.4134 20.6208 26.1533 20.8117C25.8932 21.0025 25.7632 21.3054 25.7632 21.7202V21.7841C25.7632 22.0149 25.7953 22.2081 25.8599 22.3636C25.9241 22.5192 26.01 22.6441 26.1166 22.7385C26.2234 22.8326 26.3444 22.8999 26.4802 22.9398C26.6157 22.9799 26.7569 23 26.9036 23C27.1038 23 27.2759 22.9716 27.4205 22.9152C27.5649 22.8586 27.7015 22.7808 27.8307 22.6819V22.7949C27.8307 22.8326 27.844 22.8657 27.8707 22.8939C27.8973 22.9222 27.9285 22.9363 27.9641 22.9363H28.7111C28.7465 22.9363 28.7777 22.9222 28.8044 22.8939C28.831 22.8657 28.8443 22.8326 28.8443 22.7949L28.8442 20.2706ZM27.784 21.9816C27.7039 22.0241 27.6182 22.0606 27.5272 22.0912C27.4358 22.122 27.3393 22.1371 27.2371 22.1371C27.0947 22.1371 26.9892 22.1159 26.9202 22.0735C26.8513 22.0311 26.8169 21.9345 26.8169 21.7839V21.72C26.8169 21.6351 26.8258 21.5598 26.8437 21.4937C26.8613 21.4278 26.8924 21.3735 26.937 21.3312C26.9814 21.2888 27.0415 21.2569 27.1171 21.2356C27.1927 21.2145 27.2882 21.204 27.4039 21.204H27.784L27.784 21.9816ZM32.1256 22.7311V22.102C32.1256 22.0641 32.1132 22.0348 32.0889 22.0135C32.0644 21.9922 32.0344 21.9816 31.9989 21.9816H31.9856C31.8611 21.9957 31.7421 22.0076 31.6287 22.017C31.5154 22.0264 31.3631 22.0311 31.172 22.0311C31.0962 22.0311 31.025 22.0182 30.9585 21.9922C30.8918 21.9663 30.8339 21.9216 30.785 21.8579C30.7361 21.7943 30.6972 21.7094 30.6684 21.6034C30.6393 21.4973 30.6251 21.3665 30.6251 21.211V20.6171C30.6251 20.4615 30.6394 20.3307 30.6684 20.2247C30.6972 20.1185 30.7361 20.0338 30.785 19.9701C30.8339 19.9065 30.8918 19.8617 30.9585 19.8358C31.025 19.8099 31.0962 19.7969 31.172 19.7969C31.3631 19.7969 31.5154 19.8018 31.6287 19.8111C31.7421 19.8205 31.8611 19.8324 31.9856 19.8464H31.9989C32.0344 19.8464 32.0644 19.8359 32.0889 19.8147C32.1132 19.7934 32.1256 19.764 32.1256 19.7263V19.097C32.1256 19.0452 32.1145 19.0086 32.0922 18.9874C32.0697 18.9662 32.0344 18.9485 31.9855 18.9344C31.8922 18.9109 31.7709 18.8874 31.622 18.8636C31.473 18.8402 31.2986 18.8284 31.0985 18.8284C30.627 18.8284 30.2504 18.9815 29.9681 19.2881C29.6857 19.5943 29.5446 20.0374 29.5446 20.6172V21.2111C29.5446 21.7909 29.6857 22.234 29.9681 22.5402C30.2504 22.8468 30.627 22.9999 31.0985 22.9999C31.2986 22.9999 31.473 22.988 31.622 22.9647C31.7709 22.9409 31.8922 22.9174 31.9855 22.8938C32.0344 22.8797 32.0697 22.8621 32.0922 22.8408C32.1145 22.8196 32.1256 22.783 32.1256 22.7311ZM35 22.8035V22.2563C35 22.1769 34.9533 22.1371 34.86 22.1371H34.5332C34.4308 22.1371 34.3686 22.1171 34.3465 22.0771C34.3242 22.0371 34.3131 21.9462 34.3131 21.8049V19.7473H34.86C34.8954 19.7473 34.9266 19.7331 34.9533 19.7046C34.9799 19.6762 34.9934 19.643 34.9934 19.6048V19.0274C34.9934 18.9895 34.9799 18.956 34.9533 18.9275C34.9266 18.8991 34.8954 18.8848 34.86 18.8848H34.3131V18.1353C34.3131 18.0977 34.302 18.0682 34.2797 18.0469C34.2578 18.0258 34.229 18.0153 34.1937 18.0153H34.1737L33.3651 18.1636C33.3297 18.1732 33.2986 18.1896 33.2723 18.2131C33.2459 18.2367 33.2326 18.2673 33.2326 18.305V18.8848H32.6991C32.6634 18.8848 32.6313 18.9002 32.6023 18.9307C32.5734 18.9614 32.559 18.9956 32.559 19.0332V19.5C32.559 19.5377 32.5734 19.5696 32.6023 19.5954C32.6313 19.6214 32.6634 19.639 32.6991 19.6484L33.2326 19.7404V21.7907C33.2326 22.0408 33.257 22.2444 33.3054 22.4022C33.3541 22.5602 33.4248 22.684 33.5176 22.7735C33.6102 22.8631 33.7263 22.9232 33.8656 22.9538C34.0048 22.9844 34.165 22.9998 34.3464 22.9998C34.4441 22.9998 34.5308 22.9953 34.6065 22.9857C34.682 22.9763 34.7709 22.9624 34.8733 22.9436C34.9576 22.9297 35 22.8829 35 22.8035Z" fill="black"/>
</g>
<defs>
<clipPath id="clip0_224_2645">
<rect width="35" height="23" fill="white"/>
</clipPath>
</defs>
</svg>
