<svg width="24" height="24" viewBox="0 0 24 24" fill="none" xmlns="http://www.w3.org/2000/svg">
<g clip-path="url(#clip0_224_2630)">
<path d="M23.59 3.475C23.3353 2.77466 22.9303 2.13864 22.4033 1.61169C21.8764 1.08475 21.2403 0.679682 20.54 0.425005C19.23 0.00500491 18.04 0.00500488 15.62 0.00500488H8.36C5.96 0.00500488 4.75 0.00500488 3.46 0.405005C2.75864 0.660744 2.12198 1.06734 1.59496 1.59608C1.06795 2.12482 0.663442 2.76281 0.41 3.465C0 4.765 0 5.965 0 8.365V15.635C0 18.045 0 19.235 0.4 20.535C0.654678 21.2354 1.05974 21.8714 1.58669 22.3983C2.11363 22.9253 2.74966 23.3303 3.45 23.585C4.75 23.995 5.95 23.995 8.35 23.995H15.63C18.04 23.995 19.24 23.995 20.53 23.595C21.2332 23.3405 21.8718 22.9345 22.4007 22.4057C22.9295 21.8768 23.3355 21.2382 23.59 20.535C24 19.235 24 18.035 24 15.635V8.385C24 5.975 24 4.775 23.59 3.475ZM17.42 8.105L16.49 9.035C16.3994 9.11931 16.2807 9.167 16.1569 9.16884C16.0332 9.17069 15.9131 9.12657 15.82 9.045C14.9193 8.28437 13.7789 7.86644 12.6 7.865C11.63 7.865 10.66 8.185 10.66 9.075C10.66 9.975 11.7 10.275 12.9 10.725C15 11.425 16.74 12.305 16.74 14.365C16.74 16.605 15 18.145 12.16 18.315L11.9 19.515C11.877 19.6253 11.8167 19.7243 11.7293 19.7953C11.6419 19.8663 11.5326 19.9051 11.42 19.905H9.63L9.54 19.895C9.41188 19.8663 9.3002 19.7883 9.2291 19.6779C9.158 19.5675 9.13318 19.4335 9.16 19.305L9.44 18.035C8.36222 17.7648 7.37104 17.2245 6.56 16.465V16.455C6.51525 16.4104 6.47975 16.3574 6.45552 16.2991C6.43129 16.2407 6.41882 16.1782 6.41882 16.115C6.41882 16.0518 6.43129 15.9893 6.45552 15.9309C6.47975 15.8726 6.51525 15.8196 6.56 15.775L7.56 14.805C7.65081 14.7199 7.77057 14.6726 7.895 14.6726C8.01943 14.6726 8.13919 14.7199 8.23 14.805C9.14 15.665 10.36 16.145 11.62 16.125C12.92 16.125 13.79 15.575 13.79 14.705C13.79 13.835 12.91 13.605 11.25 12.985C9.49 12.355 7.82 11.465 7.82 9.385C7.82 6.965 9.83 5.785 12.21 5.675L12.46 4.445C12.4833 4.33569 12.5439 4.23792 12.6316 4.16855C12.7192 4.09918 12.8283 4.06256 12.94 4.065H14.72L14.82 4.075C15.08 4.135 15.25 4.385 15.19 4.645L14.92 6.015C15.82 6.315 16.67 6.785 17.4 7.405L17.42 7.425C17.61 7.625 17.61 7.925 17.42 8.105Z" fill="black"/>
</g>
<defs>
<clipPath id="clip0_224_2630">
<rect width="24" height="24" fill="white"/>
</clipPath>
</defs>
</svg>
