<svg width="24" height="24" viewBox="0 0 24 24" fill="none" xmlns="http://www.w3.org/2000/svg">
<path d="M16.506 11.982C16.5045 10.7647 16.1343 9.57635 15.4442 8.57351C14.7541 7.57068 13.7764 6.80036 12.64 6.36401V17.6C13.7765 17.1638 14.7542 16.3935 15.4444 15.3906C16.1345 14.3878 16.5046 13.1994 16.506 11.982ZM8.33 17.598V6.36501C7.19459 6.80225 6.21801 7.57273 5.52856 8.57523C4.83911 9.57772 4.46905 10.7653 4.467 11.982C4.46898 13.1986 4.83902 14.3861 5.52849 15.3885C6.21796 16.3908 7.19459 17.1611 8.33 17.598ZM10.486 2.48501C7.96741 2.48528 5.55207 3.48597 3.77125 5.26697C1.99044 7.04798 0.99 9.46343 0.99 11.982C0.990265 14.5001 1.99075 16.9149 3.77137 18.6953C5.552 20.4758 7.96694 21.476 10.485 21.476C15.73 21.476 19.98 17.226 19.981 11.982C19.9805 9.46359 18.9799 7.04845 17.1992 5.26756C15.4185 3.48667 13.0034 2.48581 10.485 2.48501H10.486ZM10.463 22.373C4.723 22.4 0 17.75 0 12.09C0 5.90501 4.723 1.62601 10.463 1.62701H13.153C18.822 1.62701 24 5.90301 24 12.09C24 17.748 18.824 22.373 13.152 22.373" fill="black"/>
</svg>
