<svg width="38" height="21" viewBox="0 0 38 21" fill="none" xmlns="http://www.w3.org/2000/svg">
<g clip-path="url(#clip0_224_2584)">
<path d="M23.085 11C23.085 11.6334 22.8972 12.2525 22.5454 12.7792C22.1936 13.3059 21.6935 13.7164 21.1084 13.9589C20.5233 14.2015 19.8794 14.2651 19.2582 14.1418C18.6369 14.0184 18.0662 13.7137 17.6181 13.266C17.17 12.8184 16.8647 12.2479 16.7408 11.6268C16.6168 11.0057 16.6798 10.3618 16.9217 9.77641C17.1637 9.19107 17.5738 8.6906 18.1001 8.33826C18.6264 7.98592 19.2454 7.79753 19.8788 7.79691H19.8819C21.6521 7.79691 23.085 9.23141 23.085 11ZM14.8517 7.83174C13.072 7.83174 11.6454 9.23141 11.6454 10.9826C11.6454 12.7527 13.0356 14.1239 14.8232 14.1239C15.3283 14.1239 15.7621 14.0242 16.2957 13.774V12.3917C15.827 12.862 15.4106 13.0504 14.8786 13.0504C13.6958 13.0504 12.8567 12.1922 12.8567 10.9731C12.8567 9.81724 13.7228 8.90524 14.8248 8.90524C15.3853 8.90524 15.8096 9.10474 16.2973 9.5829V8.20066C15.8541 7.95813 15.3569 7.83124 14.8517 7.83174ZM9.54434 10.278C8.83975 10.0167 8.63234 9.84574 8.63234 9.51957C8.63234 9.14115 9.00125 8.8514 9.50792 8.8514C9.85942 8.8514 10.1492 8.99549 10.4548 9.33907L11.0691 8.53474C10.5824 8.10102 9.95237 7.86297 9.3005 7.86657C8.23492 7.86657 7.42267 8.60599 7.42267 9.59082C7.42267 10.4205 7.80109 10.8448 8.90467 11.2422C9.36542 11.4053 9.59817 11.513 9.71692 11.5858C9.8247 11.6503 9.91381 11.7417 9.97545 11.8511C10.0371 11.9605 10.0691 12.0841 10.0684 12.2097C10.0684 12.6973 9.6805 13.0583 9.15642 13.0583C8.59592 13.0583 8.14467 12.7781 7.8755 12.2556L7.11709 12.9855C7.65859 13.7803 8.30775 14.1318 9.20234 14.1318C10.4231 14.1318 11.2781 13.3196 11.2781 12.1542C11.2749 11.1995 10.8791 10.7672 9.54434 10.278ZM38 8.30832C38.0004 8.42983 37.9527 8.54655 37.8672 8.63291C37.7817 8.71927 37.6655 8.76823 37.544 8.76907C37.4834 8.76928 37.4234 8.75751 37.3674 8.73443C37.3114 8.71135 37.2606 8.67741 37.2177 8.63459C37.1749 8.59176 37.141 8.54089 37.1179 8.48489C37.0948 8.4289 37.083 8.36889 37.0833 8.30832V8.30357C37.0799 8.2411 37.0894 8.17861 37.1111 8.11993C37.1328 8.06125 37.1662 8.00762 37.2094 7.96233C37.2525 7.91704 37.3045 7.88105 37.3621 7.85656C37.4196 7.83208 37.4816 7.81962 37.5441 7.81994C37.6067 7.82026 37.6685 7.83337 37.7259 7.85845C37.7832 7.88353 37.8347 7.92006 37.8774 7.96579C37.9201 8.01152 37.953 8.0655 37.9741 8.1244C37.9952 8.1833 38.004 8.24589 38 8.30832ZM37.9066 8.3099C37.9074 8.26104 37.8986 8.21249 37.8807 8.16703C37.8628 8.12156 37.8361 8.08007 37.8021 8.04493C37.7681 8.00979 37.7276 7.98169 37.6828 7.96222C37.6379 7.94276 37.5897 7.93231 37.5408 7.93149C37.4918 7.9319 37.4433 7.94204 37.3982 7.96134C37.3531 7.98064 37.3122 8.00871 37.2781 8.04391C37.2439 8.07912 37.2171 8.12076 37.1991 8.16642C37.1812 8.21208 37.1725 8.26085 37.1735 8.3099C37.1735 8.5189 37.3382 8.68832 37.5408 8.68832C37.5897 8.6875 37.6379 8.67705 37.6828 8.65759C37.7276 8.63812 37.7681 8.61002 37.8021 8.57488C37.8361 8.53974 37.8628 8.49825 37.8807 8.45279C37.8986 8.40732 37.9074 8.35877 37.9066 8.3099ZM5.49734 13.9877H6.67217V7.96632H5.49734V13.9877ZM25.6088 12.0117L24.0033 7.96791H22.7208L25.2763 14.1429H25.9081L28.5095 7.96791H27.2365L25.6088 12.0117ZM29.0383 13.9877H32.3697V12.9681H30.2132V11.342H32.2905V10.3223H30.2132V8.98599H32.3697V7.96632H29.0383V13.9877ZM37.6026 8.35582L37.7768 8.57432H37.6232L37.4743 8.36849V8.57432H37.3477V8.04549H37.5171C37.6453 8.04549 37.7166 8.10249 37.7166 8.20857C37.7182 8.28141 37.677 8.33524 37.6026 8.35582ZM37.5931 8.21015C37.5931 8.16424 37.5598 8.14207 37.4981 8.14207H37.4759V8.27982H37.4981C37.5598 8.27982 37.5931 8.25765 37.5931 8.21015ZM35.6488 11.4512L37.544 13.9877H36.1L34.4739 11.5684H34.3203V13.9877H33.1471V7.96632H34.8888C36.2425 7.96632 37.0199 8.61707 37.0199 9.7444C37.0199 10.6675 36.5323 11.2723 35.6488 11.4512ZM35.8118 9.80774C35.8118 9.2219 35.4144 8.91632 34.6829 8.91632H34.3219V10.7403H34.6655C35.4144 10.7387 35.8118 10.4126 35.8118 9.80774ZM4.95742 10.9826C4.9552 11.4243 4.85623 11.8602 4.66749 12.2595C4.47874 12.6589 4.2048 13.0121 3.86492 13.2942C3.287 13.774 2.62834 13.9893 1.71634 13.9893H0.00158691V7.96791H1.72584C3.629 7.96791 4.95742 9.20449 4.95742 10.9826ZM3.74775 10.9731C3.74775 10.3967 3.50392 9.83624 3.097 9.47366C2.70909 9.12216 2.24834 8.98599 1.48992 8.98599H1.17484V12.9681H1.48992C2.24834 12.9681 2.72809 12.8224 3.097 12.4899C3.50234 12.1289 3.74775 11.551 3.74775 10.9731Z" fill="black"/>
</g>
<defs>
<clipPath id="clip0_224_2584">
<rect width="38" height="21" fill="white"/>
</clipPath>
</defs>
</svg>
