<svg width="37" height="10" viewBox="0 0 37 10" fill="none" xmlns="http://www.w3.org/2000/svg">
<path d="M28.3199 9.79501H26.3366L29.0831 0H31.0664L28.3199 9.79501Z" fill="black"/>
<path d="M27.2795 0.303698C27.1496 0.127877 26.9374 0.0319748 26.6451 0.0319748H15.7543L15.2184 1.95202H17.2017H25.1176L24.5482 4.00093H16.6323V3.98494H14.649L13.0078 9.84297H14.9748L16.0801 5.90599H24.9876C25.2637 5.90599 25.5398 5.82507 25.7834 5.63326C26.028 5.44146 26.1904 5.21769 26.2716 4.94497L27.3607 1.02396C27.4419 0.736257 27.4256 0.495502 27.2795 0.303698Z" fill="black"/>
<path d="M11.8375 9.18664C11.7401 9.57025 11.3818 9.84297 10.9758 9.84297H0.751876C0.475801 9.84297 0.263669 9.74707 0.133751 9.55427C-0.0124065 9.36246 -0.0286461 9.13869 0.0363129 8.86697L2.53926 0.0319748H4.52254L2.29567 7.92193H10.2115L12.4546 0.0319748H14.4217L11.8375 9.18664Z" fill="black"/>
<path d="M36.6906 4.87341L32.1975 9.05309L34.5481 0.697624L36.6906 4.87341Z" stroke="black" stroke-width="0.5"/>
<path d="M32.7249 0.0159836L35.2278 4.92897L29.9611 9.84297L32.7249 0.0159836Z" fill="black"/>
</svg>
