<svg width="36" height="15" viewBox="0 0 36 15" fill="none" xmlns="http://www.w3.org/2000/svg">
<g clip-path="url(#clip0_224_2764)">
<path d="M0.000396729 2.68968C0.000396729 1.20504 1.25213 0 2.79241 0H33.2119C34.7522 0 36.0039 1.20504 36.0039 2.68968V12.3064C36.0039 13.791 34.7562 14.9961 33.2119 14.9961H2.79241C1.25213 15 0.000396729 13.795 0.000396729 12.3103V2.68968Z" fill="black"/>
<path d="M1.14636 2.7842V12.2198C1.14636 13.1491 1.92666 13.9013 2.88984 13.9013H18.825V1.10266H2.88984C1.92666 1.10266 1.14636 1.85483 1.14636 2.7842ZM22.946 7.45472C22.946 8.05724 22.6412 8.4668 22.1332 8.4668C21.6861 8.4668 21.3122 8.0533 21.3122 7.50198C21.3122 6.93884 21.6414 6.51747 22.1332 6.51747C22.6534 6.52141 22.946 6.95459 22.946 7.45472ZM19.963 10.9005H21.3082V8.85273H21.3244C21.5804 9.30166 22.0885 9.46706 22.5558 9.46706C23.7141 9.46706 24.3318 8.54162 24.3318 7.42716C24.3318 6.51353 23.7425 5.52508 22.6656 5.52508C22.0519 5.52508 21.487 5.7653 21.2147 6.293H21.1984V5.61172H19.9589V10.9005H19.963ZM26.1688 8.18326C26.1688 7.82096 26.5264 7.68313 26.9816 7.68313C27.1848 7.68313 27.3758 7.69494 27.5506 7.70282C27.5506 8.14388 27.2295 8.59282 26.7215 8.59282C26.4085 8.59675 26.1688 8.44711 26.1688 8.18326ZM28.8836 9.38042C28.8226 9.08507 28.8104 8.78578 28.8104 8.49043V7.08455C28.8104 5.93464 27.9529 5.52114 26.9572 5.52114C26.3842 5.52114 25.8802 5.5999 25.4047 5.78893L25.4291 6.67105C25.803 6.46627 26.2338 6.38751 26.6686 6.38751C27.1523 6.38751 27.5505 6.52534 27.5587 7.04123C27.388 7.01366 27.1482 6.99003 26.9328 6.99003C26.2175 6.99003 24.9252 7.12786 24.9252 8.27777C24.9252 9.09689 25.612 9.46312 26.3801 9.46312C26.9328 9.46312 27.3067 9.25441 27.6115 8.78184H27.6278C27.6278 8.97874 27.6481 9.17171 27.6562 9.37649H28.8836V9.38042ZM29.485 10.9005C29.7614 10.9596 30.0378 10.9871 30.3222 10.9871C31.5536 10.9871 31.8463 10.0656 32.2283 9.12051L33.6548 5.61172H32.3096L31.5089 8.07299H31.4968L30.6596 5.61172H29.2127L30.7896 9.471C30.6921 9.80573 30.4401 9.99082 30.1109 9.99082C29.924 9.99082 29.7614 9.96719 29.5785 9.91206L29.485 10.9005Z" fill="white"/>
<path d="M4.43012 7.46259C4.43012 6.94671 4.69022 6.5214 5.19417 6.5214C5.79971 6.5214 6.05168 6.99003 6.05168 7.4114C6.05168 7.99029 5.66966 8.38016 5.19417 8.38016C4.78776 8.38016 4.43012 8.04936 4.43012 7.46259ZM7.35218 5.60778H6.13297V6.28906H6.12077C5.83629 5.82437 5.37299 5.52114 4.79995 5.52114C3.58886 5.52114 3.04428 6.35994 3.04428 7.48229C3.04428 8.59675 3.71079 9.38042 4.77557 9.38042C5.31609 9.38042 5.76314 9.17564 6.0842 8.73458H6.10045V8.93936C6.10045 9.67577 5.68185 10.0302 4.90562 10.0302C4.34478 10.0302 3.99933 9.91599 3.58886 9.71909L3.51978 10.7469C3.83271 10.8572 4.3651 10.9871 5.00722 10.9871C6.57595 10.9871 7.35218 10.487 7.35218 8.93936V5.60778ZM9.62399 4.0365H8.27879V4.99344H9.62399V4.0365ZM8.27879 9.38042H9.62399V5.60778H8.27879V9.38042ZM13.367 5.56446C13.2329 5.54477 13.0663 5.52114 12.9118 5.52114C12.3307 5.52114 11.9933 5.82437 11.7617 6.30481H11.7454V5.61172H10.5221V9.38436H11.8674V7.79339C11.8674 7.05304 12.2209 6.61198 12.8468 6.61198C13.0053 6.61198 13.1516 6.61198 13.302 6.6553L13.367 5.56446ZM15.6835 8.55343C15.0617 8.55343 14.8097 8.0533 14.8097 7.49804C14.8097 6.9349 15.0617 6.43477 15.6835 6.43477C16.3053 6.43477 16.5573 6.9349 16.5573 7.49804C16.5573 8.0533 16.3012 8.55343 15.6835 8.55343ZM15.6835 9.46706C16.9677 9.46706 17.9472 8.74246 17.9472 7.49804C17.9472 6.24574 16.9677 5.52114 15.6835 5.52114C14.3993 5.52114 13.4198 6.24574 13.4198 7.49804C13.4198 8.74246 14.3952 9.46706 15.6835 9.46706Z" fill="black"/>
</g>
<defs>
<clipPath id="clip0_224_2764">
<rect width="36" height="15" fill="white"/>
</clipPath>
</defs>
</svg>
