<svg width="27" height="27" viewBox="0 0 27 27" fill="none" xmlns="http://www.w3.org/2000/svg">
<g clip-path="url(#clip0_224_2759)">
<path d="M4.50163 0H22.5016C25.5005 0 27.0033 1.49946 27.0033 4.50163V22.5016C27.0033 25.5005 25.5038 27.0033 22.5016 27.0033H4.50163C1.50271 27.0033 0 25.5038 0 22.5016V4.50163C0 1.50271 1.50271 0 4.50163 0Z" fill="black"/>
<path d="M15.3816 13.8594C15.0889 13.5764 14.9978 13.5829 14.7506 13.9115C14.1066 14.7767 13.4593 15.6419 12.8153 16.507C12.6234 16.7673 12.6039 16.7673 12.3925 16.507C12.1095 16.1623 11.8298 15.8142 11.5436 15.4727C11.3777 15.2776 11.2703 15.2808 11.1142 15.476C11.0069 15.6061 10.9093 15.7459 10.8085 15.8825C10.597 16.1688 10.597 16.2403 10.8182 16.5136C11.3256 17.1381 11.833 17.7593 12.3404 18.3806C12.6202 18.7221 12.7015 18.7221 12.9584 18.3741C13.6252 17.4698 14.292 16.5656 14.9621 15.6614C15.0174 15.5866 15.1019 15.5378 15.1735 15.4727C15.232 15.554 15.3198 15.6256 15.3491 15.7167C15.7232 16.8616 15.5118 17.8992 14.6628 18.7514C13.8139 19.6035 12.7665 19.841 11.6216 19.4409C10.1222 18.914 9.33503 17.3332 9.79365 15.863C10.2653 14.3603 11.8103 13.4951 13.365 13.9115C14.0286 14.0904 13.918 14.1749 14.4221 13.4724C14.4351 13.4593 14.4416 13.4431 14.4481 13.4268C14.4937 13.2674 14.6108 13.2252 14.7571 13.2382C14.9946 13.2609 15.0694 13.1471 15.0661 12.9227C15.0629 12.3535 15.0661 11.781 15.0857 11.2118C15.0922 11.0524 15.1344 10.8995 15.2093 10.7597C15.7297 9.83593 16.2631 8.91869 16.7933 7.9982C16.8388 7.91688 16.8811 7.83231 16.9657 7.67293C16.4843 7.67293 16.068 7.67944 15.6516 7.66968C15.4662 7.66643 15.3556 7.73148 15.2776 7.90387C15.0401 8.42104 14.7897 8.93495 14.5392 9.44886C14.5067 9.51392 14.4449 9.56921 14.3961 9.62776C14.3408 9.56596 14.2693 9.51392 14.2335 9.44236C13.9928 8.93495 13.7618 8.42104 13.5146 7.91688C13.4659 7.81605 13.3553 7.67944 13.2707 7.67293C12.8186 7.64691 12.3632 7.65992 11.8395 7.65992C11.9078 7.79979 11.9436 7.88761 11.9892 7.97217C12.4998 8.88291 13.0137 9.79039 13.5244 10.7011C13.5829 10.8085 13.6545 10.9288 13.6578 11.0426C13.6675 11.5826 13.661 12.116 13.6578 12.6527C13.6578 12.8186 13.5699 12.8674 13.4138 12.8348C13.2479 12.8023 13.0755 12.7535 12.9097 12.7665C12.6202 12.7861 12.4771 12.6657 12.3795 12.399C11.8786 11.0622 11.3647 9.73184 10.854 8.40152C10.4962 7.47452 10.6556 7.66643 9.76763 7.64691C9.32852 7.63715 9.32527 7.65017 9.16589 8.05349C8.57066 9.56271 7.97543 11.0719 7.37695 12.5811C7.133 13.1991 7.06145 13.1959 7.78027 13.1926C8.52512 13.1926 8.52838 13.1959 8.80485 12.5161C8.86665 12.3632 8.95447 12.2917 9.12361 12.2949C9.65053 12.3014 10.1807 12.3079 10.7076 12.3014C11.0817 12.2949 11.0394 12.6169 11.1337 12.8251C11.2215 13.0235 11.0231 13.0528 10.9028 13.1081C9.28298 13.8692 8.32346 15.5508 8.66173 17.434C8.9935 19.2945 10.5287 20.5923 12.4055 20.6802C14.0936 20.7615 15.6061 19.8215 16.2761 18.2797C16.9201 16.777 16.5623 15.0011 15.3816 13.8594ZM10.3531 11.1337C10.0669 11.1467 9.78064 11.1467 9.49441 11.1337C9.44887 11.1305 9.3578 11.0199 9.36755 10.9841C9.53018 10.4962 9.70908 10.0116 9.88472 9.52693C9.88797 9.51392 9.91399 9.51066 9.99206 9.46838C10.1612 9.98555 10.3238 10.4799 10.4734 10.9808C10.4865 11.0166 10.3986 11.1337 10.3531 11.1337Z" fill="white"/>
<path d="M24.0922 14.1229C23.8157 14.1196 23.536 14.1294 23.2595 14.1164C23.0513 14.1066 22.9342 14.1782 22.8627 14.3831C22.5244 15.3329 22.1764 16.2761 21.8283 17.2226C21.7861 17.3397 21.7243 17.4503 21.6429 17.6325C21.5714 17.4698 21.5258 17.3853 21.4933 17.2942C21.3925 17.008 21.2819 16.725 21.2103 16.4322C21.1713 16.2696 21.1616 16.0777 21.2103 15.9216C21.373 15.4044 21.5681 14.8938 21.7568 14.3864C21.8348 14.1782 21.7633 14.1034 21.5584 14.1066C21.2266 14.1066 20.8948 14.1099 20.5663 14.1001C20.3647 14.0936 20.2638 14.1749 20.202 14.3701C19.893 15.3654 19.5743 16.3607 19.2523 17.3527C19.2295 17.4178 19.1677 17.4731 19.1254 17.5316C19.0831 17.4698 19.0246 17.4145 19.0018 17.3495C18.67 16.3607 18.3415 15.3719 18.0195 14.3798C17.9512 14.1717 17.8439 14.0708 17.6129 14.0839C17.3104 14.0969 17.0047 14.0806 16.7022 14.0839C16.4485 14.0871 16.4192 14.1326 16.5136 14.3733C17.0958 15.9086 17.6747 17.4406 18.257 18.9758C18.566 19.7955 18.4586 19.6426 19.2327 19.6588C19.7141 19.6686 19.7239 19.6523 19.893 19.2132C20.0329 18.8424 20.1825 18.4716 20.3256 18.1008L20.4297 18.0911C20.5338 18.3513 20.6379 18.6083 20.7387 18.8685C21.1258 19.8605 20.8623 19.6296 21.9162 19.6816C22.1406 19.6914 22.2609 19.5938 22.339 19.3921C22.5667 18.8099 22.8009 18.2342 23.0383 17.6552C23.4709 16.6014 23.91 15.5475 24.3459 14.4904C24.476 14.1684 24.4467 14.1261 24.0922 14.1229ZM7.86159 14.0318C7.60138 14.0383 7.34117 14.0448 7.08421 14.0286C6.83701 14.0123 6.7557 14.1131 6.7557 14.3538C6.7557 15.1475 6.74269 15.9411 6.73293 16.7347C6.73293 16.8323 6.70691 16.9266 6.69064 17.0242L6.61909 17.0372C6.56704 16.9624 6.5085 16.8876 6.45971 16.8096C5.93278 15.9606 5.40261 15.1149 4.87893 14.2628C4.77485 14.0904 4.65125 14.009 4.44634 14.0156C4.12433 14.0253 3.80232 14.0221 3.48031 14.0123C3.2884 14.0058 3.20383 14.0806 3.20383 14.2758C3.19733 15.9509 3.18757 17.626 3.17456 19.3043C3.17456 19.4995 3.26238 19.5775 3.45103 19.5743C3.70149 19.5678 3.95194 19.5613 4.20239 19.5808C4.46585 19.6003 4.54066 19.4962 4.54066 19.2425C4.53741 18.3611 4.55042 17.4763 4.56018 16.5949C4.56018 16.5006 4.5862 16.4062 4.59921 16.3086L4.67402 16.2956C4.73257 16.3802 4.79111 16.4648 4.84315 16.5493C5.3961 17.4666 5.94579 18.3838 6.49549 19.3011C6.58331 19.4474 6.66462 19.5905 6.8793 19.5873C7.21106 19.5775 7.54283 19.584 7.87134 19.5905C8.04373 19.5938 8.11204 19.5125 8.11204 19.3466C8.11854 17.6617 8.1283 15.9769 8.14131 14.292C8.14131 14.0904 8.04699 14.0253 7.86159 14.0318ZM3.53235 13.1731C3.80882 13.1601 4.08855 13.1634 4.36502 13.1764C4.58945 13.1894 4.66751 13.0951 4.66751 12.8804C4.66426 12.425 4.68052 11.9697 4.67402 11.5175C4.67077 11.3029 4.74883 11.2118 4.97326 11.2183C5.30177 11.2313 5.63679 11.2346 5.96531 11.215C6.88255 11.1598 7.58837 10.3531 7.5721 9.39683C7.55584 8.4243 6.81424 7.63391 5.8905 7.6209C5.12288 7.60789 4.35201 7.6209 3.58439 7.60464C3.34695 7.60138 3.27214 7.69246 3.27539 7.92014C3.28515 8.7398 3.27864 9.55946 3.27864 10.3791H3.25262C3.25262 11.2085 3.25913 12.038 3.24937 12.8674C3.23961 13.0853 3.30467 13.1829 3.53235 13.1731ZM4.68378 9.40659C4.70004 8.64548 4.57969 8.76582 5.48392 8.76582C5.98157 8.76582 6.27431 9.26998 6.05638 9.71559C5.94579 9.94002 5.7669 10.0701 5.50994 10.0766C5.4579 10.0766 5.40261 10.0766 5.35056 10.0766C4.61222 10.0669 4.68378 10.184 4.68378 9.40659Z" fill="white"/>
</g>
<defs>
<clipPath id="clip0_224_2759">
<rect width="27" height="27" fill="white"/>
</clipPath>
</defs>
</svg>
