<svg width="30" height="27" viewBox="0 0 30 27" fill="none" xmlns="http://www.w3.org/2000/svg">
<g clip-path="url(#clip0_224_2748)">
<path d="M0.00939941 2.00148V24.9985C0.00939941 26.0993 0.890912 27 1.96832 27H15.4163C25.5831 27 29.9906 21.1857 29.9906 13.47C29.9906 5.79429 25.5831 0 15.4163 0H1.96832C0.890912 0 0.00939941 0.900667 0.00939941 2.00148Z" fill="white"/>
<path d="M9.01062 5.64417V22.6368H16.2488C22.821 22.6368 25.6712 18.8439 25.6712 13.48C25.6712 8.34617 22.821 4.36322 16.2488 4.36322H10.2643C9.56891 4.36322 9.01062 4.94365 9.01062 5.64417Z" fill="black"/>
<path d="M15.4163 25.1686H3.72153C2.68331 25.1686 1.84097 24.308 1.84097 23.2472V3.76279C1.84097 2.70201 2.68331 1.84137 3.72153 1.84137H15.4163C26.5135 1.84137 28.1688 9.13677 28.1688 13.48C28.1688 21.0156 23.6339 25.1686 15.4163 25.1686ZM3.72153 2.48184C3.02612 2.48184 2.46783 3.05227 2.46783 3.76279V23.2472C2.46783 23.9578 3.02612 24.5282 3.72153 24.5282H15.4163C23.2323 24.5282 27.542 20.6053 27.542 13.48C27.542 3.9129 19.9414 2.48184 15.4163 2.48184H3.72153Z" fill="black"/>
<path d="M11.5572 11.1883C11.8119 11.1883 12.0469 11.2283 12.2722 11.3084C12.4975 11.3884 12.6836 11.5185 12.8501 11.6787C13.0068 11.8488 13.1341 12.0589 13.2321 12.2991C13.3202 12.5493 13.3692 12.8395 13.3692 13.1798C13.3692 13.48 13.33 13.7502 13.2615 14.0004C13.1831 14.2506 13.0754 14.4707 12.9284 14.6509C12.7815 14.831 12.5954 14.9711 12.3701 15.0812C12.1449 15.1812 11.8804 15.2413 11.5768 15.2413H9.86273V11.1783H11.5572V11.1883ZM11.4984 14.5007C11.6258 14.5007 11.7433 14.4807 11.8706 14.4407C11.9882 14.4007 12.0959 14.3306 12.184 14.2305C12.2722 14.1305 12.3506 14.0104 12.4093 13.8503C12.4681 13.6901 12.4975 13.51 12.4975 13.2798C12.4975 13.0797 12.4779 12.8896 12.4387 12.7294C12.3995 12.5693 12.331 12.4192 12.2428 12.3091C12.1547 12.199 12.0371 12.099 11.8902 12.0389C11.7433 11.9789 11.567 11.9489 11.3515 11.9489H10.7247V14.5108H11.4984V14.5007Z" fill="white"/>
<path d="M16.905 11.1883V11.9388H14.809V12.8095H16.7385V13.5H14.809V14.4907H16.954V15.2413H13.9373V11.1783H16.905V11.1883Z" fill="white"/>
<path d="M19.9022 11.1883L21.391 15.2513H20.4801L20.1764 14.3506H18.6876L18.3742 15.2513H17.4927L18.9913 11.1883H19.9022ZM19.9511 13.6801L19.4516 12.189H19.4418L18.9227 13.6801H19.9511Z" fill="white"/>
<path d="M22.8112 11.1883V14.5007H24.7505V15.2513H21.9395V11.1883H22.8112Z" fill="white"/>
<path d="M5.73921 15.0912C6.75077 15.0912 7.5708 14.2533 7.5708 13.2198C7.5708 12.1863 6.75077 11.3484 5.73921 11.3484C4.72765 11.3484 3.90762 12.1863 3.90762 13.2198C3.90762 14.2533 4.72765 15.0912 5.73921 15.0912Z" fill="black"/>
<path d="M7.12026 22.6368C5.58251 22.6368 4.34839 21.3658 4.34839 19.8047V17.593C4.34839 16.8124 4.96545 16.172 5.73922 16.172C6.5032 16.172 7.13005 16.8024 7.13005 17.593V22.6368H7.12026Z" fill="black"/>
</g>
<defs>
<clipPath id="clip0_224_2748">
<rect width="30" height="27" fill="white"/>
</clipPath>
</defs>
</svg>
