<svg width="24" height="24" viewBox="0 0 24 24" fill="none" xmlns="http://www.w3.org/2000/svg">
<path d="M4.592 2V22H0V2H4.592ZM16.052 2C16.052 6.194 14.469 10.105 11.637 13.068L11.359 13.351L17.702 22H12.034L5.141 12.6L6.92 11.268C9.778 9.128 11.455 5.89 11.557 2.344L11.562 2H16.052ZM21.5 17C22.163 17 22.7989 17.2634 23.2678 17.7322C23.7366 18.2011 24 18.837 24 19.5C24 20.163 23.7366 20.7989 23.2678 21.2678C22.7989 21.7366 22.163 22 21.5 22C20.837 22 20.2011 21.7366 19.7322 21.2678C19.2634 20.7989 19 20.163 19 19.5C19 18.837 19.2634 18.2011 19.7322 17.7322C20.2011 17.2634 20.837 17 21.5 17Z" fill="black"/>
</svg>
