<svg width="36" height="26" viewBox="0 0 36 26" fill="none" xmlns="http://www.w3.org/2000/svg">
<g clip-path="url(#clip0_224_2650)">
<path d="M36 0H0V26H36V0Z" fill="white"/>
<mask id="mask0_224_2650" style="mask-type:luminance" maskUnits="userSpaceOnUse" x="1" y="1" width="34" height="24">
<path d="M34.8155 1.18719H1.19452V24.8045H34.8155V1.18719Z" fill="white"/>
</mask>
<g mask="url(#mask0_224_2650)">
<rect x="1.19452" y="1.18697" width="33.6497" height="23.6502" fill="black"/>
</g>
<path d="M13.4211 6.53373L14.09 6.68609C14.5971 6.82606 15.0929 7.02632 15.5774 7.28682L16.2742 7.7439C16.5687 7.96979 16.8389 8.22195 17.0849 8.5004C17.487 8.9648 17.812 9.47825 18.0597 10.0407C18.3375 10.6997 18.5134 11.3878 18.5876 12.1052L18.6111 12.3466C18.6112 12.348 18.6113 12.3494 18.6113 12.3508C18.6113 12.3738 18.5927 12.3927 18.57 12.3928L18.2067 12.3947L17.2807 12.394H13.5897L11.73 12.3947C11.721 12.3947 11.7136 12.4023 11.7136 12.4114L11.7129 13.5973C11.7129 13.6121 11.7248 13.6242 11.7394 13.6242L12.9462 13.6231L14.6429 13.6201L16.9927 13.6212L17.7586 13.6204L18.5756 13.6166C18.5758 13.6166 18.5759 13.6166 18.5761 13.6166C18.5945 13.6166 18.6097 13.632 18.6097 13.6508C18.6097 13.6515 18.6096 13.6523 18.6096 13.653C18.5705 14.2223 18.4689 14.7757 18.3048 15.3131C17.9613 16.4387 17.3478 17.3745 16.4641 18.1204C16.2168 18.305 15.9665 18.4998 15.7094 18.6476C15.4672 18.7866 15.2163 18.9128 14.9566 19.0262C14.5781 19.1763 14.1867 19.301 13.7826 19.4003C13.3767 19.4842 12.9678 19.5454 12.556 19.5838C12.0598 19.6201 11.5703 19.6205 11.0873 19.5849C10.6296 19.5493 10.189 19.4843 9.76551 19.3901L8.89107 19.1263L8.31208 18.8769C7.97383 18.7101 7.66334 18.5219 7.38056 18.3122C7.27163 18.2311 7.13908 18.1247 6.98288 17.9931C6.68768 17.7212 6.41796 17.4276 6.17372 17.1122C5.58978 16.287 5.22045 15.3678 5.06574 14.3546C5.03616 14.16 5.01064 13.9745 4.98927 13.7982C4.98005 13.6234 4.97237 13.4583 4.96614 13.3032C4.87287 10.9389 5.7462 8.68005 7.80473 7.41416C8.25415 7.14025 8.73151 6.92448 9.23689 6.76682C9.95141 6.54472 10.6842 6.42381 11.4353 6.40411C11.5663 6.40486 11.7024 6.3897 11.8248 6.39274C12.4135 6.40903 12.86 6.43632 13.4211 6.53373Z" fill="white"/>
<path d="M20.2768 6.76113L21.0602 6.76455L22.9538 6.76379L23.3772 6.76113L24.5483 6.76265L25.9353 6.76189L26.6844 6.76379L27.6983 6.76417C28.1572 6.75659 28.5462 6.78274 28.8653 6.84262C28.9212 6.85297 29.0366 6.88079 29.2115 6.926C29.5343 7.03516 29.8233 7.20344 30.0785 7.43084C30.6331 7.93087 30.9436 8.5618 31.01 9.32361C31.0212 9.45069 31.0208 9.63618 31.0089 9.88C30.9967 9.95883 30.9831 10.0385 30.9682 10.1192C30.819 10.9262 30.4105 11.5462 29.7427 11.9793C29.5144 12.1276 29.2529 12.2325 28.9582 12.2939C28.5794 12.3596 28.2531 12.3926 27.9793 12.3928C27.2294 12.3938 26.4798 12.3942 25.7305 12.394L23.8842 12.3947H22.7923L20.6009 12.3966L19.7399 12.3932C19.722 12.3932 19.7131 12.3841 19.7131 12.3659L19.7119 7.98912L19.7146 6.91084L19.7119 6.78312C19.7119 6.78297 19.7119 6.78285 19.7119 6.7827C19.7118 6.77065 19.7215 6.76057 19.7336 6.76038C19.7337 6.76038 19.7338 6.76038 19.734 6.76038L20.2768 6.76113Z" fill="white"/>
<path d="M20.295 13.617L22.3942 13.6219L23.4851 13.6242L25.6201 13.6223C26.5119 13.6243 27.404 13.6262 28.2964 13.628C28.3901 13.628 28.5386 13.6438 28.7418 13.6754C29.6461 13.7861 30.3888 14.3773 30.7667 15.2104C30.9732 15.6829 31.0544 16.1684 31.0104 16.6669C30.9223 17.67 30.4469 18.422 29.5842 18.9228C29.016 19.1983 28.4213 19.2347 27.7935 19.2351C27.4508 19.2353 27.1079 19.2352 26.765 19.2347L25.4029 19.2351L24.3711 19.2354L22.1148 19.2396L21.8358 19.2358L20.1384 19.2354L19.7549 19.24C19.7302 19.2377 19.7179 19.2296 19.7179 19.2157C19.7182 18.0062 19.7174 16.7957 19.7157 15.5841L19.7149 13.6674C19.7149 13.6333 19.7316 13.6164 19.7649 13.6166L20.295 13.617Z" fill="white"/>
</g>
<defs>
<clipPath id="clip0_224_2650">
<rect width="36" height="26" fill="white"/>
</clipPath>
</defs>
</svg>
