<svg width="38" height="38" viewBox="0 0 38 38" fill="none" xmlns="http://www.w3.org/2000/svg">
<path d="M17.9598 28.5491C18.0516 28.6267 18.1498 28.7042 18.2463 28.7802C16.3828 30.02 14.1455 30.7404 11.7436 30.7404C5.25667 30.742 0 25.4853 0 19C0 12.5162 5.25667 7.258 11.742 7.258C14.1455 7.258 16.3828 7.98 18.2416 9.21816C18.1466 9.29891 18.0516 9.37333 17.9803 9.45566C15.2 11.8576 13.6088 15.3393 13.6088 19C13.6088 22.6591 15.1937 26.1408 17.9598 28.5491ZM26.258 7.258C23.8513 7.258 21.6173 7.98 19.7584 9.21816C19.8534 9.29891 19.9484 9.37333 20.0197 9.45566C22.8 11.8576 24.3913 15.3393 24.3913 19C24.3913 22.6575 22.8063 26.1361 20.0402 28.5491C19.9484 28.6267 19.8503 28.7042 19.7537 28.7802C21.6173 30.02 23.8513 30.7404 26.2564 30.7404C32.7433 30.742 38 25.4853 38 19C38 12.5178 32.7433 7.258 26.258 7.258ZM19 9.77549C18.848 9.89424 18.7008 10.013 18.5567 10.1412C16.0803 12.293 14.5176 15.4612 14.5176 19C14.5176 22.5403 16.0803 25.707 18.5567 27.8587C18.6992 27.9854 18.8496 28.1089 19 28.2261C19.152 28.1089 19.2993 27.9854 19.4433 27.8587C21.9181 25.707 23.4824 22.5403 23.4824 19C23.4824 15.4612 21.9197 12.293 19.4433 10.1412C19.3008 10.0146 19.152 9.89424 19 9.77549Z" fill="black"/>
</svg>
