<svg width="24" height="24" viewBox="0 0 24 24" fill="none" xmlns="http://www.w3.org/2000/svg">
<path d="M15.607 4.653H8.94101L6.64501 19.251H1.82001L4.86201 0H12.857C16.611 0 19.232 2.294 19.33 5.513C18.682 5.035 17.224 4.653 15.607 4.653ZM22.178 10.199C22.178 13.609 19.168 17.052 15.22 17.052H12.727L11.595 24H6.74001L8.58501 12.462H12.177C16.385 12.462 19.523 8.828 19.33 5.513C20.1912 5.95484 20.9132 6.62658 21.4159 7.45372C21.9186 8.28086 22.1824 9.23108 22.178 10.199ZM9.65301 5.546H16.061C16.968 5.546 18.003 5.768 18.424 6.087C18.229 8.828 15.769 11.57 11.983 11.57H8.71401L9.65301 5.546Z" fill="black"/>
</svg>
