<svg width="43" height="15" viewBox="0 0 43 15" fill="none" xmlns="http://www.w3.org/2000/svg">
<g clip-path="url(#clip0_224_2930)">
<path d="M17.6921 14.0061V5.4038C17.6921 3.82095 18.9957 2.53784 20.6037 2.53784L23.1841 2.54167C24.7875 2.5448 26.0856 3.82509 26.0856 5.40336V7.23439C26.0856 8.81724 24.782 10.1004 23.174 10.1004H19.5277" stroke="black" stroke-width="1.45" stroke-miterlimit="10" stroke-linecap="round" stroke-linejoin="round"/>
<path d="M26.8067 2.5367H27.926C28.586 2.5367 29.1209 3.06327 29.1209 3.71286V10.1388" stroke="black" stroke-width="1.45" stroke-miterlimit="10" stroke-linecap="round" stroke-linejoin="round"/>
<path d="M28.8809 1.54114L28.3733 1.04144C28.2473 0.917479 28.2473 0.716459 28.3733 0.592494L28.8806 0.0931153C29.0068 -0.0310384 29.2112 -0.0310384 29.3373 0.0931153L29.8446 0.592494C29.9706 0.716459 29.9706 0.917479 29.8446 1.04144L29.337 1.54114C29.211 1.6651 29.0069 1.6651 28.8809 1.54114Z" fill="black"/>
<path d="M31.2682 2.53096H32.3783C32.9494 2.53096 33.497 2.75427 33.9008 3.15167L36.4972 5.70734C36.8335 6.03841 37.3788 6.03841 37.7151 5.70734L40.302 3.16102C40.7058 2.76363 41.2534 2.54032 41.8245 2.54032H42.727" stroke="black" stroke-width="1.45" stroke-miterlimit="10" stroke-linecap="round" stroke-linejoin="round"/>
<path d="M31.2682 10.0826H32.3783C32.9494 10.0826 33.497 9.85927 33.9008 9.46188L36.4972 6.9062C36.8335 6.57513 37.3788 6.57513 37.7151 6.9062L40.302 9.45252C40.7058 9.84991 41.2534 10.0732 41.8245 10.0732H42.727" stroke="black" stroke-width="1.45" stroke-miterlimit="10" stroke-linecap="round" stroke-linejoin="round"/>
<path d="M11.0741 11.7153C10.517 11.7153 9.99301 11.5018 9.59905 11.1142L7.4692 9.0177C7.31966 8.87012 7.05904 8.87056 6.90955 9.0177L4.77193 11.1218C4.37796 11.5094 3.85397 11.723 3.29687 11.723H2.87714L5.57466 14.3781C6.41708 15.2073 7.78298 15.2073 8.62546 14.3781L11.3307 11.7153H11.0741Z" fill="black"/>
<path d="M3.29684 4.29983C3.85394 4.29983 4.37793 4.51335 4.7719 4.90094L6.90952 7.0054C7.06347 7.157 7.31484 7.15757 7.46917 7.00523L9.59902 4.90862C9.99298 4.52102 10.517 4.3075 11.0741 4.3075H11.3306L8.62549 1.64476C7.78294 0.815496 6.41705 0.815496 5.57463 1.64476L2.87723 4.29984L3.29684 4.29983Z" fill="black"/>
<path d="M13.5682 6.50995L11.9335 4.90085C11.8975 4.91503 11.8585 4.92389 11.8174 4.92389H11.0741C10.6898 4.92389 10.3136 5.07731 10.0421 5.34477L7.91234 7.44119C7.71303 7.63738 7.45113 7.73553 7.18949 7.73553C6.92759 7.73553 6.66589 7.63738 6.46664 7.44138L4.32881 5.33711C4.05728 5.06959 3.68112 4.91623 3.29685 4.91623H2.38291C2.34393 4.91623 2.3075 4.90719 2.27312 4.89444L0.63186 6.50995C-0.21062 7.33921 -0.21062 8.68361 0.63186 9.51287L2.27305 11.1283C2.3075 11.1156 2.34393 11.1065 2.38291 11.1065H3.29685C3.68112 11.1065 4.05728 10.9532 4.32881 10.6857L6.46644 8.58163C6.85281 8.20163 7.52635 8.2015 7.91234 8.5818L10.0421 10.678C10.3136 10.9455 10.6898 11.0989 11.0741 11.0989H11.8174C11.8585 11.0989 11.8975 11.1078 11.9335 11.122L13.5682 9.51287C14.4106 8.6836 14.4106 7.33921 13.5682 6.50995Z" fill="black"/>
</g>
<defs>
<clipPath id="clip0_224_2930">
<rect width="43" height="15" fill="white"/>
</clipPath>
</defs>
</svg>
