<svg width="44" height="16" viewBox="0 0 44 16" fill="none" xmlns="http://www.w3.org/2000/svg">
<g clip-path="url(#clip0_224_2770)">
<path fill-rule="evenodd" clip-rule="evenodd" d="M9.38668 9.16429L12.9708 9.15953L12.8402 10.0071L9.84272 12.981L12.359 12.9762L12.2123 13.8905L8.50668 13.8929L8.66252 12.9476L11.5363 10.0881H9.24231L9.38668 9.16429Z" fill="black"/>
<path fill-rule="evenodd" clip-rule="evenodd" d="M5.46563 7.71428C5.38771 7.62857 5.27542 7.5619 5.15167 7.50952C5.02105 7.45714 4.87667 7.41904 4.73459 7.39285C4.55584 7.35952 4.38167 7.34523 4.25792 7.34047C4.14334 7.33571 4.07 7.33571 4.07 7.33571H2.5025H1.33605L0.291046 13.8929H1.2673L1.6523 11.4643L3.54521 11.4738C3.54521 11.4738 4.28313 11.5048 4.80563 11.2167C5.32813 10.9286 5.46792 10.2738 5.46792 10.2738C5.46792 10.2738 5.52521 10.0309 5.57334 9.73571C5.62605 9.40952 5.67875 9.01904 5.70625 8.8119C5.71771 8.72142 5.72459 8.66428 5.72459 8.66428C5.72459 8.66428 5.73834 8.59761 5.73834 8.49285C5.74063 8.34761 5.72 8.12857 5.61 7.91904C5.57105 7.84523 5.52521 7.77857 5.46563 7.71428ZM4.71396 8.87142C4.71396 8.88333 4.62688 9.40952 4.5123 10.0333C4.46875 10.2714 4.2923 10.4 4.09063 10.4452C3.75605 10.519 3.39625 10.5048 3.39625 10.5048L1.815 10.5L2.16334 8.32142L3.59563 8.32618C3.59563 8.32618 3.69188 8.3238 3.82709 8.32618C3.98063 8.32857 4.18459 8.33571 4.35188 8.35952C4.49625 8.37857 4.61084 8.40952 4.6475 8.45714C4.69563 8.51904 4.71396 8.59999 4.72084 8.67142C4.73 8.77618 4.71396 8.86428 4.71396 8.87142Z" fill="black"/>
<path fill-rule="evenodd" clip-rule="evenodd" d="M17.8314 7.33571H18.771L17.7192 13.8929L16.7773 13.8905L17.8314 7.33571Z" fill="black"/>
<path fill-rule="evenodd" clip-rule="evenodd" d="M22.8456 9.16429L23.7463 9.16191L24.0648 12.4905L25.4513 9.15715L26.5627 9.15953L26.8904 12.5024L28.2746 9.16191H29.2096L27.225 13.8881H26.1158L25.795 10.5786L24.3948 13.8881L23.304 13.8929L22.8456 9.16429Z" fill="black"/>
<path d="M16.0967 9.20239C15.8331 9.11429 15.3771 9.09525 14.9898 9.10001C14.6163 9.10477 14.4444 9.12382 14.3046 9.15477C14.3046 9.15477 13.64 9.25477 13.2619 9.74049C12.8838 10.2262 12.7715 11.2881 12.7715 11.2881C12.7715 11.2881 12.5469 12.4619 12.6133 12.8548C12.6798 13.2452 12.7967 13.6095 13.2229 13.7786C13.6492 13.95 14.0113 13.9405 14.0113 13.9405C14.0113 13.9405 14.7721 14.0024 15.345 13.8619C15.9179 13.7214 16.2204 13.3024 16.2204 13.3024C16.2204 13.3024 16.3556 13.1214 16.4519 12.9072C16.5481 12.6929 16.5779 12.5429 16.5825 12.5238L16.6421 12.2691L15.6681 12.2714C15.6681 12.2714 15.6154 12.9405 15.0883 13.0024C14.5635 13.0643 14.2817 13.0405 14.1785 13.0357C14.0777 13.031 13.514 13.0572 13.5598 12.5667C13.5598 12.5595 13.5598 12.55 13.5621 12.5357C13.5873 11.9786 13.6469 11.8333 13.6469 11.8333L16.7063 11.8238L16.8369 11.0381C16.9881 10.1476 16.8804 9.46906 16.0967 9.20239ZM15.8927 10.9262L13.7958 10.9238L13.8783 10.5786C13.8783 10.5786 13.9517 10.3072 14.096 10.1929C14.2427 10.0786 14.4283 10.0572 14.6025 10.0405C14.7767 10.0238 15.2419 9.9881 15.62 10.0691C15.746 10.0952 15.8652 10.1691 15.8973 10.2786C15.9706 10.5357 15.8927 10.9262 15.8927 10.9262Z" fill="black"/>
<path d="M13.5667 12.5452C13.5667 12.5524 13.5644 12.5595 13.5644 12.5667C13.5621 12.6048 13.5667 12.5429 13.5667 12.5452Z" fill="black"/>
<path d="M19.3371 12.5476C19.3371 12.5548 19.3348 12.5619 19.3348 12.5691C19.3348 12.6072 19.3371 12.5452 19.3371 12.5476Z" fill="black"/>
<path d="M21.8694 9.20477C21.6058 9.11668 21.1498 9.09763 20.7625 9.10239C20.389 9.10715 20.2171 9.1262 20.0773 9.15715C20.0773 9.15715 19.4127 9.25715 19.0346 9.74287C18.6565 10.2286 18.5442 11.2905 18.5442 11.2905C18.5442 11.2905 18.3196 12.4643 18.386 12.8572C18.4525 13.2476 18.5694 13.6119 18.9956 13.781C19.4219 13.9524 19.784 13.9429 19.784 13.9429C19.784 13.9429 20.5448 14.0048 21.1177 13.8643C21.6906 13.7238 21.9931 13.3048 21.9931 13.3048C21.9931 13.3048 22.1283 13.1238 22.2246 12.9095C22.3208 12.6952 22.3506 12.5452 22.3552 12.5262L22.4148 12.2714L21.4408 12.2738C21.4408 12.2738 21.3881 12.9429 20.861 13.0048C20.3363 13.0667 20.0544 13.0429 19.9513 13.0405C19.8504 13.0357 19.2867 13.0595 19.3325 12.5714C19.3325 12.5643 19.3325 12.5548 19.3348 12.5405C19.36 11.9833 19.4196 11.8381 19.4196 11.8381L22.479 11.8286L22.6096 11.0429C22.7608 10.15 22.6531 9.46906 21.8694 9.20477ZM21.6563 10.9262L19.5594 10.9238L19.6419 10.5786C19.6419 10.5786 19.7152 10.3072 19.8596 10.1929C20.004 10.0786 20.1919 10.0572 20.366 10.0405C20.5402 10.0238 21.0054 9.9881 21.3835 10.0691C21.5096 10.0952 21.6288 10.1691 21.6608 10.2786C21.7342 10.5333 21.6563 10.9262 21.6563 10.9262Z" fill="black"/>
<path fill-rule="evenodd" clip-rule="evenodd" d="M30.2912 9.16429L30.894 12.6214L32.5967 9.16191L33.5546 9.17144L31.1002 14.1119C31.1002 14.1119 30.6556 15.0071 30.3806 15.2333C30.1056 15.4595 29.936 15.5619 29.7115 15.5857C29.4869 15.6095 29.3952 15.6262 29.1798 15.5857L28.9506 15.5429L29.0927 14.6595C29.0927 14.6595 29.4731 14.7333 29.6977 14.6405C29.9246 14.5476 30.1056 14.1476 30.1056 14.1476L30.2202 13.9476L29.3333 9.16191L30.2912 9.16429Z" fill="black"/>
<path fill-rule="evenodd" clip-rule="evenodd" d="M33.9029 9.63333L34.8906 9.63571L34.9502 9.23809C34.9502 9.23809 35.0556 8.51904 35.2917 8.38095C35.3673 8.33571 35.4888 8.29523 35.6285 8.26904C35.8875 8.22142 36.2152 8.21666 36.4833 8.22619C36.8935 8.24047 37.0494 8.24523 37.4665 8.29523C37.8835 8.34523 37.7781 8.76428 37.7781 8.76428L37.6956 9.39047C37.6956 9.39047 37.659 9.67142 37.5627 9.84523C37.4779 9.99999 37.2442 10.1048 37.109 10.15C36.7835 10.2595 35.6698 10.5548 35.6698 10.5548L34.7944 10.8167C34.7944 10.8167 34.2558 10.9786 33.9556 11.3238C33.6531 11.6714 33.534 12.0643 33.4927 12.269C33.4515 12.4738 33.22 13.8905 33.22 13.8905L37.9454 13.8929L38.1035 12.9119L34.3658 12.9167L34.4323 12.5167C34.4323 12.5167 34.4758 12.1048 34.6363 11.969C34.6867 11.9262 34.7119 11.869 35.0098 11.7595C35.1885 11.6929 35.7981 11.5238 35.7981 11.5238L37.2075 11.1238C37.2075 11.1238 37.9775 10.919 38.28 10.4809C38.5825 10.0452 38.6994 9.20952 38.6994 9.20952C38.6994 9.20952 38.7819 8.39761 38.7177 8.14285C38.6558 7.88809 38.4244 7.58333 38.1425 7.45238C37.8606 7.32142 37.5673 7.24523 36.7171 7.25714C35.8669 7.26904 35.4452 7.30952 35.0144 7.47619C34.5835 7.64047 34.3338 7.94047 34.1756 8.36428C34.0038 8.76666 33.9029 9.63333 33.9029 9.63333Z" fill="black"/>
<path fill-rule="evenodd" clip-rule="evenodd" d="M42.7992 11.4571L43.4615 7.33333H42.2881L38.6352 11.4095L38.4702 12.4429H41.6648L41.431 13.8905L42.4119 13.8929L42.6433 12.4429L43.5486 12.4452L43.7113 11.4571H42.7992ZM41.8229 11.4595L39.7581 11.4571L42.2721 8.6738L41.8229 11.4595Z" fill="black"/>
<path fill-rule="evenodd" clip-rule="evenodd" d="M7.53729 7.87619H10.5463C10.5463 7.87619 11.22 7.30953 11.699 6.94524C12.1779 6.58095 13.0488 6.00714 13.0488 6.00714L11.3483 5.18095C11.3483 5.18095 9.91146 6.10476 9.30188 6.54048C8.71063 6.94286 7.53729 7.87619 7.53729 7.87619Z" fill="black"/>
<path fill-rule="evenodd" clip-rule="evenodd" d="M14.0044 5.4238L12.6088 4.44761C12.6088 4.44761 13.8715 3.70238 15.5513 3.00714C17.2288 2.3119 18.1248 2.02142 18.1248 2.02142L18.409 3.40476C18.409 3.40476 16.7933 3.96666 15.8675 4.42142C14.9096 4.84523 14.0044 5.4238 14.0044 5.4238Z" fill="black"/>
<path fill-rule="evenodd" clip-rule="evenodd" d="M19.4402 3.10238L19.1973 1.68571C19.1973 1.68571 20.9206 1.20952 22.4973 0.904758C24.0763 0.599996 26.1685 0.454758 26.1685 0.454758L25.4765 2.64285C25.4765 2.64285 23.6363 2.38095 21.9083 2.62619C20.5631 2.79285 19.4402 3.10238 19.4402 3.10238Z" fill="black"/>
<path fill-rule="evenodd" clip-rule="evenodd" d="M26.5719 2.82857L27.736 0.39762C27.736 0.39762 30.2867 0.345239 32.4867 0.700001C34.6867 1.05238 36.6987 1.59524 36.6552 1.61905L31.0773 4.65C31.0773 4.65 29.7733 3.79286 28.1554 3.26667C27.2387 2.98572 26.5719 2.82857 26.5719 2.82857Z" fill="black"/>
<path fill-rule="evenodd" clip-rule="evenodd" d="M32.0765 5.30952L33.3025 6.27619H43.379C43.379 6.27619 43.3584 5.93809 43.0902 5.45714C42.9229 5.15714 42.6181 4.83809 42.2996 4.50714C42.1827 4.38809 41.7198 4.0119 41.3715 3.77619C40.4823 3.17619 39.985 2.94524 39.0615 2.50952L32.0765 5.30952Z" fill="black"/>
<path d="M8.19042 9.15953C7.81229 9.15953 7.45479 9.31429 7.15 9.4881L7.20271 9.15953H6.20125L5.39917 13.8667H6.40292L6.8475 11.2595C6.93917 10.731 7.31959 10.0762 8.06209 10.0762L8.58 10.0738L8.73584 9.15953H8.19042Z" fill="black"/>
</g>
<defs>
<clipPath id="clip0_224_2770">
<rect width="44" height="16" fill="white"/>
</clipPath>
</defs>
</svg>
