<svg width="74" height="54" viewBox="0 0 74 54" fill="none" xmlns="http://www.w3.org/2000/svg">
<path d="M17.9414 0.6875C19.0848 0.687569 20.1236 1.19876 21.0498 2.13574L24.3643 5.31543L24.374 5.3252C25.3764 6.34344 25.9912 7.34006 25.9912 8.29492C25.9912 9.40441 25.22 10.4683 23.9648 11.4883L23.9512 11.5C18.818 15.3804 16.2965 19.6768 16.2344 24.3896C17.2364 25.5751 18.3536 26.126 19.5986 26.126H26.5957C27.9116 26.126 28.9811 26.5272 29.7139 27.3965C30.5702 28.1405 30.9628 29.2232 30.9629 30.5537V49.0723C30.9628 50.4237 30.5601 51.5562 29.7148 52.415C28.9745 53.1671 27.9024 53.5 26.5957 53.5H5.23535C3.87335 53.5 2.75913 53.1705 1.9873 52.4238C1.26089 51.721 0.912667 50.7216 0.87207 49.5049L0.868164 49.2588C0.623339 44.776 0.5 40.9719 0.5 37.8486C0.50002 29.5884 1.36163 22.7361 3.10156 17.3076L3.10547 17.2979C4.9862 11.8215 8.92332 6.69829 14.8652 1.91992L14.876 1.91113L15.2627 1.63281C16.1643 1.02212 17.0599 0.6875 17.9414 0.6875ZM60.4785 0.5C61.6216 0.500076 62.66 1.01172 63.5859 1.94824H63.5869L66.9014 5.12793L66.9062 5.13379L66.9111 5.13867C67.9135 6.15691 68.5283 7.15354 68.5283 8.1084C68.5281 9.21777 67.757 10.2819 66.502 11.3018L66.4951 11.3076L66.4883 11.3125C61.3552 15.1928 58.8338 19.4894 58.7715 24.2021C59.7736 25.3878 60.8906 25.9385 62.1357 25.9385H69.1328C70.4483 25.9385 71.5173 26.3402 72.25 27.209C73.1069 27.953 73.5 29.0362 73.5 30.3672V48.8848C73.5 50.2366 73.0966 51.3695 72.251 52.2285C71.5106 52.9804 70.4394 53.3125 69.1328 53.3125H47.7725C46.4105 53.3125 45.2962 52.9839 44.5244 52.2373C43.798 51.5345 43.4499 50.535 43.4092 49.3184L43.4053 49.0723C43.1604 44.5894 43.0371 40.7854 43.0371 37.6621C43.0371 29.4019 43.8988 22.5495 45.6387 17.1211L45.6426 17.1113C47.5233 11.6348 51.4602 6.51092 57.4023 1.73242L57.4131 1.72461L57.7998 1.44629C58.7015 0.835498 59.5969 0.5 60.4785 0.5Z" fill="url(#paint0_linear_263_915)" stroke="url(#paint1_linear_263_915)"/>
<defs>
<linearGradient id="paint0_linear_263_915" x1="27.5" y1="0.999999" x2="27.5" y2="65.5" gradientUnits="userSpaceOnUse">
<stop stop-color="#2B00FF"/>
<stop offset="0.5625" stop-color="#006FFF" stop-opacity="0.85"/>
<stop offset="1" stop-color="#0048FF" stop-opacity="0.33"/>
</linearGradient>
<linearGradient id="paint1_linear_263_915" x1="37" y1="1" x2="37" y2="53" gradientUnits="userSpaceOnUse">
<stop stop-color="#769DFF"/>
<stop offset="1" stop-color="white"/>
</linearGradient>
</defs>
</svg>
