<svg width="27" height="17" viewBox="0 0 27 17" fill="none" xmlns="http://www.w3.org/2000/svg">
<path d="M14.1221 4.81V12.19H16.1089V10.2842H17.2924L17.622 10.273C18.2734 10.2629 18.6424 10.2505 18.729 10.2359C19.467 10.1391 19.9552 9.76562 20.1915 9.11762C20.3107 8.79137 20.3715 8.2525 20.3715 7.50437C20.3715 6.88225 20.3164 6.41537 20.2084 6.106C20.0002 5.5165 19.5919 5.12612 18.9821 4.936C18.7166 4.85275 18.3296 4.81112 17.8223 4.81112L14.1221 4.81ZM21.7609 4.81L19.5435 12.19H21.5977L21.9544 10.9142H24.6094L24.9885 12.1889H27L24.7556 4.81112L21.7609 4.81ZM11.2545 4.84487C10.4978 4.84268 9.75791 5.06763 9.1305 5.49062C8.53001 5.89208 8.06091 6.46134 7.78162 7.1275H6.94688L6.42487 8.248H7.515C7.5001 8.44503 7.50161 8.64296 7.5195 8.83975H6.99413L6.471 9.95912H7.8075C8.10455 10.6238 8.58867 11.1876 9.20078 11.5818C9.81288 11.9759 10.5265 12.1833 11.2545 12.1787C12.0053 12.1809 12.7398 11.9601 13.365 11.5442L13.3796 11.5341V10.138L13.3234 10.201C13.0642 10.4971 12.7408 10.7301 12.3778 10.882C12.0148 11.0339 11.6218 11.1007 11.229 11.0774C10.8362 11.054 10.4539 10.9411 10.1114 10.7473C9.76895 10.5535 9.47536 10.2839 9.25313 9.95912H11.9486L12.4718 8.83975H8.81775C8.79117 8.64362 8.78664 8.44513 8.80425 8.248H12.7474L12.7564 8.22887L13.2491 7.1725L13.2705 7.1275H9.17325C9.40408 6.74826 9.72829 6.43454 10.1149 6.21631C10.5015 5.99809 10.9377 5.88264 11.3816 5.881C12.1624 5.881 12.8936 6.22975 13.3875 6.83725L13.419 6.87662L13.8791 5.89225L13.8622 5.8765C13.1575 5.21087 12.2239 4.84153 11.2545 4.84487ZM3.1545 4.84937C2.66062 4.84937 2.21288 4.86737 1.809 4.90337C1.32525 4.94162 0.925875 5.07212 0.61425 5.29487C0.394497 5.44997 0.232301 5.67348 0.153 5.9305C0.05625 6.2095 0.009 6.58075 0.009 7.04425C0.009 7.65175 0.097875 8.10512 0.2745 8.4055C0.475875 8.75875 0.878625 8.9905 1.48275 9.10412C1.71337 9.1435 2.124 9.184 2.7135 9.22675C3.44925 9.27625 3.861 9.3145 3.94875 9.34262C4.18612 9.4135 4.30425 9.6115 4.30425 9.93662C4.30757 10.0561 4.29355 10.1755 4.26263 10.291C4.23436 10.3664 4.18958 10.4345 4.13157 10.4904C4.07356 10.5463 4.0038 10.5885 3.92737 10.6139C3.83287 10.6499 3.61125 10.6679 3.26475 10.6679H2.58525C2.42593 10.6684 2.26843 10.6339 2.124 10.5666C1.9395 10.4755 1.84725 10.2696 1.84725 9.949V9.796H0C0 10.3956 0.045 10.8254 0.13275 11.0819C0.2925 11.5454 0.622125 11.8525 1.12162 12.0044C1.52887 12.1281 2.25 12.1889 3.28387 12.1889C3.90375 12.1889 4.36387 12.1607 4.66537 12.1045C5.38537 11.9695 5.84663 11.65 6.0525 11.1449C6.16613 10.8692 6.22238 10.4339 6.22238 9.83987C6.22238 9.58112 6.21113 9.3505 6.18525 9.14575C6.15545 8.82956 6.01384 8.53437 5.78588 8.31325C5.50238 8.041 5.04338 7.87225 4.41338 7.80925C4.21425 7.78787 3.71587 7.75075 2.91712 7.69675L2.54475 7.67087C2.40694 7.66754 2.27193 7.63128 2.151 7.56512C2.0115 7.48075 1.94287 7.303 1.94287 7.03525C1.94287 6.73825 2.02162 6.54587 2.17687 6.457C2.33325 6.36812 2.65275 6.32425 3.13537 6.32425C3.6315 6.32425 3.93413 6.40075 4.04438 6.55487C4.11525 6.65837 4.15125 6.86087 4.15125 7.16462H5.9985C6.00975 7.0015 6.0165 6.88 6.0165 6.79787C6.0165 5.80337 5.61487 5.19925 4.8105 4.98325C4.48088 4.89437 3.92962 4.84937 3.1545 4.84937ZM23.2852 6.27812L24.2156 9.4765H22.3819L23.2852 6.27812ZM16.1077 6.42437H17.3633C17.5658 6.42437 17.694 6.42887 17.748 6.43562C18.018 6.48287 18.1901 6.61225 18.261 6.82375C18.3116 6.9745 18.3364 7.20625 18.3364 7.51787C18.341 7.71059 18.3286 7.90335 18.2993 8.09387C18.2599 8.28737 18.1811 8.41675 18.063 8.48087C17.9775 8.52812 17.739 8.5585 17.3464 8.57312H16.1089L16.1077 6.42437Z" fill="black"/>
</svg>
