<svg width="40" height="15" viewBox="0 0 40 15" fill="none" xmlns="http://www.w3.org/2000/svg">
<g clip-path="url(#clip0_224_2664)">
<path fill-rule="evenodd" clip-rule="evenodd" d="M37.1639 14.6331H0.380646L2.83072 0.372131H39.6194L37.1639 14.6331Z" fill="black"/>
<path fill-rule="evenodd" clip-rule="evenodd" d="M12.111 8.67925C11.4837 8.67925 11.0441 8.28093 11.0441 7.65724C11.0441 6.96542 11.5909 6.32076 12.379 6.32076C13.0063 6.32076 13.4459 6.74005 13.4459 7.36374C13.4513 8.05032 12.8991 8.67925 12.111 8.67925ZM12.4809 5.12579C10.8296 5.12579 9.58047 6.30504 9.58047 7.71489C9.58047 8.99372 10.6098 9.87422 12.0145 9.87422C13.6657 9.87422 14.9149 8.65829 14.9149 7.24843C14.9095 5.97485 13.8855 5.12579 12.4809 5.12579Z" fill="#E5E5E0"/>
<path fill-rule="evenodd" clip-rule="evenodd" d="M22.0614 8.67925C21.4341 8.67925 20.9945 8.28093 20.9945 7.65724C20.9945 6.96542 21.5414 6.32076 22.3295 6.32076C22.9567 6.32076 23.3963 6.74005 23.3963 7.36374C23.3963 8.05032 22.8495 8.67925 22.0614 8.67925ZM22.426 5.12579C20.7747 5.12579 19.5255 6.30504 19.5255 7.71489C19.5255 8.99372 20.5549 9.87422 21.9595 9.87422C23.6108 9.87422 24.8599 8.65829 24.8599 7.24843C24.8599 5.97485 23.8306 5.12579 22.426 5.12579Z" fill="#E5E5E0"/>
<path fill-rule="evenodd" clip-rule="evenodd" d="M27.369 7.37421H27.1546L27.3154 6.42033H27.5084C27.9641 6.42033 28.2107 6.5566 28.2107 6.84486C28.2107 7.20126 27.8622 7.37421 27.369 7.37421ZM29.7172 6.62474C29.7172 5.77044 29.031 5.22012 27.7925 5.22012H26.0394L25.2728 9.77987H26.7471L26.9884 8.34381H27.0581L27.8408 9.77987H29.5296L28.4466 8.18658C29.2401 7.91928 29.7172 7.33752 29.7172 6.62474Z" fill="#E5E5E0"/>
<path fill-rule="evenodd" clip-rule="evenodd" d="M7.8917 7.03879C7.33414 6.76625 7.20547 6.69288 7.20547 6.54613C7.20547 6.36269 7.42528 6.27359 7.73623 6.27359C8.09007 6.27359 8.63155 6.31028 9.15695 6.7977C9.28562 6.40462 9.50006 6.05347 9.77885 5.74424C9.03364 5.33544 8.3474 5.12579 7.71478 5.12579C6.4549 5.12579 5.73649 5.78093 5.73649 6.56709C5.73649 7.24319 6.26189 7.59959 6.88915 7.90881C7.44672 8.19183 7.59147 8.27569 7.59147 8.44864C7.59147 8.63208 7.35558 8.7369 7.04463 8.7369C6.50315 8.7369 5.88125 8.40672 5.51132 8.07129L5.29688 9.33963C5.68288 9.60693 6.23509 9.8847 7.06607 9.8847C8.36349 9.8847 9.06581 9.25053 9.06581 8.43292C9.05508 7.76206 8.60474 7.39519 7.8917 7.03879Z" fill="#E5E5E0"/>
<path fill-rule="evenodd" clip-rule="evenodd" d="M18.7911 7.22223H17.0647L17.1988 6.42558H19.0484C19.2897 5.9434 19.6596 5.5346 20.1206 5.22537H17.0916C16.4214 5.22537 15.8478 5.67086 15.7459 6.27359L15.1562 9.78512H16.6305L16.8717 8.34906H18.6249L18.7535 7.56814C18.7589 7.45284 18.7696 7.33753 18.7911 7.22223Z" fill="#E5E5E0"/>
<path fill-rule="evenodd" clip-rule="evenodd" d="M29.7494 5.22012C30.1407 5.51362 30.3873 5.92243 30.4356 6.42033H31.6687L31.1004 9.77463H32.5747L33.143 6.42033H34.5101L34.7138 5.22012H29.7494Z" fill="#E5E5E0"/>
</g>
<defs>
<clipPath id="clip0_224_2664">
<rect width="40" height="15" fill="white"/>
</clipPath>
</defs>
</svg>
