<svg width="38" height="16" viewBox="0 0 38 16" fill="none" xmlns="http://www.w3.org/2000/svg">
<path d="M6.27474 0.000403033C5.11152 0.000479581 3.97123 0.323892 2.98118 0.934527C1.99114 1.54516 1.19032 2.41898 0.668152 3.4584C0.228809 4.33264 0 5.29752 0 6.27594C0 7.25437 0.228809 8.21924 0.668152 9.09349C1.19032 10.1329 1.99114 11.0067 2.98118 11.6174C3.97123 12.228 5.11152 12.5514 6.27474 12.5515C7.9689 12.5515 9.3939 11.9942 10.4342 11.0362C11.6185 9.94374 12.3025 8.32874 12.3025 6.41924C12.3021 5.99146 12.265 5.5645 12.1917 5.14307H6.27632V7.55924H9.66465C9.59568 7.9452 9.4493 8.31321 9.23433 8.6411C9.01937 8.96899 8.74026 9.24999 8.41382 9.46715C7.85015 9.84874 7.12499 10.0672 6.27632 10.0672C4.63915 10.0672 3.25057 8.96365 2.7534 7.4769C2.49083 6.69779 2.49083 5.8541 2.7534 5.07499C3.25057 3.58665 4.63915 2.48465 6.27632 2.48465C7.17091 2.47002 8.03536 2.80784 8.68299 3.42515L10.4753 1.63599C9.33966 0.568571 7.83319 -0.0176066 6.27474 0.000403033ZM16.568 0.871236V11.7962H17.9708V7.37082H20.2904C21.2452 7.37082 22.0479 7.06049 22.7002 6.43982C23.025 6.14873 23.2829 5.79088 23.4565 5.39079C23.63 4.9907 23.715 4.55782 23.7057 4.12182C23.7123 3.68807 23.6259 3.25793 23.4525 2.8603C23.2791 2.46267 23.0226 2.10676 22.7002 1.81649C22.381 1.50734 22.0037 1.2645 21.59 1.10198C21.1764 0.93947 20.7347 0.860507 20.2904 0.869653L16.568 0.871236ZM20.4107 2.21707C20.6556 2.22134 20.897 2.27469 21.1209 2.37396C21.3447 2.47323 21.5463 2.61639 21.7138 2.79499C21.8922 2.9685 22.034 3.17602 22.1308 3.40528C22.2277 3.63453 22.2776 3.88087 22.2776 4.12974C22.2776 4.3786 22.2277 4.62494 22.1308 4.85419C22.034 5.08345 21.8922 5.29097 21.7138 5.46449C21.5345 5.65019 21.3183 5.79639 21.0792 5.89372C20.8401 5.99106 20.5833 6.03738 20.3252 6.02974H17.9708V2.21707H20.3252C20.3537 2.2164 20.3822 2.2164 20.4107 2.21707ZM26.9404 4.07749C25.6072 4.07749 24.6018 4.56515 23.921 5.54207L25.1576 6.31949C25.6136 5.65924 26.2342 5.32832 27.018 5.32832C27.518 5.32218 28.002 5.50479 28.3733 5.83974C28.5561 5.99089 28.703 6.18086 28.8032 6.39585C28.9035 6.61084 28.9546 6.84545 28.9528 7.08265V7.40249C28.4145 7.0969 27.7273 6.9449 26.8945 6.9449C25.9176 6.9449 25.137 7.17449 24.5527 7.63207C23.9669 8.08807 23.6756 8.70399 23.6756 9.47665C23.6692 9.82437 23.7405 10.1691 23.8843 10.4858C24.0281 10.8024 24.2408 11.083 24.5068 11.307C25.061 11.7947 25.7497 12.0401 26.5731 12.0401C27.5389 12.0401 28.3116 11.6126 28.8927 10.7576H28.9528V11.7947H30.2955V7.18874C30.2955 6.2229 29.9947 5.4629 29.3962 4.90874C28.7945 4.35457 27.9775 4.07749 26.9404 4.07749ZM30.5235 4.32132L33.6047 11.3228L31.8662 15.0912H33.3149L38 4.31974H36.4721L34.3061 9.68882H34.2744L32.0482 4.32132H30.5235ZM27.1257 8.07065C27.9078 8.07065 28.519 8.24482 28.956 8.59315C28.956 9.18215 28.7232 9.69515 28.2593 10.1337C27.8406 10.5526 27.2729 10.7883 26.6807 10.7892C26.2851 10.7968 25.899 10.667 25.5882 10.4219C25.4436 10.3173 25.3261 10.1797 25.2454 10.0205C25.1647 9.86133 25.1232 9.68519 25.1243 9.50674C25.1243 9.09982 25.3143 8.76257 25.6991 8.48232C26.0791 8.2084 26.5557 8.07065 27.1257 8.07065Z" fill="black"/>
</svg>
