<svg width="38" height="13" viewBox="0 0 38 13" fill="none" xmlns="http://www.w3.org/2000/svg">
<path d="M14.4273 0.218501L9.4525 12.0872H6.20667L3.75883 2.61408C3.61 2.03142 3.48175 1.81767 3.02892 1.57225C2.29108 1.17167 1.07192 0.796417 0 0.562084L0.0728333 0.218501H5.29783C5.63928 0.218158 5.96959 0.339886 6.22916 0.561711C6.48873 0.783536 6.66046 1.09084 6.71333 1.42817L8.00692 8.29667L11.2021 0.218501H14.4273ZM27.1463 8.21275C27.1589 5.07933 22.8143 4.90675 22.8443 3.50708C22.8538 3.08117 23.2592 2.62833 24.1458 2.51275C25.185 2.41406 26.2314 2.59787 27.1748 3.04475L27.7131 0.52725C26.7947 0.181997 25.8221 0.00344631 24.8409 0C21.8057 0 19.6698 1.615 19.6508 3.92508C19.6318 5.6335 21.1755 6.58508 22.3393 7.15508C23.5363 7.73617 23.9384 8.10983 23.9321 8.62917C23.9242 9.42717 22.9789 9.77708 22.0954 9.79133C20.5517 9.81508 19.6571 9.37492 18.9414 9.04242L18.3857 11.6423C19.1029 11.9716 20.4266 12.2598 21.7993 12.2724C25.0246 12.2724 27.1352 10.6796 27.1463 8.21275ZM35.1595 12.0872H38L35.5221 0.218501H32.9001C32.6199 0.215905 32.3455 0.297538 32.1123 0.452816C31.8791 0.608093 31.6979 0.829851 31.5922 1.08933L26.9863 12.0872H30.21L30.8513 10.3138H34.7906L35.1595 12.0872ZM31.7347 7.88183L33.3498 3.42475L34.2807 7.88183H31.7347ZM18.8148 0.218501L16.2767 12.0872H13.205L15.7462 0.218501H18.8148Z" fill="black"/>
</svg>
