<svg width="38" height="10" viewBox="0 0 38 10" fill="none" xmlns="http://www.w3.org/2000/svg">
<path d="M20.6625 1.59624C22.202 1.71278 23.3949 2.17749 24.3905 2.67972V0.605551C24.3905 0.605551 22.3991 0.104901 20.5259 0.0228846C13.9937 -0.269874 12.1421 2.29402 12.1421 4.97745C12.1421 7.66073 13.9937 10.2254 20.5259 9.93265C22.3991 9.84778 24.3905 9.34777 24.3905 9.34777V7.27582C23.4099 7.76364 22.2013 8.24276 20.6625 8.35724C18.0036 8.55864 16.4037 7.26363 16.4037 4.97809C16.4037 2.69049 18.0036 1.3969 20.6625 1.59624ZM32.8304 8.12401C32.7492 8.14063 32.5801 8.15568 32.49 8.15568H29.6392V5.5731H32.49C32.5799 5.5731 32.749 5.58893 32.8303 5.60477C33.1164 5.6677 33.3721 5.82719 33.5545 6.05645C33.7368 6.2857 33.8347 6.57075 33.8317 6.86368C33.8317 7.52266 33.3771 8.00526 32.8304 8.12401ZM29.6392 1.73146H32.224C32.3174 1.73146 32.4542 1.74365 32.5046 1.75315C33.0391 1.84372 33.4951 2.27676 33.4951 2.92355C33.4951 3.57113 33.0391 4.00259 32.5039 4.09395C32.4108 4.10648 32.3171 4.11372 32.2232 4.11564H29.6406V1.73288L29.6392 1.73146ZM35.1799 4.87533V4.81769C36.626 4.60695 37.4202 3.66819 37.4202 2.56952C37.4202 1.17175 36.2575 0.366152 34.6821 0.286985C34.5599 0.281919 34.3607 0.269568 34.2002 0.269568H25.7573V9.68518H34.8691C36.6583 9.68518 38 8.72837 38 7.23639C38 5.85874 36.7769 4.98537 35.1799 4.87533ZM6.89462 5.95009C6.89462 7.34137 5.95951 8.37433 4.25743 8.37433C2.80551 8.37433 1.37988 7.94272 0 7.27582V9.34777C0 9.34777 2.21999 9.95418 5.05242 9.95418C9.75713 9.95418 11.1283 8.17294 11.1283 5.94994V0.269885H6.89399L6.89462 5.95009Z" fill="black"/>
</svg>
