<svg width="38" height="16" viewBox="0 0 38 16" fill="none" xmlns="http://www.w3.org/2000/svg">
<path d="M7.85348 0C7.20034 0.0345712 6.39916 0.42998 5.93762 0.985281C5.52179 1.46064 5.15385 2.23849 5.24965 2.96881C5.98551 3.03363 6.7192 2.60365 7.18293 2.06563C7.62924 1.50817 7.93403 0.762729 7.85348 0.00216158V0ZM12.6584 0.907495V12.7762H14.5133V8.72059H17.0823C19.4292 8.72059 21.0773 7.12383 21.0773 4.8054C21.0773 2.49345 19.4619 0.905335 17.1411 0.905335L12.6584 0.907495ZM14.5133 2.46104H16.6512C18.2601 2.46104 19.1788 3.31668 19.1788 4.81405C19.1788 6.30925 18.2601 7.17353 16.6447 7.17353H14.5133V2.46104ZM7.64665 3.10925C6.66695 3.13086 5.83965 3.71425 5.36068 3.71425C4.84906 3.71425 4.06965 3.14382 3.22493 3.15895C2.67545 3.17256 2.13913 3.32871 1.66933 3.61188C1.19952 3.89505 0.812611 4.29536 0.547078 4.77299C-0.600262 6.73491 0.244459 9.64537 1.36132 11.2443C1.90342 12.0351 2.55656 12.9059 3.41652 12.8735C4.22858 12.8432 4.54862 12.3506 5.53485 12.3506C6.52326 12.3506 6.81064 12.8735 7.66842 12.8583C8.56104 12.8432 9.12056 12.0675 9.66048 11.2745C10.2831 10.3735 10.5379 9.50277 10.5531 9.45739C10.5379 9.44011 8.83318 8.7919 8.81794 6.8451C8.80052 5.21594 10.1569 4.44024 10.22 4.39271C9.45366 3.26914 8.2606 3.14382 7.84695 3.11141C7.78027 3.10726 7.71345 3.10797 7.64665 3.10925ZM25.5077 3.96705C23.3524 3.96705 22.0113 5.1187 21.9111 6.68089H23.6027C23.7595 5.90736 24.4061 5.41472 25.4424 5.41472C26.5353 5.41472 27.1906 5.98947 27.1906 6.95098V7.61864L24.8023 7.75692C22.7319 7.8736 21.5628 8.8027 21.5628 10.3152C21.5628 11.8709 22.7558 12.9232 24.4627 12.9232C25.6079 12.9232 26.7095 12.316 27.2146 11.3523H27.2559V12.7762H28.9715V6.81269C28.9715 5.07765 27.6217 3.96705 25.5077 3.96705ZM29.7313 4.12262L32.8794 12.7849C32.8794 12.7914 32.7205 13.3034 32.7205 13.3186C32.4484 14.2045 32.002 14.5523 31.1726 14.5523C31.0223 14.5523 30.7241 14.5523 30.5913 14.5199V15.9589C30.7219 15.9827 31.1726 16 31.3206 16C33.1276 16 33.9898 15.3259 34.7343 13.2278L38 4.12262H36.1103L33.907 11.1643H33.8744L31.6689 4.12046L29.7313 4.12262ZM27.1906 8.8524V9.53518C27.1906 10.6609 26.2109 11.5165 24.9613 11.5165C23.999 11.5165 23.3698 11.0239 23.3698 10.2655C23.3698 9.52654 23.975 9.0555 25.044 8.9842L27.1906 8.8524Z" fill="black"/>
</svg>
