<svg width="30" height="10" viewBox="0 0 30 10" fill="none" xmlns="http://www.w3.org/2000/svg">
<path d="M19.8125 -1.0518e-06C19.7957 1.61237e-05 19.779 0.00176328 19.7625 0.00521573C18.9125 0.253031 19.0838 1.50254 17.5363 1.60949H17.3863C17.3644 1.60909 17.3426 1.61127 17.3213 1.61602H17.32C17.2541 1.63251 17.1955 1.67177 17.1538 1.72743C17.112 1.78308 17.0895 1.85184 17.09 1.92252V3.3442C17.09 3.51898 17.2225 3.65854 17.3863 3.65854H18.1925V9.68827C18.1925 9.86044 18.3225 9.9987 18.4838 9.9987H19.8063C19.8843 9.99766 19.9587 9.96442 20.0133 9.90624C20.0679 9.84806 20.0982 9.76969 20.0975 9.68827V3.65854H20.8475C21.01 3.65854 21.1425 3.51898 21.1425 3.3442V1.92252C21.1428 1.8403 21.112 1.76126 21.0568 1.70263C21.0015 1.644 20.9263 1.61053 20.8475 1.60949H20.0825V0.285639C20.0828 0.248299 20.0761 0.211257 20.0627 0.176628C20.0493 0.141999 20.0295 0.110461 20.0045 0.0838158C19.9794 0.0571703 19.9495 0.0359389 19.9166 0.0213338C19.8837 0.00672866 19.8483 0.000339945 19.8125 -1.0518e-06ZM25.0938 1.52602C24.5963 1.52602 24.1413 1.72166 23.7913 2.04122V1.87948C23.7868 1.80125 23.7542 1.72766 23.7 1.67347C23.6457 1.61928 23.5738 1.5885 23.4988 1.58732H22.1613C22.0821 1.58869 22.0067 1.62264 21.9515 1.68176C21.8962 1.74088 21.8656 1.82039 21.8663 1.90296V9.62436C21.8656 9.70694 21.8962 9.78645 21.9515 9.84557C22.0067 9.90468 22.0821 9.93863 22.1613 9.94H23.4988C23.6488 9.94 23.77 9.82131 23.79 9.66741V4.12417C23.7849 3.98971 23.8306 3.85854 23.9174 3.75897C24.0042 3.65941 24.125 3.59944 24.2538 3.59202H24.4988C24.6021 3.60042 24.7006 3.64136 24.7813 3.7094C24.8394 3.76017 24.8859 3.82391 24.9172 3.89593C24.9486 3.96794 24.9641 4.04638 24.9625 4.12547V9.43915L24.9675 9.64132C24.9672 9.72389 24.9981 9.80326 25.0536 9.86213C25.1091 9.92101 25.1846 9.95462 25.2638 9.95565H26.6013C26.6777 9.95437 26.7508 9.92255 26.8054 9.86675C26.8601 9.81094 26.8921 9.7354 26.895 9.65567L26.8938 4.11765C26.8938 3.93505 26.9713 3.77071 27.1113 3.67419C27.1845 3.62366 27.2688 3.59316 27.3563 3.5855H27.6038C27.8913 3.61158 28.0663 3.84635 28.0663 4.11765C28.0725 5.93844 28.0713 7.76966 28.0713 9.62697C28.0709 9.70955 28.1019 9.78891 28.1573 9.84779C28.2128 9.90666 28.2884 9.94027 28.3675 9.94131H29.705C29.8675 9.94131 30 9.80044 30 9.62697V3.70158C30 3.29725 29.9575 3.12508 29.9 2.949C29.7668 2.53623 29.5132 2.17726 29.1747 1.92234C28.8363 1.66742 28.4299 1.5293 28.0125 1.52732H27.9938C27.7238 1.52755 27.4567 1.58553 27.209 1.6977C26.9613 1.80987 26.7383 1.97384 26.5538 2.17947C26.19 1.77775 25.6788 1.52732 25.1125 1.52732L25.0938 1.52602ZM0.290011 1.60819C0.251599 1.60853 0.213627 1.61676 0.178264 1.63242C0.142902 1.64807 0.11084 1.67084 0.0839111 1.69942C0.0569818 1.72801 0.0357121 1.76185 0.0213164 1.79901C0.00692075 1.83617 -0.000318935 1.87592 1.07755e-05 1.916V9.64262C1.07755e-05 9.81479 0.120011 9.95304 0.270011 9.95696H1.63251C1.79501 9.95696 1.92876 9.8174 1.92876 9.64393L1.93376 7.48141H3.21251C4.28376 7.48141 5.02876 6.69232 5.02876 5.54976V3.54376C5.02876 2.39989 4.28376 1.60819 3.21251 1.60819H0.290011ZM11.58 1.60819C11.5408 1.60853 11.502 1.61693 11.4659 1.63291C11.4297 1.6489 11.397 1.67215 11.3695 1.70133C11.342 1.73052 11.3202 1.76508 11.3055 1.80303C11.2908 1.84098 11.2834 1.88159 11.2838 1.92252V5.14412C11.2838 6.37016 12.105 7.24142 13.2575 7.24142H14.1013C14.1013 7.24142 14.1213 7.24142 14.1475 7.24664C14.2245 7.25656 14.2953 7.29565 14.3465 7.3565C14.3976 7.41734 14.4256 7.49568 14.425 7.57663C14.425 7.74618 14.305 7.88314 14.1513 7.904L14.1288 7.90922L13.75 7.91705H12.1738C12.095 7.91808 12.0197 7.95155 11.9645 8.01018C11.9092 8.06881 11.8784 8.14785 11.8788 8.23008V9.65175C11.8781 9.73433 11.9087 9.81384 11.964 9.87295C12.0192 9.93207 12.0946 9.96602 12.1738 9.96739H14.3613C15.5113 9.96739 16.3325 9.09482 16.3325 7.87009V1.92252C16.3328 1.8403 16.302 1.76126 16.2468 1.70263C16.1915 1.644 16.1163 1.61053 16.0375 1.60949H14.7C14.6212 1.61053 14.546 1.644 14.4907 1.70263C14.4355 1.76126 14.4047 1.8403 14.405 1.92252C14.3988 2.949 14.405 3.91157 14.405 4.8637C14.404 4.94987 14.3708 5.03221 14.3124 5.09315C14.254 5.15408 14.1751 5.18876 14.0925 5.18977H13.5313C13.4476 5.18874 13.3677 5.15316 13.3092 5.09082C13.2506 5.02849 13.2181 4.94447 13.2188 4.85718C13.225 3.87374 13.2125 2.90074 13.2125 1.92252C13.2128 1.8403 13.182 1.76126 13.1268 1.70263C13.0715 1.644 12.9963 1.61053 12.9175 1.60949L11.58 1.60819ZM6.57501 1.61602C6.53692 1.61497 6.49901 1.62177 6.46344 1.63603C6.42788 1.65028 6.39535 1.67171 6.36772 1.69908C6.34009 1.72645 6.31791 1.75924 6.30243 1.79557C6.28695 1.83189 6.27848 1.87104 6.27751 1.91079V3.24508C6.27751 3.41724 6.41876 3.55811 6.59251 3.55811H8.35876C8.49876 3.58028 8.60876 3.68853 8.62501 3.85809V4.04069C8.60876 4.20243 8.50001 4.31981 8.36626 4.33285H7.49126C6.32876 4.33285 5.49876 5.15456 5.49876 6.30886V7.964C5.49876 9.11178 6.21126 9.92826 7.36751 9.92826H9.79251C10.2275 9.92826 10.58 9.5761 10.58 9.14569V3.75114C10.58 2.44163 9.94501 1.61602 8.43001 1.61602H6.57501ZM1.93376 3.66636H2.78126C2.95501 3.66636 3.09376 3.81636 3.09376 4.00026V5.09065C3.09425 5.13398 3.08656 5.177 3.07113 5.21723C3.05569 5.25746 3.03281 5.29413 3.00379 5.32514C2.97477 5.35614 2.94018 5.38088 2.902 5.39794C2.86382 5.41499 2.82279 5.42404 2.78126 5.42455H2.65626C2.41626 5.42715 2.17376 5.42455 1.93376 5.42455V3.66636ZM7.77126 6.24495H8.32751C8.50126 6.24495 8.64251 6.38581 8.64251 6.55797V7.77357C8.64207 7.80741 8.63616 7.84092 8.62501 7.8727C8.60275 7.93611 8.56218 7.99074 8.50889 8.02906C8.4556 8.06737 8.39222 8.08748 8.32751 8.0866H7.77126C7.68979 8.08836 7.61096 8.05644 7.55195 7.9978C7.49295 7.93916 7.45855 7.85856 7.45626 7.77357V6.55667C7.45626 6.3845 7.59751 6.24495 7.77126 6.24495Z" fill="black"/>
</svg>
